<svg xmlns="http://www.w3.org/2000/svg" viewBox="0 0 250 250"><defs><style>.cls-1{fill:#15253e;}.cls-2,.cls-3{fill:#243885;}.cls-3,.cls-6{fill-rule:evenodd;}.cls-4{fill:#70c5cb;}.cls-5,.cls-6{fill:#eae773;}.cls-7{fill:#fcd468;}.cls-8{fill:#90c894;}</style></defs><g id="Ebene_2" data-name="Ebene 2"><g id="Images"><rect class="cls-1" width="250" height="250"/><path class="cls-2" d="M235.1,61.1a30.58,30.58,0,0,0-8,10.68c-2.37,4.86-4.49,9.82-7.93,14a33.88,33.88,0,0,1-3.79,4c-.29.26-.59.51-.89.76l-.23.19-.24.18a20.44,20.44,0,0,1-2.51,1.59c-5,2.58-11,2.28-16.39,3.45a23.86,23.86,0,0,0-13.49,8.27,60.37,60.37,0,0,0-8,13.83c-2.25,5-4.3,10.07-7.68,14.42a29.88,29.88,0,0,1-9.39,8.07,38.11,38.11,0,0,1-9.76,3.59c-3,.73-6.07,1.22-9.07,2a27.06,27.06,0,0,0-3.74,1.18c-2.41,1-4.89,1.93-7.25,3a16.59,16.59,0,0,0-6.86,6.11,21,21,0,0,0-3.25,6.93c-.81,4.07.52,8.38,1.7,12.24,2.82,9.19,7.24,19,4.43,28.75a24.65,24.65,0,0,1-5.26,9.23c-2.2,2.49-4.74,4.67-6.91,7.19a16.19,16.19,0,0,0-4.26,8.71c-.53,4.6,1.92,8.41,2.93,12.73a14.24,14.24,0,0,1,0,7.16,2.64,2.64,0,0,0-.1.66h5.08a19.31,19.31,0,0,0,.11-7.94c-.48-2.69-1.63-5.11-2.42-7.56-.15-.46-.28-.93-.39-1.39,0-.16-.18-.94-.19-1a12.41,12.41,0,0,1,0-2.28v0l.09-.48c.07-.32.15-.63.25-.94,0-.11.21-.57.23-.66.14-.3.28-.59.44-.87a16.49,16.49,0,0,1,1.12-1.73l0,0v0l.39-.47c.27-.32.55-.63.83-.94,1-1.14,2.15-2.22,3.25-3.31a43.63,43.63,0,0,0,6.95-8.44,27.74,27.74,0,0,0,3.79-13c.21-5.17-1.07-10.37-2.54-15.3-1.38-4.62-3.14-9.16-4.21-13.88a14.48,14.48,0,0,1-.49-4.9v-.09s0-.05,0-.09.07-.33.12-.5a5.7,5.7,0,0,1,.36-1,29.1,29.1,0,0,1,2-3.91,12.3,12.3,0,0,1,5.86-4.91c1.44-.61,2.92-1.11,4.36-1.74.46-.2.91-.42,1.36-.63l.54-.21a58.56,58.56,0,0,1,8.17-2c7.38-1.5,14.41-3.83,20.29-8.71a39.47,39.47,0,0,0,9.13-11.38c2.63-4.81,4.47-10,7-14.87,2.22-4.25,4.93-8.62,9-11.33,4.61-3.08,10.26-3.26,15.57-4.08a25.58,25.58,0,0,0,13-5.55,39.93,39.93,0,0,0,8.18-9.76c4.74-7.64,7-18.42,16.35-21.74a19.5,19.5,0,0,1,7.23-1v-5A22.41,22.41,0,0,0,235.1,61.1ZM135.55,152h0C135.7,151.91,136,151.81,135.55,152Z"/><path class="cls-2" d="M99.16,10.8c-4,3.14-7.91,6.79-9,11.94-1.34,6.18,1.49,11.94,4.1,17.37a41.17,41.17,0,0,1,3.18,8,21.86,21.86,0,0,1,.19,9.18c-2.26,12.09-12,20.84-22.12,26.77-5.78,3.38-11.67,6.4-16.7,10.9a58.8,58.8,0,0,0-11.22,13.9,74.88,74.88,0,0,0-7,16.2c-1.47,4.84-2.91,10-6.11,13.78a18.7,18.7,0,0,1-2,2,11,11,0,0,1-1.92,1.35l-.94.49-.37.17-.16.06a17.27,17.27,0,0,1-2.24.62l-.21.05H26.4c-.36,0-.71,0-1.07,0s-.57,0-.86,0l-.5,0h0c-.56-.15-1.14-.23-1.69-.41l-.54-.2-.62-.3c-.2-.11-.39-.22-.58-.35l-.27-.18h0a6.13,6.13,0,0,1-1.47-1.81,17.56,17.56,0,0,1-2-5.91c-.74-4.08-.6-9.14,1.41-12.67a137.22,137.22,0,0,0,6.45-12.17A78.06,78.06,0,0,0,30.2,92.78c1.33-7,1.36-14.76-1.64-21.37-3.51-7.75-11.37-12-19.35-13.76A51.19,51.19,0,0,0,0,56.36v5a39,39,0,0,1,15.51,3.72A20.94,20.94,0,0,1,19.93,68,15.09,15.09,0,0,1,23,71.57a19.22,19.22,0,0,1,1.09,2c.08.15.15.31.22.46v0c.17.44.33.87.48,1.31a28,28,0,0,1,1,4.12.56.56,0,0,0,0,.07h0c0,.18,0,.37.07.55s.06.61.08.92c.06.71.09,1.42.12,2.13a39,39,0,0,1-.3,6.2c-1.44,10.3-6,20.37-11.44,29.17-2.56,4.15-3.18,9.31-2.73,14.1.41,4.46,1.6,9.79,5.08,12.94,4.55,4.1,11.81,3.76,16.79.69a23.31,23.31,0,0,0,8.37-9.78c2.68-5.49,3.73-11.58,6.1-17.2,4.66-11,12.12-20.45,22.49-26.59C76.05,89.36,81.81,86.38,87,82.25a46,46,0,0,0,12-14,31.32,31.32,0,0,0,3.69-19.33C101.73,42.78,98.15,37.67,96,32c-.92-2.49-1.64-5.24-1.07-7.9a12,12,0,0,1,3.18-5.71c3.46-3.68,8-6.2,11.37-9.94A20.62,20.62,0,0,0,114,.67a2.75,2.75,0,0,0,.11-.67H109C107.23,4.73,103,7.76,99.16,10.8Z"/><path class="cls-3" d="M234.83,152.93a5.17,5.17,0,0,1-3.63-8.84l3.54-3.51c-2-1-4.24-1.67-5.41-.86-2.39,1.67-2.26,5.5-5,7.15s-11.11,1.1-15.06,5.66c-2.62,3.26-1.72,10,2.88,15.18s12,9.86,16.17,7.53,4.83-11.32,6.94-14.19,6.45-1.08,9-5.8C242,153.06,235.11,152.93,234.83,152.93Zm-12,13.65a1.71,1.71,0,0,1-1.21.5,1.75,1.75,0,0,1-1.22-.5L216,162.22a1.72,1.72,0,1,1,2.44-2.43l4.35,4.35A1.71,1.71,0,0,1,222.8,166.58Zm5.43,2.55a1.79,1.79,0,1,1,1.78-1.78A1.79,1.79,0,0,1,228.23,169.13Z"/><path class="cls-2" d="M250,130.16l-16.39,16.38a1.73,1.73,0,0,0,0,2.44,1.74,1.74,0,0,0,2.44,0L250,135Z"/><path class="cls-2" d="M250,127.11v-1A1.77,1.77,0,0,0,250,127.11Z"/><path class="cls-2" d="M127.39,103a1.73,1.73,0,0,0-2.44,0l-1.53,1.53-1-1A1.73,1.73,0,0,0,120,106l1,1-1.83,1.83-1-1a1.72,1.72,0,1,0-2.44,2.43l1,1L98.91,129.06a1.73,1.73,0,0,0,0,2.44,1.75,1.75,0,0,0,1.22.5,1.71,1.71,0,0,0,1.21-.5l17.82-17.82,1,1a1.72,1.72,0,1,0,2.43-2.44l-1-1,1.82-1.82,1,1a1.72,1.72,0,0,0,1.22.51,1.68,1.68,0,0,0,1.21-.51,1.7,1.7,0,0,0,0-2.43l-1-1,1.53-1.53A1.72,1.72,0,0,0,127.39,103Z"/><path class="cls-3" d="M103.76,134a5.17,5.17,0,1,1-7.27-7.34l3.2-3.16c-1.63-1.23-3.67-2.12-5.52-1-3.89,2.33-4.69,5.43-7.43,7.08s-8.28,1-12.24,5.53c-2.63,3.27-2.36,10.71,3.25,16.59,4.79,5,11.81,6.65,16,4.32s5.75-10.26,7.86-13.14,1-.64,5.45-5.35c2.41-2.58,1.4-5,0-6.76Zm-15.7,15.19a1.7,1.7,0,0,1-1.22.51,1.68,1.68,0,0,1-1.21-.51l-4.37-4.36a1.73,1.73,0,0,1,2.44-2.44l4.36,4.37A1.72,1.72,0,0,1,88.06,149.14Zm2.78-4.69a4.83,4.83,0,1,1,4.82-4.82A4.82,4.82,0,0,1,90.84,144.45Z"/><path class="cls-2" d="M68,191.69l-10.15-3.61v-2.17a1.71,1.71,0,0,0-1.71-1.73h0a1.72,1.72,0,0,0-1.72,1.72v2.26l-10.2,3.52a1.73,1.73,0,0,0,1.13,3.26l9.06-3.13-.06,36.81H50a1.73,1.73,0,0,0,0,3.45H62.12a1.73,1.73,0,0,0,0-3.45H57.75l.06-36.89,9,3.2a1.69,1.69,0,0,0,.58.1,1.72,1.72,0,0,0,.58-3.34Z"/><path class="cls-2" d="M44.73,230.38l-2.87-2.55a15.82,15.82,0,1,0-26.17-.68l-3.64,3.23a1.72,1.72,0,0,0,1.14,3,1.69,1.69,0,0,0,1.14-.44l3.49-3.09a15.71,15.71,0,0,0,21.73.52l2.9,2.57a1.69,1.69,0,0,0,1.14.44,1.72,1.72,0,0,0,1.14-3Zm-14.8,1.33a5.58,5.58,0,1,1,4.66-6.36A5.59,5.59,0,0,1,29.93,231.71Z"/><path class="cls-2" d="M174.8,174.92a12.21,12.21,0,0,0-6,1.52l16.55,16.64a12.21,12.21,0,0,0-10.59-18.16Z"/><path class="cls-2" d="M162.6,187.13c-.57,3.32,9,12.81,12.2,12.2a12,12,0,0,0,8.51-3.5L166.1,178.54A12.23,12.23,0,0,0,162.6,187.13Z"/><path class="cls-2" d="M170.25,201.39a28.5,28.5,0,0,1-9.06-9.22,1.28,1.28,0,0,0-1-.62,1.34,1.34,0,0,0-1.08.41L131,222.79a1.3,1.3,0,0,0,0,1.78l5.59,5.69a1.3,1.3,0,0,0,1.75.08l32-26.87a1.26,1.26,0,0,0,.46-1.07A1.31,1.31,0,0,0,170.25,201.39ZM162,204,151,213.89a2.06,2.06,0,0,1-1.41.52,2,2,0,0,1-1.48-.73,2.17,2.17,0,0,1,.21-3l11.07-9.91a2,2,0,0,1,2.89.2A2.17,2.17,0,0,1,162,204Z"/><path class="cls-2" d="M66.53,60,48.4,45.69a1.73,1.73,0,0,0-2.14,2.71l1.26,1c.84,2-.63,3.54-1.34,7.82-.87,5.23-1,18.82-5,18.82-1.44,0-1.91-13-2.06-22.65h.26a1.72,1.72,0,0,0,0-3.44h-.3c0-.56,0-1.12,0-1.62h.15a1.73,1.73,0,0,0,0-3.45h-.17V43.25h.17a1.73,1.73,0,0,0,0-3.45h0c0-.54.06-1.09.08-1.64a1.7,1.7,0,0,0,.14-3.38c.06-1.7.12-3.39.15-5.11.1-7-.64-10.59-4.68-11.87-3.72-1.19-8.31,7.73-12.15,10.29v3.33c4.74-1.27,7.31-7.31,9.59-6.71s-3.68,30.68-6.12,46.64,14,21.5,23.62,16S57.1,70,59.36,64.69c1-2.38,4.08-2.11,5.21-1.92a1.31,1.31,0,0,0,.33.12l0,0h0a1.85,1.85,0,0,0,.53.18A1.72,1.72,0,0,0,66.53,60Z"/><path class="cls-2" d="M19.33,28.65a18.35,18.35,0,0,1-4-1.26c-2.31-.93-2.54.3-1,1.8a12,12,0,0,0,5,2.3Z"/><path class="cls-4" d="M75.8,55.32,57.66,41a1.72,1.72,0,1,0-2.13,2.71l1.26,1c.83,1.95-.63,3.54-1.35,7.82-.86,5.23-1,18.82-5,18.82-1.44,0-1.91-13-2.06-22.65h.26a1.72,1.72,0,1,0,0-3.44h-.31c0-.56,0-1.12,0-1.62h.16a1.73,1.73,0,0,0,0-3.45h-.17V38.56h.17a1.73,1.73,0,0,0,0-3.45h0l.09-1.64a1.7,1.7,0,0,0,.13-3.38c.06-1.69.13-3.39.15-5.1.11-7-.64-10.6-4.68-11.88C40.47,11.92,35.87,20.85,32,23.4v3.33c4.74-1.27,7.3-7.31,9.58-6.71S37.94,50.7,35.5,66.66s14,21.5,23.63,16S66.36,65.29,68.63,60c1-2.38,4.07-2.11,5.2-1.92a1.38,1.38,0,0,0,.34.12l0,0h0a1.75,1.75,0,0,0,.53.18,1.71,1.71,0,0,0,1.35-.65A1.73,1.73,0,0,0,75.8,55.32Z"/><path class="cls-4" d="M28.59,24a18.52,18.52,0,0,1-4-1.26c-2.3-.93-2.54.3-1,1.8a11.92,11.92,0,0,0,5,2.3Z"/><path class="cls-2" d="M166.83,72.49a.75.75,0,0,1-.79-.72V53.2h-5.89a.76.76,0,0,0-.76.76v27a.8.8,0,0,0,.76.79h8.13a.79.79,0,0,0,.79-.79V72.49Z"/><path class="cls-2" d="M180.13,72.49a.75.75,0,0,1-.79-.72V53.2h-3.45V71.8a.8.8,0,0,1-.79.76h-2.24v8.37a.79.79,0,0,0,.76.79h8.13a.79.79,0,0,0,.79-.79V72.49Z"/><path class="cls-2" d="M208.27,53.2h-5.89V71.8a.76.76,0,0,1-.76.76h-2.27v8.37a.79.79,0,0,0,.79.79h8.13a.8.8,0,0,0,.76-.79V54a.77.77,0,0,0-.73-.79Z"/><path class="cls-2" d="M193.46,72.49a.76.76,0,0,1-.76-.76V53.2h-3.65V71.8a.76.76,0,0,1-.76.76H186v8.37a.83.83,0,0,0,.79.79h8.13a.83.83,0,0,0,.79-.79V72.49Z"/><path class="cls-2" d="M170.83,33.36V30.5H160.29a1.73,1.73,0,0,0,0,3.45H170.9A3,3,0,0,1,170.83,33.36Z"/><path class="cls-2" d="M206.79,30.5H181.16v2.86a2.91,2.91,0,0,1,0,.59h25.7a1.73,1.73,0,0,0,0-3.45Z"/><path class="cls-2" d="M176,38.77a1.72,1.72,0,0,1-1.72-1.72v-10a1.73,1.73,0,0,1,3.45,0v10A1.72,1.72,0,0,1,176,38.77Z"/><circle class="cls-2" cx="167.76" cy="45.14" r="3.82"/><circle class="cls-2" cx="184.67" cy="45.14" r="3.82"/><circle class="cls-2" cx="200.59" cy="45.14" r="3.82"/><path class="cls-4" d="M173.89,68.6a.76.76,0,0,1-.79-.72V49.31h-5.89a.76.76,0,0,0-.76.76V77a.8.8,0,0,0,.76.79h8.13a.79.79,0,0,0,.79-.79V68.6Z"/><path class="cls-4" d="M187.19,68.6a.75.75,0,0,1-.79-.72V49.31H183v18.6a.79.79,0,0,1-.79.76h-2.24V77a.79.79,0,0,0,.76.79h8.13a.79.79,0,0,0,.79-.79V68.6Z"/><path class="cls-4" d="M215.33,49.31h-5.89v18.6a.76.76,0,0,1-.76.76h-2.27V77a.79.79,0,0,0,.79.79h8.13a.8.8,0,0,0,.76-.79V50.1a.77.77,0,0,0-.73-.79Z"/><path class="cls-4" d="M200.52,68.6a.76.76,0,0,1-.76-.76V49.31h-3.65v18.6a.76.76,0,0,1-.76.76h-2.27V77a.83.83,0,0,0,.79.79H202a.83.83,0,0,0,.79-.79V68.6Z"/><path class="cls-4" d="M177.89,29.47V26.61H167.35a1.73,1.73,0,0,0,0,3.45H178A3.81,3.81,0,0,1,177.89,29.47Z"/><path class="cls-4" d="M213.85,26.61H188.22v2.86a2.91,2.91,0,0,1,0,.59h25.7a1.73,1.73,0,0,0,0-3.45Z"/><path class="cls-4" d="M183.06,34.88a1.72,1.72,0,0,1-1.73-1.72v-10a1.73,1.73,0,0,1,3.45,0v10A1.72,1.72,0,0,1,183.06,34.88Z"/><circle class="cls-4" cx="174.82" cy="41.25" r="3.82"/><circle class="cls-4" cx="191.74" cy="41.25" r="3.82"/><circle class="cls-4" cx="207.65" cy="41.25" r="3.82"/><path class="cls-5" d="M140.28,102.76a1.7,1.7,0,0,0-2.43,0l-1.53,1.53-1-1a1.72,1.72,0,1,0-2.43,2.44l1,1-1.83,1.83-1-1a1.72,1.72,0,0,0-2.43,2.44l1,1L111.8,128.8a1.73,1.73,0,0,0,0,2.44,1.74,1.74,0,0,0,2.44,0l17.82-17.82,1,1a1.72,1.72,0,0,0,2.44-2.43l-1-1,1.83-1.82,1,1a1.74,1.74,0,0,0,2.44,0,1.73,1.73,0,0,0,0-2.44l-1-1,1.53-1.53A1.72,1.72,0,0,0,140.28,102.76Z"/><path class="cls-6" d="M116.65,133.69a5.16,5.16,0,1,1-7.26-7.34l3.19-3.16c-1.63-1.23-3.67-2.12-5.52-1-3.89,2.34-4.69,5.44-7.43,7.09s-8.28.95-12.24,5.53c-2.62,3.27-2.36,10.71,3.26,16.58,4.79,5,11.8,6.66,16,4.32s5.74-10.25,7.86-13.13,1-.64,5.44-5.35c2.41-2.58,1.4-5.05,0-6.76ZM101,148.88a1.71,1.71,0,0,1-2.44,0l-4.37-4.36a1.73,1.73,0,0,1,2.44-2.44l4.37,4.37A1.72,1.72,0,0,1,101,148.88Zm2.77-4.69a4.83,4.83,0,1,1,4.82-4.83A4.82,4.82,0,0,1,103.73,144.19Z"/><path class="cls-5" d="M250,140.69l-4.72,4.72a1.72,1.72,0,0,0,1.21,2.94,1.73,1.73,0,0,0,1.22-.5l2.29-2.29Z"/><path class="cls-5" d="M250,152.07a34.65,34.65,0,0,0-3.51-.28,5.17,5.17,0,0,1-3.63-8.84l3.54-3.5c-2-.95-4.24-1.67-5.4-.86-2.39,1.67-2.27,5.5-5,7.15s-11.12,1.09-15.06,5.66c-2.62,3.25-1.73,10,2.87,15.18s12,9.86,16.18,7.53,4.82-11.32,6.93-14.19a5.4,5.4,0,0,1,3.08-1.85Zm-15.53,13.37a1.71,1.71,0,0,1-2.44,0l-4.35-4.35a1.72,1.72,0,0,1,2.43-2.43l4.36,4.35A1.72,1.72,0,0,1,234.47,165.44Zm5.42,2.55a1.78,1.78,0,1,1,1.78-1.78A1.78,1.78,0,0,1,239.89,168Z"/><path class="cls-2" d="M9.08,120.57l-1.52,1.52-1-1a1.73,1.73,0,0,0-2.44,2.44l1,1-1.81,1.81-1-1A1.73,1.73,0,0,0,0,125.31v2.59l.87.88-.87.87v4.87l3.31-3.31.95,1a1.72,1.72,0,0,0,2.44-2.43l-1-1L7.56,127l1,1a1.68,1.68,0,0,0,1.21.51,1.7,1.7,0,0,0,1.22-.51,1.72,1.72,0,0,0,0-2.43l-1-1L11.51,123a1.72,1.72,0,1,0-2.43-2.44Z"/><path class="cls-7" d="M75.64,187,65.5,183.34v-2.18a1.72,1.72,0,0,0-1.72-1.72h0a1.72,1.72,0,0,0-1.72,1.72v2.26l-10.19,3.52A1.72,1.72,0,0,0,53,190.2l9.07-3.13L62,223.88H57.68a1.73,1.73,0,1,0,0,3.45H69.81a1.73,1.73,0,0,0,0-3.45H65.43L65.49,187l9,3.2a1.73,1.73,0,0,0,.58.1,1.72,1.72,0,0,0,.58-3.34Z"/><path class="cls-7" d="M52.42,225.64l-2.88-2.55a15.82,15.82,0,1,0-26.16-.68l-3.65,3.23A1.72,1.72,0,1,0,22,228.21l3.5-3.09a15.7,15.7,0,0,0,21.72.52l2.91,2.57a1.72,1.72,0,1,0,2.28-2.57ZM37.62,227a5.58,5.58,0,1,1,4.66-6.36A5.57,5.57,0,0,1,37.62,227Z"/><path class="cls-7" d="M184.48,176.73a12.25,12.25,0,0,0-5.95,1.52l16.55,16.65a12.39,12.39,0,0,0,1.55-5.89A12.22,12.22,0,0,0,184.48,176.73Z"/><path class="cls-7" d="M172.29,189c-.57,3.31,9,12.8,12.19,12.19a12,12,0,0,0,8.52-3.5l-17.22-17.28A12.2,12.2,0,0,0,172.29,189Z"/><path class="cls-7" d="M179.94,203.21a28.63,28.63,0,0,1-9.06-9.23,1.28,1.28,0,0,0-1-.62,1.35,1.35,0,0,0-1.08.42L140.68,224.6a1.3,1.3,0,0,0,0,1.78l5.58,5.69a1.3,1.3,0,0,0,.93.39,1.28,1.28,0,0,0,.83-.31l32-26.87a1.32,1.32,0,0,0,.46-1.07A1.27,1.27,0,0,0,179.94,203.21Zm-8.22,2.57-11.07,9.92a2,2,0,0,1-1.41.52,2,2,0,0,1-1.49-.73,2.18,2.18,0,0,1,.21-3L169,202.59a2,2,0,0,1,2.9.2A2.18,2.18,0,0,1,171.72,205.78Z"/><path class="cls-8" d="M136.87,54a5,5,0,1,0-5-5,5.06,5.06,0,0,0,5,5Z"/><path class="cls-8" d="M191.6,134.76a5,5,0,1,0-5-5,5.05,5.05,0,0,0,5,5Z"/><path class="cls-8" d="M221.91,104.45a5,5,0,1,0-5-5,5.05,5.05,0,0,0,5,5Z"/><path class="cls-8" d="M153.16,93.71a5,5,0,1,0-5-5,5.06,5.06,0,0,0,5,5Z"/><path class="cls-8" d="M235.26,23.34a5,5,0,1,0-5-5,5.06,5.06,0,0,0,5,5Z"/><path class="cls-8" d="M60,18.78a5,5,0,1,0-5-5,5.05,5.05,0,0,0,5,5Z"/><path class="cls-8" d="M43.69,155.61a5,5,0,1,0-5-5,5.05,5.05,0,0,0,5,5Z"/><path class="cls-8" d="M109.5,190.15a5,5,0,1,0-5-5,5.05,5.05,0,0,0,5,5Z"/><path class="cls-8" d="M151.86,170a5,5,0,1,0-5-5,5.06,5.06,0,0,0,5,5Z"/><path class="cls-8" d="M73,98.27a5,5,0,1,0-5-5,5.05,5.05,0,0,0,5,5Z"/><path class="cls-8" d="M230,214.43a5,5,0,1,0-5-5,5.06,5.06,0,0,0,5,5Z"/><path class="cls-8" d="M106.24,226.63a5,5,0,1,0-5-5,5,5,0,0,0,5,5Z"/><path class="cls-8" d="M204.63,246.83a5,5,0,1,0-5-5,5.05,5.05,0,0,0,5,5Z"/><path class="cls-8" d="M118,18.78a5,5,0,1,0-5-5,5.05,5.05,0,0,0,5,5Z"/><path class="cls-8" d="M16.33,61.13a5,5,0,1,0-5-5,5.06,5.06,0,0,0,5,5Z"/><path class="cls-5" d="M0,157.93c1.88-.54,3.93-1.1,5.37-3.82C4.28,153,2,152.45,0,152.14Z"/><path class="cls-5" d="M20.74,119.44,19.22,121l-1-1a1.72,1.72,0,0,0-2.43,2.44l1,1L15,125.21l-1-1a1.72,1.72,0,0,0-2.43,0,1.7,1.7,0,0,0,0,2.43l1,1L0,140.18v4.87l15-15,1,1a1.72,1.72,0,0,0,1.22.51,1.68,1.68,0,0,0,1.21-.51,1.7,1.7,0,0,0,0-2.43l-.95-1,1.81-1.82,1,1a1.74,1.74,0,0,0,2.44,0,1.73,1.73,0,0,0,0-2.44l-1-.95,1.52-1.53a1.72,1.72,0,1,0-2.44-2.43Z"/></g></g></svg>