<svg xmlns="http://www.w3.org/2000/svg" viewBox="0 0 250 250"><defs><style>.cls-1{fill:#fff;}.cls-2{fill:#15253e;}.cls-3{fill:#233568;}.cls-4{fill:#ea5655;}.cls-5{fill:#ef7b31;}.cls-6{fill:#da4970;}.cls-7{fill:#a41b5c;}</style></defs><g id="Ebene_2" data-name="Ebene 2"><g id="Images"><rect class="cls-1" width="250" height="250"/><rect class="cls-2" width="250" height="250"/><path class="cls-3" d="M250,100.22V94.71a2.42,2.42,0,0,0-1.26.37c-5.75,3.5-10.35,8.84-14.81,13.78-1.67,1.85-3.31,3.75-5,5.6l-.55.57-.59.34,0,0a3.81,3.81,0,0,1-.44.15,10.16,10.16,0,0,1-1.09.26l-.21,0-.44,0-1.13.06c-.81,0-1.61,0-2.42,0-1.8-.08-3.6-.24-5.4-.33-3.55-.19-7.34-.21-10.69,1.14a17.49,17.49,0,0,0-7.45,6.26c-3.89,5.32-6,11.84-8.1,18-.39,1.19-.78,2.38-1.2,3.57-.17.48-.34,1-.52,1.42-.07.18-.37.82,0,.14l-.68,1.47a39.87,39.87,0,0,1-6.33,9.64,29,29,0,0,1-7.1,5.73,31,31,0,0,1-7.26,3.08c-4.49,1.37-9.19,1.88-13.69,3.2a23.56,23.56,0,0,0-3,1.12c-1.86.83-3.77,1.53-5.64,2.33-4.35,1.87-7.26,5.23-9.31,9.43a27.38,27.38,0,0,0-3,11.83,44.23,44.23,0,0,0,1.84,12c2.08,7.6,5.52,15,6.52,22.85a27.58,27.58,0,0,1,.15,5.45,2.53,2.53,0,0,0,2.5,2.5,2.55,2.55,0,0,0,2.5-2.5c.57-7.9-2.36-15.6-4.8-23-2.31-7-5-14.81-3.1-22.22.92-3.62,2.84-7.76,5.77-10.16a20.17,20.17,0,0,1,5.62-2.77c1.05-.41,2.08-.84,3.1-1.33l.41-.17.37-.15c4.2-1.52,8.74-1.95,13.05-3.07A39.25,39.25,0,0,0,182,163.75a41.16,41.16,0,0,0,11.81-17.38c2-5.55,3.57-11.24,6.26-16.45a22.48,22.48,0,0,1,5.13-7.06,9.69,9.69,0,0,1,3.17-1.75,16.55,16.55,0,0,1,4.7-.63c3.54-.07,7.06.45,10.6.45,3,0,6.32-.4,8.53-2.67,5.45-5.61,10.15-12,16.26-16.92.07,0,.53-.41.54-.43.24-.17.47-.35.72-.52Z"/><path class="cls-3" d="M13.51,98.6l.17.12h0Z"/><path class="cls-3" d="M113.69,12.64a14.4,14.4,0,0,1-1.25,14.71c-2.68,3.69-6.78,6.15-10.19,9.1C98.4,39.78,95.44,44,95.19,49.2,94.92,55,98,60.28,100.36,65.32a31.87,31.87,0,0,1,2.74,7.8,22.42,22.42,0,0,1-.2,8.56,32.94,32.94,0,0,1-7.94,15A55.82,55.82,0,0,1,82.09,107.1c-5.5,3.32-11.26,6.1-16.25,10.2-8.74,7.19-14.68,17.26-18.57,27.76-1,2.67-1.78,5.38-2.57,8.11-.75,2.57-1.54,5.31-3.21,7.46-2.79,3.58-7.76,4.23-11.84,2.7-4.55-1.71-7.2-6.28-8.08-10.85a28.26,28.26,0,0,1,.17-8.61c.73-6.37,1.35-12.75,1.58-19.15.25-7.07.26-14.5-1.62-21.37a17.29,17.29,0,0,0-4-7.71C15,92.88,10.58,92.19,6.86,92.45A17.64,17.64,0,0,0,0,94.4v5.35a2.39,2.39,0,0,0,1.26-.35,13,13,0,0,1,7.5-2,16.35,16.35,0,0,1,3.6.62c.21.06.53.21.48.18l.55.29.12.08c-.15-.1.06,0,.16.11h0l.08,0-.08,0c.2.19.41.37.6.57s.24.27.36.41.37.52.45.64a16.8,16.8,0,0,1,.84,1.57l.14.31a.58.58,0,0,0,.05.14c.14.37.28.75.4,1.13a32.55,32.55,0,0,1,1.11,4.66c.07.39.13.78.19,1.17,0,.05,0,.08,0,.11v.06c0,.2.05.4.07.6.11.91.19,1.82.26,2.74a107.42,107.42,0,0,1,.17,11.35c-.21,6.54-.84,13-1.59,19.54a34.6,34.6,0,0,0-.18,9A19.82,19.82,0,0,0,25,166.52a16.42,16.42,0,0,0,15.34,1.24c5.49-2.43,7.73-8.06,9.28-13.45,3.1-10.73,7.6-21.14,15.38-29.34,4.2-4.43,9.15-7.61,14.45-10.57a84.16,84.16,0,0,0,15.12-10.22c9.07-8,15.7-20,13.4-32.39-1.06-5.76-4.46-10.66-6.48-16.08a15.17,15.17,0,0,1-1.18-7.34A11.18,11.18,0,0,1,103,42.69c3.15-3.59,7.35-6,10.76-9.34a19.93,19.93,0,0,0,6.37-14.89A19.67,19.67,0,0,0,118,10.12C116.56,7.24,112.25,9.77,113.69,12.64Z"/><path class="cls-3" d="M197,50.54c-.38,0-.76,0-1.13.06-.1-3.57-.2-7-.29-10.2,4.67-3.22,9.4-7.53,9.88-15.55.22-2.48.21-7-2.31-9.74A7,7,0,0,0,198,13a6.16,6.16,0,0,0-4.49,2c-2.86,3.06-2.92,8.81-2.82,11.09s.17,6.48.32,11.91l-.59.38A43.4,43.4,0,0,0,185,42.3c-7.55,6.33-11.45,13.16-11.29,19.73.13,5.63,2.16,10.27,5.85,13.44,3.19,2.73,7.54,4.27,12.65,4.49.2,6.73.33,11.29.33,11.29s.07,5.44-3.11,5.51c-4.3.14-4.64-1.56-4.7-3.92a2.26,2.26,0,1,0-4.51.11c.13,5.45,3.21,8.32,8.9,8.32h.42a6.78,6.78,0,0,0,4.86-2.11c2.71-2.85,2.66-7.5,2.65-8,0,0-.14-4.6-.33-11.38a15.61,15.61,0,0,0,13.15-15C209.58,53.41,202.79,50.77,197,50.54ZM182.47,72.05c-2.73-2.35-4.17-5.75-4.28-10.13-.15-6.51,5.18-12.39,9.73-16.21a28.56,28.56,0,0,1,3.23-2.41c.07,2.66.15,5.47.23,8.34a12,12,0,0,0-7.43,10,2.25,2.25,0,0,0,4.49.33,7.7,7.7,0,0,1,3.09-5.34c.18,6.54.37,13.14.53,18.8A15.9,15.9,0,0,1,182.47,72.05ZM195.18,26c-.13-2.91.31-6.47,1.61-7.85a1.68,1.68,0,0,1,1.29-.56h.08a2.07,2.07,0,0,1,1.68.63c.94,1,1.37,3.42,1.11,6.33a13.73,13.73,0,0,1-5.53,10.4C195.31,30.89,195.23,27.72,195.18,26Zm7.53,45.56a11,11,0,0,1-6.15,3.67c-.17-6-.37-13.14-.57-20.09l1-.05c5.72.22,8.23,3.15,8.39,9.8A10.66,10.66,0,0,1,202.71,71.52Z"/><path class="cls-3" d="M235,37.81a2.26,2.26,0,0,0-4.51,0V63.55a9.64,9.64,0,0,0-3.27-.58c-4.43,0-8,2.83-8,6.31s3.6,6.31,8,6.31,7.91-2.75,8-6.16l0,0Z"/><path class="cls-3" d="M35.39,189.21q-.59,0-1.14.06c-.11-3.61-.2-7.1-.29-10.31,4.71-3.25,9.49-7.61,10-15.71.23-2.5.22-7.1-2.33-9.84a7,7,0,0,0-5.2-2.09,6.24,6.24,0,0,0-4.54,2c-2.89,3.09-2.95,8.9-2.85,11.21s.17,6.55.33,12l-.6.38a44.35,44.35,0,0,0-5.49,3.93c-7.62,6.4-11.57,13.3-11.41,19.94C12,206.5,14,211.19,17.76,214.4c3.22,2.76,7.61,4.31,12.78,4.53.2,6.8.33,11.41.33,11.41s.08,5.5-3.14,5.57c-4.35.15-4.69-1.57-4.75-4a2.26,2.26,0,0,0-2.33-2.22,2.29,2.29,0,0,0-2.23,2.33c.14,5.51,3.24,8.41,9,8.41h.42a6.86,6.86,0,0,0,4.91-2.13c2.74-2.88,2.69-7.59,2.67-8.12,0,0-.13-4.65-.33-11.5a15.77,15.77,0,0,0,13.29-15.16C48.11,192.11,41.25,189.44,35.39,189.21ZM20.72,210.94c-2.76-2.37-4.22-5.81-4.32-10.23-.16-6.59,5.23-12.52,9.83-16.39a28,28,0,0,1,3.25-2.42c.08,2.68.16,5.52.24,8.42a12.16,12.16,0,0,0-7.51,10.11,2.28,2.28,0,0,0,4.54.34,7.72,7.72,0,0,1,3.12-5.4c.18,6.61.37,13.28.54,19A16,16,0,0,1,20.72,210.94Zm12.84-46.56c-.13-2.95.32-6.54,1.62-7.94a1.7,1.7,0,0,1,1.31-.57h.08a2.08,2.08,0,0,1,1.69.64c1,1,1.4,3.45,1.13,6.4a13.85,13.85,0,0,1-5.59,10.5C33.69,169.35,33.61,166.16,33.56,164.38Zm7.61,46A11,11,0,0,1,35,214.11c-.18-6.1-.39-13.27-.59-20.29.32,0,.64,0,1-.06,5.78.23,8.31,3.19,8.47,9.91A10.72,10.72,0,0,1,41.17,210.4Z"/><path class="cls-3" d="M70,221.28a8.44,8.44,0,1,0-11.86,0,9.61,9.61,0,1,0,11.86,0Zm-9.82-6A3.89,3.89,0,1,1,64,219.17,3.89,3.89,0,0,1,60.15,215.29ZM64,233.83a5.05,5.05,0,1,1,5.06-5.05A5.06,5.06,0,0,1,64,233.83Z"/><path class="cls-3" d="M115.68,95.42a19.82,19.82,0,0,0-16.53,8.81c-2.05,2.56-3.54,8.37-2.38,13.28a16.18,16.18,0,0,0,4.67,8.08,14,14,0,0,0,9,3.28,6.5,6.5,0,1,0-6.33-7.91,7.9,7.9,0,0,1-.87-.35,5.39,5.39,0,0,1-2.83-4c-.83-3.52.19-8.21,1.76-10.19a16.15,16.15,0,0,1,13.42-7.26,17.49,17.49,0,0,1,16.85,18.28c0,13.34-8.26,25.48-29.45,43.29a1.89,1.89,0,0,0,2.43,2.89c22.16-18.63,30.8-31.58,30.8-46.22a21.25,21.25,0,0,0-20.57-22Z"/><path class="cls-3" d="M149.54,120.82a4.7,4.7,0,1,0,4.69,4.7A4.7,4.7,0,0,0,149.54,120.82Z"/><path class="cls-3" d="M149.54,116.13a4.7,4.7,0,1,0-4.7-4.7A4.69,4.69,0,0,0,149.54,116.13Z"/><path class="cls-3" d="M225.57,170.11H199.32a2.27,2.27,0,0,0-2.26,2.26v16.92a2.27,2.27,0,0,0,2.26,2.25h3a2.09,2.09,0,0,1,1.92-1.27h16.38a2.09,2.09,0,0,1,1.93,1.27h3a2.27,2.27,0,0,0,2.25-2.25V172.37A2.27,2.27,0,0,0,225.57,170.11Z"/><path class="cls-3" d="M236.27,174.83a2,2,0,0,1-1.64-.88L222,154.86a2,2,0,0,1,3.28-2.18l12.63,19.09a2,2,0,0,1-1.64,3.06Z"/><path class="cls-3" d="M220,228.48h-5.51V194.61a1,1,0,0,0,0-.17h-3.87a1,1,0,0,0,0,.17v33.87H204.9a2,2,0,0,0,0,3.94H220a2,2,0,0,0,0-3.94Z"/><path class="cls-3" d="M53.07,37.84H26.82a2.27,2.27,0,0,0-2.25,2.26V57a2.26,2.26,0,0,0,2.25,2.25h3A2.09,2.09,0,0,1,31.76,58H48.14a2.11,2.11,0,0,1,1.93,1.27h3A2.26,2.26,0,0,0,55.33,57V40.1A2.27,2.27,0,0,0,53.07,37.84Z"/><path class="cls-3" d="M63.78,42.56a2,2,0,0,1-1.64-.88L49.51,22.59a2,2,0,0,1,3.28-2.18L65.42,39.5a2,2,0,0,1-.55,2.73A2,2,0,0,1,63.78,42.56Z"/><path class="cls-3" d="M47.49,96.21H42V62.34a1,1,0,0,0,0-.17H38.07a1,1,0,0,0,0,.17V96.21H32.41a2,2,0,0,0,0,3.94H47.49a2,2,0,0,0,0-3.94Z"/><path class="cls-4" d="M204.7,44.66q-.58,0-1.14.06c-.1-3.58-.2-7-.28-10.21C208,31.3,212.68,27,213.15,19c.22-2.47.22-7-2.31-9.74a7,7,0,0,0-5.14-2.07,6.22,6.22,0,0,0-4.5,2c-2.86,3.06-2.92,8.81-2.82,11.09s.17,6.49.33,11.91l-.59.38a44.57,44.57,0,0,0-5.44,3.89c-7.54,6.33-11.45,13.16-11.29,19.73.14,5.63,2.16,10.27,5.86,13.44,3.19,2.73,7.53,4.27,12.65,4.49.19,6.73.32,11.29.32,11.29s.08,5.44-3.1,5.52c-4.31.14-4.65-1.57-4.71-3.93a2.23,2.23,0,0,0-2.31-2.19,2.25,2.25,0,0,0-2.2,2.3c.13,5.46,3.21,8.33,8.9,8.33h.42a6.7,6.7,0,0,0,4.86-2.11c2.71-2.84,2.66-7.5,2.65-8,0,0-.14-4.6-.33-11.38a15.61,15.61,0,0,0,13.15-15C217.29,47.52,210.49,44.88,204.7,44.66Zm-14.52,21.5C187.44,63.81,186,60.41,185.9,56c-.16-6.52,5.18-12.4,9.72-16.22a27.37,27.37,0,0,1,3.23-2.4c.08,2.65.15,5.46.24,8.33a12,12,0,0,0-7.44,10,2.25,2.25,0,0,0,4.49.33,7.7,7.7,0,0,1,3.09-5.34c.18,6.54.37,13.14.54,18.8A15.88,15.88,0,0,1,190.18,66.16Zm12.71-46.08c-.14-2.92.31-6.47,1.6-7.85a1.66,1.66,0,0,1,1.29-.57h.08a2.1,2.1,0,0,1,1.68.63c1,1,1.38,3.42,1.12,6.34A13.74,13.74,0,0,1,203.12,29C203,25,202.93,21.84,202.89,20.08Zm7.53,45.55a11,11,0,0,1-6.15,3.67c-.17-6-.38-13.14-.58-20.08.31,0,.63,0,1-.06,5.72.22,8.23,3.15,8.39,9.8A10.68,10.68,0,0,1,210.42,65.63Z"/><path class="cls-4" d="M242.67,31.92a2.26,2.26,0,0,0-4.51,0V57.66a9.55,9.55,0,0,0-3.27-.58c-4.42,0-8,2.83-8,6.31s3.61,6.31,8,6.31,7.91-2.75,8-6.16h0Z"/><path class="cls-5" d="M43.1,183.32l-1.15.07c-.1-3.62-.2-7.11-.29-10.31,4.72-3.25,9.5-7.62,10-15.72.22-2.5.21-7.1-2.34-9.84a7.07,7.07,0,0,0-5.2-2.09,6.27,6.27,0,0,0-4.53,2c-2.9,3.09-3,8.9-2.85,11.21s.16,6.55.32,12l-.6.38A45.42,45.42,0,0,0,31,175c-7.62,6.4-11.56,13.3-11.4,19.94.13,5.68,2.18,10.38,5.91,13.58,3.23,2.76,7.61,4.31,12.79,4.53.19,6.81.32,11.42.32,11.42s.08,5.49-3.13,5.57c-4.36.14-4.7-1.58-4.76-4a2.28,2.28,0,0,0-4.55.11c.13,5.51,3.24,8.41,9,8.41h.42a6.86,6.86,0,0,0,4.91-2.13c2.74-2.88,2.69-7.59,2.68-8.12,0,0-.14-4.64-.34-11.5a15.76,15.76,0,0,0,13.3-15.16C55.82,186.22,49,183.55,43.1,183.32ZM28.42,205.05c-2.76-2.37-4.21-5.81-4.32-10.23-.16-6.58,5.23-12.52,9.83-16.38A27.91,27.91,0,0,1,37.19,176c.07,2.68.15,5.52.24,8.42a12.17,12.17,0,0,0-7.52,10.11,2.28,2.28,0,0,0,4.54.34,7.8,7.8,0,0,1,3.12-5.4c.19,6.61.38,13.28.54,19A16,16,0,0,1,28.42,205.05Zm12.84-46.56c-.13-2.94.32-6.54,1.63-7.93a1.63,1.63,0,0,1,1.3-.57h.08a2.1,2.1,0,0,1,1.7.65c1,1,1.39,3.45,1.13,6.39a13.88,13.88,0,0,1-5.6,10.5C41.39,163.47,41.31,160.27,41.26,158.49Zm7.62,46a11.09,11.09,0,0,1-6.22,3.7c-.17-6.1-.38-13.27-.58-20.29.31,0,.64-.05,1-.05,5.78.22,8.31,3.18,8.47,9.9A10.8,10.8,0,0,1,48.88,204.52Z"/><path class="cls-5" d="M77.68,215.39a8.44,8.44,0,1,0-11.87,0,9.61,9.61,0,1,0,11.87,0Zm-9.82-6a3.89,3.89,0,1,1,3.88,3.89A3.89,3.89,0,0,1,67.86,209.4ZM71.74,228a5.06,5.06,0,1,1,5.06-5.06A5.06,5.06,0,0,1,71.74,228Z"/><path class="cls-6" d="M123.39,89.53a19.81,19.81,0,0,0-16.53,8.82c-2,2.56-3.55,8.36-2.39,13.27a16.32,16.32,0,0,0,4.67,8.08,14,14,0,0,0,9,3.28,6.5,6.5,0,1,0-6.34-7.91,9,9,0,0,1-.86-.34,5.41,5.41,0,0,1-2.84-4c-.83-3.53.2-8.22,1.77-10.2a16.15,16.15,0,0,1,13.41-7.26,17.5,17.5,0,0,1,16.85,18.29c0,13.33-8.25,25.47-29.45,43.28a1.89,1.89,0,1,0,2.43,2.89c22.17-18.62,30.8-31.57,30.8-46.21a21.26,21.26,0,0,0-20.56-22Z"/><path class="cls-6" d="M157.24,114.94a4.7,4.7,0,1,0,4.69,4.69A4.7,4.7,0,0,0,157.24,114.94Z"/><path class="cls-6" d="M157.24,110.24a4.7,4.7,0,1,0-4.7-4.69A4.69,4.69,0,0,0,157.24,110.24Z"/><path class="cls-5" d="M233.27,164.23H207a2.25,2.25,0,0,0-2.25,2.25V183.4a2.25,2.25,0,0,0,2.25,2.25h3a2.09,2.09,0,0,1,1.92-1.27h16.38a2.09,2.09,0,0,1,1.93,1.27h3a2.25,2.25,0,0,0,2.25-2.25V166.48A2.25,2.25,0,0,0,233.27,164.23Z"/><path class="cls-5" d="M244,168.94a2,2,0,0,1-1.64-.88L229.7,149A2,2,0,1,1,233,146.8l12.63,19.09a2,2,0,0,1-1.65,3.05Z"/><path class="cls-5" d="M227.68,222.6h-5.51V188.72c0-.06,0-.11,0-.17h-3.88c0,.06,0,.11,0,.17V222.6H212.6a2,2,0,0,0,0,3.94h15.08a2,2,0,1,0,0-3.94Z"/><path class="cls-4" d="M60.78,32H34.53a2.26,2.26,0,0,0-2.26,2.25V51.13a2.26,2.26,0,0,0,2.26,2.25h3a2.09,2.09,0,0,1,1.92-1.27H55.84a2.09,2.09,0,0,1,1.93,1.27h3A2.25,2.25,0,0,0,63,51.13V34.21A2.25,2.25,0,0,0,60.78,32Z"/><path class="cls-4" d="M71.48,36.67a2,2,0,0,1-1.64-.88L57.21,16.7a2,2,0,1,1,3.29-2.17L73.13,33.62a2,2,0,0,1-1.65,3.05Z"/><path class="cls-4" d="M55.19,90.33H49.68V56.45a.75.75,0,0,0,0-.16H45.77c0,.05,0,.1,0,.16V90.33H40.11a2,2,0,0,0,0,3.94H55.19a2,2,0,1,0,0-3.94Z"/><path class="cls-7" d="M157.24,37.34H95.4a2,2,0,0,1,0-4h61.84a2,2,0,0,1,0,4Z"/><path class="cls-7" d="M157.24,70.84H89.12a2,2,0,0,1,0-4h68.12a2,2,0,0,1,0,4Z"/><path class="cls-7" d="M178.19,177.83H89.12a2,2,0,0,1,0-4h89.07a2,2,0,0,1,0,4Z"/><path class="cls-7" d="M250,120.34H184.16a2,2,0,0,0,0,4H250Z"/><path class="cls-7" d="M69.1,120.34H0v4H69.1a2,2,0,0,0,0-4Z"/><path class="cls-7" d="M178.19,211.33H107.87a2,2,0,0,1,0-4h70.32a2,2,0,0,1,0,4Z"/></g></g></svg>