<svg xmlns="http://www.w3.org/2000/svg" viewBox="0 0 250 250"><defs><style>.cls-1{fill:#15253e;}.cls-2{fill:#009fe3;}.cls-3{fill:#233568;}.cls-4{fill:#ecefbe;}.cls-5{fill:#e57cb0;}.cls-6{fill:#f3bcbc;}</style></defs><g id="Ebene_2" data-name="Ebene 2"><g id="Images"><rect class="cls-1" width="250" height="250"/><path class="cls-2" d="M203,45.65c4.13-3.08,7.25,5.2,8.17,8.22,1.87,6.1,1.78,12.65,3.89,18.66a26.94,26.94,0,0,0,8.62,12c3.36,2.71,6.73,4.7,9.73,7.67A21.47,21.47,0,0,1,240.17,106a2.56,2.56,0,0,0,2.5,2.5,2.53,2.53,0,0,0,2.5-2.5,26.19,26.19,0,0,0-6.47-15.44c-3-3.53-6.85-6-10.53-8.8a23.15,23.15,0,0,1-8.54-11.35,70.51,70.51,0,0,1-2-10.41,49.92,49.92,0,0,0-2.33-9.48c-1.17-3.15-2.75-6.42-5.43-8.56s-6.46-2.84-9.41-.63a2.58,2.58,0,0,0-.9,3.42,2.52,2.52,0,0,0,3.42.89Z"/><path class="cls-3" d="M125.63,19.31c-.18-.29-.11-.16,0,0Z"/><path class="cls-3" d="M124.93,15.15a.72.72,0,0,0,0-.13l0-.19c0-.25.09-.51.14-.76.11-.57.24-1.13.37-1.69.31-1.23.67-2.45,1-3.67.86-2.89,1.74-5.77,2.43-8.71h-5.16c-1.13,4.37-2.76,8.64-3.56,13.08s-.25,8.52,3.56,11.24a17.44,17.44,0,0,0,7,2.59,71.76,71.76,0,0,0,12.42.91,18.48,18.48,0,0,1,5,.52c.31.08.61.18.91.29h0l.43.23.44.28.4.39.13.2a1.28,1.28,0,0,0,.11.2,4.34,4.34,0,0,0,.16.62c0,.11,0,.23,0,.34a8.3,8.3,0,0,1,0,1.22c0,.09-.06.42-.08.53-.07.33-.14.67-.22,1C149,39.7,145.59,45.56,147,52c.67,3.14,5.49,1.81,4.82-1.33,0-.1-.09-.51-.11-.58,0-.27,0-.54-.05-.82a15.34,15.34,0,0,1,.08-1.91.22.22,0,0,0,0-.08v-.05c0-.15,0-.31.08-.46.05-.31.11-.62.18-.92.15-.71.34-1.4.54-2.09.75-2.58,1.75-5.07,2.51-7.65.68-2.34,1.22-4.95.52-7.36-.79-2.72-3.11-4.39-5.73-5.17-3.9-1.16-8.15-.68-12.16-.9a31.43,31.43,0,0,1-9.07-1.49l-.54-.2-.55-.25c-.42-.22-.81-.48-1.21-.74.16.11.22.23-.14-.13l-.41-.4s-.09-.1-.13-.16a.74.74,0,0,1,.08.13c-.12-.2-.26-.37-.37-.57l-.12-.24c0,.05,0,0,0-.1l-.07-.14a.88.88,0,0,1,.07.13.53.53,0,0,1,0-.15c-.05-.18-.11-.35-.15-.52s0-.31-.06-.43A17.18,17.18,0,0,1,124.93,15.15Zm25.94,15.4h0C150.91,30.68,150.9,31,150.87,30.55Zm-1.66-1.91c.38.14.11.05,0,0Z"/><path class="cls-3" d="M125.22,18.63l0-.11h0Z"/><path class="cls-3" d="M250,111.12a23.16,23.16,0,0,1-6.2-1.66c-2.8-1-5.77-1.61-8.6-.36a27.6,27.6,0,0,1-3.51,1.69,7.81,7.81,0,0,1-2.87.24,14.42,14.42,0,0,0-6.49.6,32.76,32.76,0,0,0-4.06,2.25,16.52,16.52,0,0,1-3.87,1.59c-5.76,1.61-11.92,1.27-17.51,3.58-5.26,2.17-9.16,6.31-12.16,11s-5.13,10-7.46,15.17c-2,4.39-4.83,8.82-8.77,11.29a18.33,18.33,0,0,1-9.78,2.64,94.33,94.33,0,0,1-10.21-.72c-2.89-.25-6-.4-8.76.69-1.21.47-2.37,1-3.59,1.51a30.5,30.5,0,0,0-4.85,2.16,18,18,0,0,0-6.39,7,28.63,28.63,0,0,0-3.63,13.36A61,61,0,0,0,123,197.34c2,9.36,5.48,18.88,6.54,28.21a40.08,40.08,0,0,1,.27,6.29,19.85,19.85,0,0,1-1,5.57,33.53,33.53,0,0,1-2.58,5.27c-1.23,2.34-2.42,4.7-3.82,6.95-.08.12-.17.24-.25.37h5.81c1-1.86,2-3.76,3-5.62a32.65,32.65,0,0,0,2.72-5.88,27,27,0,0,0,1-6.11c.58-9.39-2.48-18.84-4.85-27.81a136.41,136.41,0,0,1-3.16-14.12,45,45,0,0,1-.51-6.1c0-1,0-2,.1-3.06a16.34,16.34,0,0,1,.43-2.77c1.1-4.89,3.83-10,8.51-12.17,1.29-.59,2.64-1,3.95-1.57.69-.29,1.38-.6,2.06-.92h0c.16-.05.31-.11.47-.15a8.24,8.24,0,0,1,1-.24l.33-.07h0c.74-.07,1.47-.1,2.21-.1,6.89.07,13.63,1.9,20.44-.12a22.11,22.11,0,0,0,10.55-7c3.71-4.4,5.72-9.7,8.09-14.87,2.21-4.82,4.63-9.78,8.38-13.6a17.39,17.39,0,0,1,6.09-4.14,36.34,36.34,0,0,1,8.19-1.81,55.58,55.58,0,0,0,9.14-1.63,23.67,23.67,0,0,0,4-1.64,41.49,41.49,0,0,1,3.7-2.16c1.76-.71,3.5-.3,5.59-.27a12.31,12.31,0,0,0,3.14-.36,24.68,24.68,0,0,0,4.38-2c2.06-1,4.59.27,6.59,1a21.82,21.82,0,0,0,6.32,1.37Z"/><path class="cls-3" d="M250,94.21l-.29-.29a2.25,2.25,0,0,0-3.47,2.85l-1.28.82-.41-.47a2.27,2.27,0,0,0-3.45,3c-1.23.79-2.24,1.43-2.76,1.7a88.94,88.94,0,0,1-10.09,3.56,137.75,137.75,0,0,1,10.06,17c.23.41.44.81.67,1.23,1.64.06,2.88.12,3.36.17a4.19,4.19,0,0,0,.5,0,3.67,3.67,0,0,0,2.43-.87l0,0,.4,0h.3a33.49,33.49,0,0,0,4-.37Z"/><path class="cls-3" d="M250,142.07a7.91,7.91,0,0,1-.84.06,9.14,9.14,0,0,1-7.44-4.82c-2.34-3.48-4.8-8-7.41-12.84a134.39,134.39,0,0,0-13.11-21.13,1.14,1.14,0,0,0-1.49-.29c-.28.17-6.92,4.28-6.92,17a12.45,12.45,0,0,0,2,8c1.61,2.64,3.81,6.24,3.81,29.58a1.41,1.41,0,0,0,1.28,1.49h3.45a1.41,1.41,0,0,0,1.28-1.49V141.53A13.14,13.14,0,0,1,226,135a1,1,0,0,1,.85-.44c1.45,0,4.62,7.28,6.51,11.62,3.53,8.11,5.84,13.07,8.66,13.07,1.64,0,4.56-.07,8-.29Z"/><path class="cls-3" d="M124.2,7.6c-1.16-.32-2.89.4-3.07,1.75-1.19,8.83-3.75,18.54-9.74,25.15-2.74,3-5.75,5.88-8,9.32-2.4,3.68-4.23,8-3.57,12.5,1.31,8.81,9.89,14.84,9.64,24.08S102.07,97.09,95,102.07a81.31,81.31,0,0,1-12.75,7.22c-4.93,2.29-10,4.29-14.71,7a60.69,60.69,0,0,0-20,19,69.61,69.61,0,0,0-6.23,11.76c-1.57,3.76-2.47,8.17-5.07,11.4-4.92,6.14-15.77,5.41-21.26.48a13.8,13.8,0,0,1-4.67-10.11c-.06-4.69,2.26-9.06,3-13.64A15.11,15.11,0,0,0,12.9,128a16.74,16.74,0,0,0-4.37-6.42C5.81,118.91,2.9,116.45,0,114v6.66c1.9,1.63,3.85,3.22,5.59,5a9.39,9.39,0,0,1,2.92,5.49C9,136,6.38,140.67,5.63,145.34a19,19,0,0,0,2.4,13c4.86,7.93,15.25,11.17,24,8.57a16.41,16.41,0,0,0,10.17-8.61c2-4,3.12-8.32,5-12.34A59.69,59.69,0,0,1,63.7,124.94c8.29-6.63,18.62-9.57,27.76-14.72,8.13-4.59,16.25-10.87,20.36-19.48a23.91,23.91,0,0,0,2.1-15.61c-1-4.52-3.78-8.43-6.09-12.36-1.89-3.21-4-7-2.84-10.79a26.26,26.26,0,0,1,6.16-9.88c2.95-3.2,6.12-6.24,8.23-10.1a57.5,57.5,0,0,0,5.12-13.73A68.13,68.13,0,0,0,126,10.68,2.59,2.59,0,0,0,124.2,7.6Z"/><path class="cls-2" d="M52.21,40.7a9.51,9.51,0,0,1,1.2-1.11A4.64,4.64,0,0,1,54.57,39a2.25,2.25,0,0,1,1.12-.22,3.26,3.26,0,0,1,1.39.24c2,.67,4,3,5.33,5,3.53,5.49,5.37,12,6.85,18.34a187.39,187.39,0,0,1,3.65,22.71c.83,7.64,1.5,15.34,3.11,22.86a68.38,68.38,0,0,0,15.62,31.38c5.85,6.61,12.81,12.45,17.92,19.49a68.83,68.83,0,0,1,13.09,37.54c.15,3.21,5.15,3.23,5,0a73.67,73.67,0,0,0-11.52-36.79,84.78,84.78,0,0,0-9.3-11.81c-3.1-3.31-6.45-6.38-9.56-9.68a64.68,64.68,0,0,1-9.13-11.92,64.24,64.24,0,0,1-6.9-17.79c-1.83-7.72-2.5-15.65-3.36-23.52A193.27,193.27,0,0,0,74.08,61c-1.56-6.63-3.57-13.56-7.25-19.36-3.1-4.9-8.55-9.86-14.7-7.08a11.25,11.25,0,0,0-3.45,2.6c-2.2,2.34,1.33,5.89,3.53,3.53Z"/><path class="cls-2" d="M59.32,208.83a183.24,183.24,0,0,1,55.81-1c9.3,1.28,18.43,3.5,27.69,5A123.6,123.6,0,0,0,157,214.41a42,42,0,0,0,13.55-1.16c4.69-1.37,8.52-4.35,12-7.69a51.24,51.24,0,0,0,9-11.39c1.6-2.8-2.72-5.33-4.32-2.53a45.33,45.33,0,0,1-7.39,9.6c-2.7,2.7-5.7,5.45-9.34,6.78-4.06,1.49-8.48,1.56-12.75,1.42a109.17,109.17,0,0,1-13.61-1.4c-9-1.45-17.94-3.59-27-4.88A189,189,0,0,0,58,204a2.51,2.51,0,0,0-1.74,3.07,2.55,2.55,0,0,0,3.07,1.75Z"/><path class="cls-3" d="M77.65,41.83C90,36,91.33,33.75,91.46,33.34A9.18,9.18,0,0,0,82.85,30c-1.47.31-3.32.68-5,1C77.14,33.61,76.32,38.63,77.65,41.83Z"/><path class="cls-3" d="M41.45,46.25c.78-.11,1.45-1,1.92-1.93a28.3,28.3,0,0,0-3.61,1.33A2.71,2.71,0,0,0,41.45,46.25Z"/><path class="cls-3" d="M78.22,45.41l-.71.34c-.14.06-.4.15-.77.27-5.42,1.67-34.39,8.24-47.47,11.19l1.33,4.46a1.05,1.05,0,0,0,1.25.72L78,50.91c.52-.2,12.83-4.91,15.21-10.77a5.07,5.07,0,0,0,.14-3.61C91.23,38.65,86.79,41.4,78.22,45.41Z"/><path class="cls-3" d="M24.17,41.58c.18-.37.35-.48.45-.45a4.33,4.33,0,0,1,2.66.84l.07,0,1.16,11.83C46,49.88,68.24,44.74,74.43,43.07c-1.5-3.71-.94-8.47-.32-11.42-.49.08-.9.14-1.1.15s-1.36-.11-2.92-.32a1.72,1.72,0,0,0-3.32-.91l-.15.43-1.55-.22v0a1.74,1.74,0,0,0-3.28-1.16l-.24.68-1.13-.17.06-.15a1.74,1.74,0,0,0-3.28-1.16l-.28.79-1.12-.17.1-.29A1.74,1.74,0,0,0,52.63,28l-.32.92-2.93-.45a1,1,0,0,0-1,.43c0,.07-4.88,6.91-10.14,8.53l-.14,0a65.9,65.9,0,0,1-8.63,1.89,1.67,1.67,0,0,0-.23-.23c-.3-.21-3-2-5.52-1.32A4.32,4.32,0,0,0,21,40.08a1.74,1.74,0,1,0,3.13,1.5Zm8.18,4.76c1-.57,2-1.07,2.91-1.51-.31-.42-.52-.73-.59-.85a1.3,1.3,0,1,1,2.19-1.41,12.37,12.37,0,0,0,.82,1.1c6.55-2.94,7.64-2,8.11-1.58a1.92,1.92,0,0,1,.41,2.26c-.92,2.4-2.17,3.86-3.72,4.34a4.87,4.87,0,0,1-.76.15,6.21,6.21,0,0,1-4.62-2c-1.19.56-2.39,1.17-3.52,1.78a1.32,1.32,0,0,1-1.77-.54A1.3,1.3,0,0,1,32.35,46.34Z"/><path class="cls-4" d="M79.81,36.56c12.37-5.86,13.68-8.08,13.81-8.49A9.22,9.22,0,0,0,85,24.7c-1.47.31-3.31.68-5,1C79.3,28.35,78.49,33.36,79.81,36.56Z"/><path class="cls-4" d="M43.62,41c.78-.11,1.44-1,1.92-1.93a28.67,28.67,0,0,0-3.62,1.34A2.8,2.8,0,0,0,43.62,41Z"/><path class="cls-4" d="M80.39,40.14l-.72.34c-.14.06-.4.15-.77.27C73.48,42.42,44.52,49,31.43,52l1.33,4.45a1.05,1.05,0,0,0,1.26.72L80.14,45.64c.53-.2,12.84-4.9,15.22-10.76a5,5,0,0,0,.13-3.61C93.4,33.39,89,36.13,80.39,40.14Z"/><path class="cls-4" d="M26.34,36.32c.18-.38.34-.49.44-.45a4.3,4.3,0,0,1,2.66.83s0,0,.07,0l1.17,11.82c17.44-3.93,39.73-9.08,45.91-10.75-1.49-3.71-.94-8.46-.32-11.42-.49.08-.89.14-1.1.15s-1.35-.11-2.92-.32a1.71,1.71,0,0,0-1.09-2,1.74,1.74,0,0,0-2.22,1.06l-.16.44-1.55-.22v0A1.74,1.74,0,1,0,64,24.32l-.24.68-1.12-.16,0-.16a1.74,1.74,0,1,0-3.28-1.16l-.28.79L58,24.14l.1-.29A1.72,1.72,0,0,0,57,21.64a1.74,1.74,0,0,0-2.22,1.06l-.32.91-2.92-.45a1.07,1.07,0,0,0-1,.43c0,.07-4.88,6.91-10.14,8.53l-.14,0a64.25,64.25,0,0,1-8.63,1.89,1.2,1.2,0,0,0-.22-.23c-.31-.21-3-2-5.52-1.31a4.36,4.36,0,0,0-2.68,2.31,1.74,1.74,0,0,0,3.14,1.5Zm8.17,4.75c1.06-.56,2-1.07,2.92-1.51-.32-.42-.52-.73-.6-.85a1.31,1.31,0,0,1,.39-1.8A1.32,1.32,0,0,1,39,37.3a11.85,11.85,0,0,0,.82,1.11c6.55-2.95,7.64-2,8.1-1.59a1.9,1.9,0,0,1,.41,2.26c-.92,2.4-2.17,3.86-3.72,4.34a3.3,3.3,0,0,1-.76.15,6.25,6.25,0,0,1-4.62-2c-1.18.57-2.39,1.18-3.52,1.78A1.31,1.31,0,0,1,34,42.83,1.29,1.29,0,0,1,34.51,41.07Z"/><path class="cls-3" d="M103.18,116.56c0-5.85,6.43-12.15,6.7-12.42a1.21,1.21,0,0,1,.92-.33,1.16,1.16,0,0,1,.85.45c2.32,2.9,4.13,7.12,6.23,12,.28.66.59,1.36.89,2,8.89-8.18,12-13.74,12.94-16-6.25-1.38-20.35-.6-20.5-.59s-.07,0-.11,0a1,1,0,0,1-.54-.14l-.14-.09-.13-.13s-.11-.07-.14-.12,0-.13,0-.19-.11-.1-.13-.18,0-.08,0-.13-.06-.06-.06-.11,0-.09,0-.15a1.18,1.18,0,0,1,.08-.31,1.28,1.28,0,0,1,.11-.27,1.45,1.45,0,0,1,.21-.22s0-.08.07-.11c11.16-7.59,17.59-10,17.86-10.15a1.18,1.18,0,0,1,1.54.7,1.21,1.21,0,0,1-.7,1.55,76.63,76.63,0,0,0-10.8,5.68c8.21-2.28,10.63-3.1,10.66-3.11a1.2,1.2,0,0,1,.78,2.27c-.11,0-2.15.73-8.92,2.63,4.73,0,10,.31,12.79,1.26.14,0,.2.18.31.27s.26.16.33.29a1.17,1.17,0,0,1,.08.46c0,.14.1.25.07.39s-1.77,7.13-14.68,18.82a97.65,97.65,0,0,0,7.89,14.74c6.19,9.32,10.62,11.42,15.77,11.8a1.2,1.2,0,0,1,1.11,1.1c.29,3.69-.89,7.47-2.14,11.47-.55,1.79-1.13,3.64-1.61,5.58a6.64,6.64,0,0,1-3.53,4.56,9,9,0,0,1-2.93.88,17.16,17.16,0,0,1-8-1.07c-2.66-1.09-3.88-9.1-5.33-24.49-.18-1.87-.32-3.41-.45-4.41-.66-5.42-11.53-15.71-15.1-19.1A6.8,6.8,0,0,1,103.18,116.56Z"/><path class="cls-5" d="M106.29,111.5c0-5.85,6.43-12.16,6.71-12.42a1.18,1.18,0,0,1,.91-.34,1.24,1.24,0,0,1,.86.45c2.31,2.9,4.12,7.13,6.22,12,.29.66.6,1.36.89,2,8.89-8.19,12-13.75,12.94-16-6.25-1.38-20.35-.6-20.5-.59s-.07,0-.11,0a1.19,1.19,0,0,1-.53-.14l-.15-.1-.13-.13s-.1-.06-.14-.12,0-.12,0-.18-.11-.1-.13-.18,0-.08,0-.13,0-.07-.06-.11,0-.1,0-.15a1,1,0,0,1,.4-.8s0-.08.08-.11c11.15-7.59,17.58-10.05,17.85-10.15a1.17,1.17,0,0,1,1.54.7,1.21,1.21,0,0,1-.69,1.55,76.32,76.32,0,0,0-10.81,5.68c8.21-2.28,10.63-3.1,10.66-3.11a1.2,1.2,0,1,1,.78,2.26c-.11,0-2.15.74-8.91,2.63,4.72,0,10,.31,12.78,1.27.14,0,.2.18.31.27s.26.16.34.29a1,1,0,0,1,.07.46c0,.13.1.25.07.38-.06.29-1.77,7.14-14.68,18.83a97.1,97.1,0,0,0,7.89,14.73c6.19,9.32,10.62,11.43,15.77,11.8a1.21,1.21,0,0,1,1.11,1.1c.29,3.7-.89,7.48-2.13,11.48-.56,1.79-1.14,3.64-1.61,5.58a6.67,6.67,0,0,1-3.53,4.56,9.35,9.35,0,0,1-2.94.88,17.09,17.09,0,0,1-8-1.07c-2.67-1.09-3.89-9.1-5.34-24.49-.18-1.87-.32-3.42-.44-4.41-.67-5.42-11.54-15.72-15.11-19.1A6.87,6.87,0,0,1,106.29,111.5Z"/><path class="cls-3" d="M168.41,58.84c7.14-1,18.25-2.78,20.44-3.52C193,53.67,214.69,42,217.5,39A8.45,8.45,0,0,0,215,35.38a7.16,7.16,0,0,0-6.08-2c-4.82,1-9,1.81-12.16,2.3a1.73,1.73,0,0,1-.56,1.08c-.45.4-11,9.7-19.3,10.45a1.71,1.71,0,0,0-1.35.77c-.64,1-.58,2.84.16,5a1.82,1.82,0,0,1-3.44,1.19c-1.13-3.26-1.06-6.14.22-8.12a5.29,5.29,0,0,1,4.08-2.42c4.85-.43,11-4.65,14.5-7.34h-.42c-.72-.11-2.37-.51-4.31-1A1.8,1.8,0,0,0,183,33.87l-.26.54-.89-.21a1.8,1.8,0,0,0-.89-2.26,1.82,1.82,0,0,0-2.43.84l-.29.61-1-.19a1.79,1.79,0,0,0-1-1.8,1.81,1.81,0,0,0-2.43.85l-.19.39c-1.93-.16-2.8.13-3.18.83-.12.24-.28.6-.47,1.07-1,2.5-3.5,8.35-10.2,10.05A37.57,37.57,0,0,1,146,45.76a1.08,1.08,0,0,0-.83.2,1.11,1.11,0,0,0-.43.74c-.05.44-1,9.43,4,16.21C153,62.59,161.29,60.8,168.41,58.84Z"/><path class="cls-3" d="M191.35,58.14a3.83,3.83,0,0,0,1.53,1.18,3.14,3.14,0,0,0,2.28,0,3.47,3.47,0,0,0,.41-.16c1.29-.61,7.45-3.91,13.17-7.1,12.06-6.72,12-7,11.59-8.06-.13-.39-.52-1.31-.86-2.1C213.82,47,196,55.9,191.35,58.14Z"/><path class="cls-3" d="M169.13,62.4a145.48,145.48,0,0,1-17.46,3.83A11.88,11.88,0,0,1,153,69.67a1.64,1.64,0,0,0,.62,1c1.31.84,7.42-.6,18.14-4.27h0a1.1,1.1,0,0,0,.71-1.24L171.89,62Z"/><path class="cls-4" d="M170.53,53.09c7.15-1,18.25-2.77,20.45-3.52,4.11-1.65,25.84-13.31,28.65-16.29a8.35,8.35,0,0,0-2.54-3.64,7.17,7.17,0,0,0-6.08-2c-4.81,1-9,1.81-12.16,2.31a1.73,1.73,0,0,1-.56,1.07c-.44.4-11,9.7-19.29,10.45a1.72,1.72,0,0,0-1.36.77c-.63,1-.58,2.84.16,5a1.82,1.82,0,0,1-3.43,1.19c-1.14-3.25-1.06-6.14.21-8.12a5.35,5.35,0,0,1,4.09-2.42c4.85-.43,11-4.65,14.5-7.34h-.43c-.72-.11-2.37-.51-4.3-1a1.8,1.8,0,0,0-3.32-1.41l-.27.54-.88-.21A1.81,1.81,0,0,0,180.65,27l-.3.61-1-.19a1.81,1.81,0,0,0-3.44-.95l-.19.39c-1.93-.16-2.8.13-3.17.84-.13.23-.28.59-.48,1.06-1,2.5-3.5,8.35-10.2,10.06A37.63,37.63,0,0,1,148.13,40a1.09,1.09,0,0,0-1.26,1c-.05.44-1,9.42,4,16.2C155.09,56.84,163.41,55.05,170.53,53.09Z"/><path class="cls-4" d="M193.47,52.39A4,4,0,0,0,195,53.58a3.28,3.28,0,0,0,2.29,0,3.42,3.42,0,0,0,.4-.17c1.29-.61,7.45-3.91,13.18-7.1,12.06-6.71,12-7,11.59-8.06-.14-.38-.52-1.31-.86-2.1C216,41.28,198.1,50.15,193.47,52.39Z"/><path class="cls-4" d="M171.25,56.65a146.7,146.7,0,0,1-17.46,3.84,11.75,11.75,0,0,1,1.36,3.43,1.58,1.58,0,0,0,.61,1c1.31.84,7.42-.6,18.14-4.27h0a1.08,1.08,0,0,0,.71-1.24l-.6-3.12Z"/><path class="cls-3" d="M60.18,223c-1.14-1.78-2.35-3.77-3.64-5.94-.32-.56-.71-1.08-1-1.64-.34-3.74-3-7.92-7.52-11.72-3.52-2.93-8.55-5.71-12.36-6.36A26.12,26.12,0,0,1,40.91,180a2.15,2.15,0,0,1,1.32-.81c1.07,0,1.57,0,3,1.61a26,26,0,0,0,7.35,4.9,17.83,17.83,0,0,0,11.67-2.88,8.55,8.55,0,0,1,1.95-.94c1.93-.55,2.65.85,5.39,8.08l.52-.07a1.81,1.81,0,0,1,2,1.52,1.76,1.76,0,0,1-1.34,1.94c.19.68.36,1.34.5,2l.36,0a1.83,1.83,0,0,1,2,1.52,1.77,1.77,0,0,1-1.52,2l-.18,0c.11.62.23,1.24.36,1.85h.08a1.82,1.82,0,0,1,2,1.52,1.75,1.75,0,0,1-1.17,1.89,19.39,19.39,0,0,0,1.52,3.27c.82.4,9.72,5.14,11,5.94,5.06,3.65,7.66,6.62,6.84,11.68C82.1,226.53,64.76,227.08,60.18,223Z"/><path class="cls-3" d="M77.23,229.75a142.14,142.14,0,0,0,16.22-1,6.24,6.24,0,0,1-4.9,3.39,131.15,131.15,0,0,1-13.43.87,24.41,24.41,0,0,1-6.65-.67c-1.32-.39-2.81-1.77-4.48-3.87A56,56,0,0,0,77.23,229.75Z"/><path class="cls-3" d="M36,201a28.7,28.7,0,0,1,9.69,5.42c3,2.53,5.09,5.24,5.9,7.71v0c-1,1.57-1.85,2.41-3.51,1.74l-9.77-6.73A4.56,4.56,0,0,1,36,204.26,12,12,0,0,1,36,201Z"/><path class="cls-6" d="M64.39,217.87c-1.14-1.78-2.34-3.77-3.63-5.93-.33-.57-.72-1.09-1.06-1.65-.34-3.74-3-7.92-7.52-11.71-3.52-2.93-8.55-5.72-12.36-6.37a26.09,26.09,0,0,1,5.31-17.34,2.18,2.18,0,0,1,1.31-.81c1.07,0,1.57,0,3,1.62a26.33,26.33,0,0,0,7.34,4.9,17.88,17.88,0,0,0,11.68-2.89,8.48,8.48,0,0,1,1.94-.94c1.94-.55,2.66.85,5.4,8.08l.51-.07a1.81,1.81,0,0,1,2,1.52A1.76,1.76,0,0,1,77,188.23c.19.67.36,1.33.5,2l.37-.06a1.84,1.84,0,0,1,2,1.53,1.79,1.79,0,0,1-1.52,2l-.18,0c.11.63.23,1.24.35,1.85h.09a1.82,1.82,0,0,1,2,1.53A1.75,1.75,0,0,1,79.46,199,17.64,17.64,0,0,0,81,202.23c.81.41,9.72,5.14,11,6,5.06,3.64,7.66,6.62,6.84,11.67C86.32,221.42,69,222,64.39,217.87Z"/><path class="cls-6" d="M81.45,224.64a144.44,144.44,0,0,0,16.21-1A6.21,6.21,0,0,1,92.77,227a131.16,131.16,0,0,1-13.44.87,24.06,24.06,0,0,1-6.65-.67c-1.32-.38-2.81-1.77-4.48-3.86A56.55,56.55,0,0,0,81.45,224.64Z"/><path class="cls-6" d="M40.22,195.91a28.53,28.53,0,0,1,9.68,5.41c3,2.53,5.09,5.24,5.91,7.72,0,0,0,0,0,0-1,1.57-1.85,2.41-3.51,1.75l-9.76-6.74a4.54,4.54,0,0,1-2.35-4.91A11.73,11.73,0,0,1,40.22,195.91Z"/><path class="cls-5" d="M250,91.42l-.07.06a2.24,2.24,0,0,0-.25,2.84l-1.28.83-.41-.47a2.27,2.27,0,0,0-3.45,3c-1.23.79-2.24,1.43-2.76,1.7a87.45,87.45,0,0,1-10.09,3.55,138.61,138.61,0,0,1,10.06,17l.67,1.22c1.64.07,2.88.13,3.36.18l.5,0a3.65,3.65,0,0,0,2.43-.87s0,0,0,0l.4,0h.3l.56,0Z"/><path class="cls-5" d="M250,139.1a9.06,9.06,0,0,1-4.83-4.24c-2.35-3.47-4.81-8-7.42-12.84a134.76,134.76,0,0,0-13.11-21.12,1.14,1.14,0,0,0-.91-.45,1.16,1.16,0,0,0-.58.16c-.28.16-6.92,4.28-6.92,17a12.47,12.47,0,0,0,2,8c1.61,2.63,3.82,6.24,3.82,29.57a1.38,1.38,0,0,0,1.27,1.49h3.45a1.4,1.4,0,0,0,1.28-1.49V139.09a13.25,13.25,0,0,1,1.39-6.54,1,1,0,0,1,.85-.44c1.45,0,4.62,7.28,6.51,11.62,3.54,8.1,5.84,13.07,8.66,13.07,1.06,0,2.65,0,4.58-.11Z"/><path class="cls-3" d="M37,95.56a1.33,1.33,0,0,0-1.07.09,40.11,40.11,0,0,1-14.31,3.66c-7.38.71-11.85-4.4-13.76-6.55-.36-.4-.65-.72-.87-.92-1-.91-2.6-.59-7,2v28.53c5.07-.74,11.94-2.09,15.33-2.77l.46,3.18a1.36,1.36,0,0,0,1.35,1.17h0c18.46-.1,19.67-1.65,20.08-2.15a2,2,0,0,0,.31-1.38,7.31,7.31,0,0,1-.06-1.81,1.54,1.54,0,0,0,.17-.19c6-9.83.41-21.64.17-22.14A1.38,1.38,0,0,0,37,95.56Z"/><path class="cls-3" d="M3,140.94a1.12,1.12,0,0,0-.44-.09,1.15,1.15,0,0,0-.64.2,7.22,7.22,0,0,1-1.92.82v17c6.4-.45,14.33-1.37,19.56-3.16a1.38,1.38,0,0,0,.85-.95C20.91,153.09,20.21,148.35,3,140.94Z"/><path class="cls-5" d="M40.45,93.11a1.38,1.38,0,0,0-1.07.1,40.11,40.11,0,0,1-14.31,3.66c-7.38.71-11.85-4.4-13.76-6.55-.36-.4-.65-.72-.86-.92-1.06-1-2.83-.54-7.93,2.51l-.44-.43A2.26,2.26,0,0,0,0,90.86v29.47c4.75-.44,14.52-2.35,18.77-3.2l.46,3.18a1.37,1.37,0,0,0,1.35,1.17h0c18.46-.1,19.68-1.65,20.08-2.16A1.9,1.9,0,0,0,41,118a7.31,7.31,0,0,1-.06-1.81c.06-.07.12-.12.17-.19,6-9.84.41-21.64.17-22.14A1.43,1.43,0,0,0,40.45,93.11Z"/><path class="cls-5" d="M6.44,138.5a1.12,1.12,0,0,0-.44-.09,1.15,1.15,0,0,0-.64.2,7.51,7.51,0,0,1-3.83,1.08A9.76,9.76,0,0,1,0,139.44v17.2c6.75-.33,16.78-1.23,23-3.36a1.38,1.38,0,0,0,.85-.95C24.35,150.64,23.65,145.9,6.44,138.5Z"/><path class="cls-3" d="M187.31,218.88a55.71,55.71,0,0,0-7.77-8.14,7.75,7.75,0,0,0,.44,1.07,2.54,2.54,0,0,0,.12.51,116.72,116.72,0,0,1,3,19.06c0,1.65-.09,3.38-.11,5.19a1.09,1.09,0,0,0,2.18.14,35.79,35.79,0,0,0,.12-5.35C185.52,225.92,186,221.42,187.31,218.88Z"/><path class="cls-3" d="M220,226.83l-.1,0a4.49,4.49,0,0,1-3-3.06c-.22-.87-.37-1.76-.52-2.64H217a1.83,1.83,0,0,0,1.82-1.79,1.81,1.81,0,0,0-1.79-1.85l-1,0c0-.32-.07-.64-.09-.95l0-1.13.92,0h0a1.82,1.82,0,0,0,0-3.64l-1.06,0c0-.68,0-1.37,0-2.07h1a1.82,1.82,0,0,0,0-3.64l-1.06,0c0-.62,0-1.22,0-1.87,0,0,0,0,0-.06a17.84,17.84,0,0,0,4.27.52c.37,0,.63,0,.72,0a1.82,1.82,0,0,0,1.72-1.91,1.77,1.77,0,0,0-1.91-1.72,14.09,14.09,0,0,1-4.69-.63,11.36,11.36,0,0,0,6.36-2.62,3,3,0,0,0,.77-3.49,4.41,4.41,0,0,0-3-2.44c-1.94-.42-4.09.41-5.7,1.28-1.82-.62-7.49-2.53-13.44-4.5-1.1-.37-2.18-.76-3.3-1.09-6.09-2-11.75-3.82-13-4.07a1.66,1.66,0,0,0-1.36.33c-2.43,1.86-3.73,15.35-4.22,21.85,3.16,2.5,10.76,8.95,13.7,15.19a62.47,62.47,0,0,1,5.87,11.77c1.7,4.21,5.6,5.08,8.72,5.77l1.1.25a43.38,43.38,0,0,0,7.94.85l.27,0c1,.07,2,.1,2.94.1a32.09,32.09,0,0,0,8.35-1c4.41-1.21,5.44-3.09,5.53-4.45C233.68,230.3,227.22,227.72,220,226.83Zm-1.15-31.56a1.87,1.87,0,0,1,.35,0l.21.07a9.12,9.12,0,0,1-4.22,1.35A8.4,8.4,0,0,1,218.88,195.27Z"/><path class="cls-6" d="M191.72,212.4a52.11,52.11,0,0,0-7.38-7.72,9,9,0,0,0,.42,1,3.52,3.52,0,0,0,.11.49,108.66,108.66,0,0,1,2.89,18.09c0,1.56-.08,3.21-.1,4.93a1,1,0,0,0,1,1.05,1,1,0,0,0,1.09-.92,32.42,32.42,0,0,0,.12-5.09C190,219.08,190.48,214.81,191.72,212.4Z"/><path class="cls-6" d="M222.77,219.94l-.09,0a4.26,4.26,0,0,1-2.82-2.91c-.2-.82-.34-1.66-.49-2.5h.52a1.73,1.73,0,0,0,0-3.46l-1,0c0-.3-.08-.6-.09-.9l0-1.07.87,0h0a1.73,1.73,0,0,0,0-3.46l-1,0c0-.64,0-1.3,0-2h1a1.73,1.73,0,0,0,0-3.45l-1,0c0-.59,0-1.17,0-1.78,0,0,0,0,0-.06a16.81,16.81,0,0,0,4.05.49h.69a1.73,1.73,0,0,0,1.63-1.82,1.69,1.69,0,0,0-1.81-1.63,13.29,13.29,0,0,1-4.45-.6,10.8,10.8,0,0,0,6-2.48,2.82,2.82,0,0,0,.72-3.32,4.21,4.21,0,0,0-2.88-2.32,8.37,8.37,0,0,0-5.41,1.22c-1.73-.58-7.12-2.4-12.76-4.27-1-.35-2.07-.72-3.13-1-5.79-1.91-11.16-3.63-12.34-3.87a1.57,1.57,0,0,0-1.29.32c-2.31,1.77-3.54,14.57-4,20.74,3,2.37,10.21,8.49,13,14.41a60.11,60.11,0,0,1,5.57,11.18c1.61,4,5.31,4.82,8.28,5.48l1,.24a41.57,41.57,0,0,0,7.54.8l.25,0q1.41.09,2.79.09a30.83,30.83,0,0,0,7.93-.93c4.18-1.16,5.17-2.94,5.25-4.23C235.73,223.24,229.6,220.79,222.77,219.94ZM221.69,190a1.66,1.66,0,0,1,.33,0,.6.6,0,0,1,.2.07,8.9,8.9,0,0,1-4,1.28A7.91,7.91,0,0,1,221.69,190Z"/></g></g></svg>