<svg xmlns="http://www.w3.org/2000/svg" viewBox="0 0 250.04 250.26"><defs><style>.cls-1{fill:#c4e7fb;}.cls-2{fill:none;}.cls-3{fill:#243885;}.cls-4{fill:#2072b9;}.cls-5{fill:#3ba9e0;}.cls-6{fill:#5881c1;}</style></defs><g id="Ebene_2" data-name="Ebene 2"><g id="Images"><rect class="cls-1" x="0.01" y="0.23" width="250" height="250"/><path class="cls-2" d="M45.59,110.88l1.88-1c.08-.13.16-.26.25-.39l-6.38,3.9Z"/><path class="cls-2" d="M2.62,148.67.06,150.16v6.91c1.48-1.31,3-2.58,4.58-3.79.23-.73.47-1.45.72-2.18l-.25,0A2.51,2.51,0,0,1,2.62,148.67Z"/><path class="cls-2" d="M59.68,116.6l-1.39.43-4,4.7A65.88,65.88,0,0,0,59.68,116.6Z"/><path class="cls-2" d="M122.41,63.78l0,0,.2-.14Z"/><path class="cls-2" d="M79.83,201.06c3-5,6-10.1,9-15.15l-2.43,1.88-1.44,2.4c-2.8,4.73-5.55,9.49-8.4,14.19l2.35-1.78Z"/><path class="cls-2" d="M160.89,181.07l-.72.11-4.7,3.61Z"/><path class="cls-2" d="M158.93,202.07a70.37,70.37,0,0,0-9.11-1.52,46.31,46.31,0,0,0-16.93,1.55l-18.83,14.43a131,131,0,0,1,23.11-5.38c3.25-.51,6.57-1,9.92-1.47l12.84-7.44C159.6,202.19,159.26,202.14,158.93,202.07Z"/><path class="cls-3" d="M142.14,247.81c5.35-1.81,10.74-3.51,16.14-5.15l52.77-41a147.52,147.52,0,0,1,12.43-14.44c3.82-3.79,8.42-8,14-8.62,3.2-.36,3.16,4.64,0,5,.63-.08-.71.17-1,.25s-.47.15-.7.24l-.12,0-.22.11a20.66,20.66,0,0,0-2.94,1.74c-5.51,3.85-10.27,9.71-14.58,15-5.82,7.18-11.24,14.67-16.67,22.15L195,231.67l.19-.06a60.43,60.43,0,0,1,9.7-6.1l.45-.22,37.46-40.4,7.2-7.76V164Z"/><path class="cls-4" d="M204.45,231.47a44.05,44.05,0,0,0-6.94,4.75c11.63-3.57,23.35-8,32.07-16.28-1.88.8-3.76,1.57-5.62,2.36A174.24,174.24,0,0,0,204.45,231.47Z"/><path class="cls-4" d="M195.2,231.61l-.19.06-.15.21Z"/><path class="cls-4" d="M142.14,247.81l-2.31.77c-1.58.55-4.05,1.11-5.63,1.68h14.31l9.77-7.6C152.88,244.3,147.49,246,142.14,247.81Z"/><path class="cls-3" d="M105.44,20.13a229,229,0,0,0-19.71,19.2c-6.41,6.87-12.52,14-18.64,21.11,2.77-1.27,5.54-2.55,8.32-3.81L145.86,1.91c-5.1,1.43-14,3.38-20.31,6.14A88.42,88.42,0,0,0,117,12.4,118.55,118.55,0,0,0,105.44,20.13Z"/><path class="cls-3" d="M61.77,68.45,59,69.71c-2.06,2.34-4.13,4.67-6.24,7A69,69,0,0,1,36.51,89.55C33.36,91.4,30.18,93.17,27,95c-1,1.29-2.05,2.6-3,3.91-2.13,2.89-4.13,5.86-6.07,8.88L102.84,49.4Q92,54.55,81.08,59.55C74.64,62.52,68.19,65.45,61.77,68.45Z"/><path class="cls-3" d="M15.94,101.75c-2.1,1.43-4.14,2.94-6.12,4.58A95.1,95.1,0,0,0,1.68,114l12.67-9.86Q15.13,102.94,15.94,101.75Z"/><path class="cls-4" d="M85.73,39.33a229,229,0,0,1,19.71-19.2c1-.88,13.36-9.91,22.35-12.8,7.4-2.38,14.69-4.39,18.36-5.41l2.6-1.7s-12.52-.51-14.23,0c-5,1.54-9.52,3.14-14.25,5.11a96,96,0,0,0-15.58,9c-6.15,4.41-11.08,9.79-13.48,12.17-12.55,12.41-23.88,26-35.43,39.27q5.63-2.71,11.31-5.33C73.21,53.33,79.32,46.2,85.73,39.33Z"/><path class="cls-4" d="M1.68,114a95.1,95.1,0,0,1,8.14-7.65c2-1.64,4-3.15,6.12-4.58,2.56-3.76,5.28-7.44,8.19-11C22,92,20,93.12,17.94,94.37A102.26,102.26,0,0,0,.06,108.46v6.78Z"/><path class="cls-4" d="M52.79,76.67c2.11-2.29,4.18-4.62,6.24-7l-1.11.52L28.66,93c-.55.65-1.1,1.31-1.64,2,3.16-1.79,6.34-3.56,9.49-5.41A69,69,0,0,0,52.79,76.67Z"/><path class="cls-3" d="M0,164.07l0,13.21c.11-.8.26-2.18.38-3C1,170,1.67,165.72,2.56,161.47l-.37.33C1.46,162.48.69,163.36,0,164.07Z"/><path class="cls-3" d="M4.68,179.19q-.42,2.94-.88,5.85l46.75-54.2c-3,2.13-6.17,4.12-9.36,6Z"/><path class="cls-4" d="M54.24,121.73,41.19,136.87c3.19-1.91,6.33-3.9,9.36-6A81.52,81.52,0,0,0,64,119.25a62.51,62.51,0,0,0,4.13-5,1.82,1.82,0,0,0,.36-1,83.58,83.58,0,0,1-8.81,3.43A65.88,65.88,0,0,1,54.24,121.73Z"/><path class="cls-3" d="M49.92,34.84,57,29.43c-1.17.17-2.34.36-3.5.57C52.35,31.63,51.15,33.25,49.92,34.84Z"/><path class="cls-3" d="M5.55,57,.06,61.2V72.67L21.86,56.1A45.34,45.34,0,0,1,5.55,57Z"/><path class="cls-3" d="M33.84,35.06c-7.24,2.34-14.37,5-21.49,7.72L.06,47.4v4a103.94,103.94,0,0,0,11.38,1Z"/><path class="cls-4" d="M57,29.43c1.31-.18,2.62-.35,3.94-.49a2.57,2.57,0,0,0,2.5-2.5,2.51,2.51,0,0,0-2.5-2.5c-1.15.12-2.29.26-3.43.42-1.33,1.88-2.66,3.77-4,5.64C54.69,29.79,55.86,29.6,57,29.43Z"/><path class="cls-4" d="M12.35,42.78c7.12-2.67,14.25-5.38,21.49-7.72l10.64-8.24A221.83,221.83,0,0,0,21.37,34.1C14.25,36.7,7.15,39.37.06,42.05V47.4Z"/><path class="cls-5" d="M95.52,128.75a51.49,51.49,0,0,0-16.26,13.44c2.47-.9,4.94-1.78,7.39-2.66a143,143,0,0,0,15.18-6.25l10.44-11.68A124.17,124.17,0,0,0,95.52,128.75Z"/><path class="cls-5" d="M130.79,109.08c7.73-3.63,14.87-8.34,19.81-15.53,4.13-6,6.82-12.85,10.3-19.24L135.72,99.75c-1,1.64-1.92,3.32-2.79,5C132.2,106.21,131.5,107.65,130.79,109.08Z"/><path class="cls-6" d="M58,184.19c.72-1.36,1.4-2.76,2.07-4.16L31.6,211.82C43.53,206.68,52,195.51,58,184.19Z"/><path class="cls-6" d="M130.79,109.08c-1.16,2.36-2.33,4.72-3.6,7,8.65-3.48,17-7.77,23.41-14.62,5.85-6.22,9.17-14,13-21.56a75.4,75.4,0,0,1,14.91-20.43c1.54-1.48,3.14-2.88,4.8-4.23a2.51,2.51,0,0,0,0-3.53,2.55,2.55,0,0,0-3.54,0A77.06,77.06,0,0,0,162.8,71c-.67,1.09-1.29,2.19-1.9,3.31-3.48,6.39-6.17,13.22-10.3,19.24C145.66,100.74,138.52,105.45,130.79,109.08Z"/><path class="cls-6" d="M95.52,128.75a124.17,124.17,0,0,1,16.75-7.15l7-7.83-2,.75c-13.14,4.73-27,9.25-37.16,19.27a61.74,61.74,0,0,0-9.13,11.63c2.74-1.15,5.53-2.21,8.32-3.23A51.49,51.49,0,0,1,95.52,128.75Z"/><path class="cls-6" d="M5.36,56.93l-5.3-.54V61.2L5.55,57Z"/><path class="cls-6" d="M11.44,52.39h1.64c12-.35,21.74-7.6,29.37-16.36,4.91-5.62,9-11.9,13.31-17.94L44.48,26.82,33.84,35.06Z"/><path class="cls-5" d="M13.08,52.39H11.44a103.94,103.94,0,0,1-11.38-1v5l5.3.54.19,0a45.34,45.34,0,0,0,16.31-.85c.82-.21,1.64-.46,2.46-.74A46.37,46.37,0,0,0,39.74,46,83.38,83.38,0,0,0,49.92,34.79q1.84-2.38,3.61-4.85c1.35-1.87,2.68-3.75,4-5.64S60,20.78,61.29,19c1.41-1.94,2.56-3.46,4.13-5.28,2.09-2.42-1.43-6-3.54-3.53s-4.17,5.17-6.12,7.86c-4.35,6-8.4,12.32-13.31,17.94C34.82,44.79,25.12,52,13.08,52.39Z"/><path class="cls-6" d="M54.24,121.73l4-4.7c-.78.25-1.56.49-2.35.72l-12.63,7.32c-.35.49-.7,1-1.07,1.46C34.3,137.11,24,147,11,150.19c-.34.83-.67,1.67-1,2.52C7.13,161.22,6,170.23,4.68,179.19l36.51-42.32Z"/><path class="cls-6" d="M54.36,113A86.07,86.07,0,0,0,65,109.22l7.37-8.55c-3,2.08-6,4-9.12,5.89Z"/><path class="cls-5" d="M45.59,110.88l-4.25,2.46-6.45,3.94c3-.53,5.91-1.08,8.85-1.69,1.25-1.91,2.48-3.83,3.73-5.76Z"/><path class="cls-5" d="M7.49,145.85q1-.16,2-.39l5.4-3.91Z"/><path class="cls-5" d="M72.4,100.67a88.53,88.53,0,0,0,9.3-7.43L63.28,106.56C66.39,104.7,69.45,102.75,72.4,100.67Z"/><path class="cls-5" d="M4.68,179.19c1.3-9,2.45-18,5.38-26.48.3-.85.63-1.69,1-2.52a37.45,37.45,0,0,1-5.67.91c-.25.73-.49,1.45-.72,2.18-.83,2.69-1.5,5.43-2.08,8.19C1.67,165.72,1,170,.4,174.3c-.12.8-.27,2.18-.38,3v24A103.3,103.3,0,0,0,3.8,185Q4.27,182.13,4.68,179.19Z"/><path class="cls-5" d="M10,111.1c1.41-2.33,2.88-4.67,4.4-7L1.68,114,.06,115.24v10.58l1.51-.59C4.4,120.49,7.15,115.73,10,111.1Z"/><path class="cls-5" d="M51,73.74A89.37,89.37,0,0,0,28.66,93L57.92,70.23C55.58,71.32,53.25,72.44,51,73.74Z"/><path class="cls-5" d="M75.41,56.63c4.94-2.26,9.89-4.51,14.82-6.8,16.61-7.75,33.18-15.66,49.26-24.46A228.79,228.79,0,0,0,159.11,13.6,77.25,77.25,0,0,0,173.49.66c.12-.13.23-.27.35-.41l-25.09,0-3.61,2.16-4.55,3.54Z"/><path class="cls-6" d="M14.35,104.12c-1.52,2.31-3,4.65-4.4,7-2.8,4.63-5.55,9.39-8.38,14.13,2.39-.91,4.81-1.71,7.26-2.42,3-5.07,5.93-10.13,9.09-15.06,1.94-3,3.94-6,6.07-8.88,1-1.31,2-2.62,3-3.91.54-.66,1.09-1.32,1.64-2A89.37,89.37,0,0,1,51,73.74c2.22-1.3,4.55-2.42,6.89-3.51L59,69.71l2.74-1.26c6.42-3,12.87-5.93,19.31-8.9q10.9-5,21.76-10.15C112,45.07,121.06,40.65,130,36c7.52-3.87,15-7.86,22.25-12.19a121.18,121.18,0,0,0,16.37-11.21A93.05,93.05,0,0,0,180.41.25h-6.57c-.12.14-.23.28-.35.41A77.25,77.25,0,0,1,159.11,13.6a228.79,228.79,0,0,1-19.62,11.77c-16.08,8.8-32.65,16.71-49.26,24.46-4.93,2.29-9.88,4.54-14.82,6.8-2.78,1.26-5.55,2.54-8.32,3.81q-5.69,2.63-11.31,5.33c-1.11.54-2.22,1-3.32,1.59C41.26,72.87,32,81.23,24.13,90.8c-2.91,3.51-5.63,7.19-8.19,11Q15.13,102.94,14.35,104.12Z"/><path class="cls-3" d="M161.49,134.84c-3,2.13-6.92,3-10.44,3.8l-1.66.39-49.23,38.09c-1.2,1.8-2.38,3.62-3.52,5.47-2.42,3.93-4.75,7.92-7.09,11.9L250,72.59V61.17L170.24,122.9C168.32,127.48,165.59,131.93,161.49,134.84Z"/><path class="cls-3" d="M76.53,204.38c-1.7,2.82-3.43,5.62-5.25,8.37a120.52,120.52,0,0,1-7.61,10.41A138.1,138.1,0,0,0,78.88,202.6Z"/><path class="cls-3" d="M152.48,133.15c1-.26,1.89-.54,2.83-.85.41-.14.81-.29,1.22-.45l.16-.06.52-.24a12.31,12.31,0,0,0,1.65-1c.1-.07.28-.21.38-.3.27-.22.53-.46.78-.7.43-.41.85-.84,1.25-1.28a19.26,19.26,0,0,0,2.09-2.82,27.84,27.84,0,0,0,1.41-2.57A66.66,66.66,0,0,1,152.48,133.15Z"/><path class="cls-3" d="M44.47,238.31A42.25,42.25,0,0,1,40,240a52.06,52.06,0,0,1-13.35,2.26L25,243.5a35.67,35.67,0,0,0,4.62-.37A47.79,47.79,0,0,0,44.47,238.31Z"/><path class="cls-3" d="M243.46,50.8c2.17.18,4.36.44,6.55.7V47.38l-8.71,3.27Z"/><path class="cls-3" d="M156.72,131.78Z"/><path class="cls-4" d="M152.48,133.15a66.66,66.66,0,0,0,12.29-10.24,56.38,56.38,0,0,0,4-12.32l.3-1.3a73.57,73.57,0,0,1-11.24,13.48c-6.89,6.36-15.33,10.49-23.45,15.08,2.66-.88,5.36-1.65,8.09-2.33C145.79,134.7,149.18,134.05,152.48,133.15Z"/><path class="cls-4" d="M100.16,177.12,88.8,185.91c-3,5.05-5.92,10.15-9,15.15l-1,1.54a138.1,138.1,0,0,1-15.21,20.56,62.73,62.73,0,0,1-7,7.25,47.76,47.76,0,0,1-12.24,7.9,47.79,47.79,0,0,1-14.81,4.82,35.67,35.67,0,0,1-4.62.37c-1.09,0-2.17,0-3.25,0-3.22-.15-3.21,4.85,0,5,23.2,1.09,42.53-15.84,55.09-33.7,4.59-6.53,8.64-13.4,12.67-20.28,2.34-4,4.67-8,7.09-11.9C97.78,180.74,99,178.92,100.16,177.12Z"/><path class="cls-4" d="M231.81,48.9l-4.74,1.78a100.87,100.87,0,0,1,14.23,0L250,47.38V42Q240.91,45.47,231.81,48.9Z"/><path class="cls-3" d="M47.72,109.44A179.66,179.66,0,0,1,58.54,94,40.79,40.79,0,0,0,46.88,99.7c-6.65,4.83-11.53,11.56-16.19,18.33l4.2-.75,6.45-3.94Z"/><path class="cls-3" d="M142.85,49l-.45.18-.37.15-.62.27-1,.46-1.19.55a51.84,51.84,0,0,0-7.06,4.28,56.09,56.09,0,0,0-9.72,8.87l.16-.09Z"/><path class="cls-4" d="M122.37,63.83l0,0a56.09,56.09,0,0,1,9.72-8.87,51.84,51.84,0,0,1,7.06-4.28l1.19-.55,1-.46.62-.27.37-.15.45-.18,13.67-9.89a117.83,117.83,0,0,0-14.18,4.72A66.08,66.08,0,0,0,133.55,48,60.48,60.48,0,0,0,119,60.1c-2.22,2.53-4.2,5.25-6.26,7.9q2.67-.5,5.36-1Z"/><path class="cls-4" d="M88.36,88.43c6.53-1.35,12.89-3.39,18.35-7.3a45.42,45.42,0,0,0,8.67-8.57c-2.28.44-4.57.85-6.83,1.27Z"/><path class="cls-4" d="M46.88,99.7A40.79,40.79,0,0,1,58.54,94a79.68,79.68,0,0,1,6-6.7c-6.23,1.26-12.3,3.09-17.76,6.46-10,6.17-16.44,16.09-23,25.57,2.28-.45,4.59-.86,6.91-1.28C35.35,111.26,40.23,104.53,46.88,99.7Z"/><path class="cls-3" d="M18.63,227.45c.08-.08.47-.55.49-.55.13-.19.27-.39.39-.58a12.63,12.63,0,0,0,.76-1.4s0-.06,0-.07a.69.69,0,0,0,0-.08l.12-.32c0-.09.06-.18.09-.27l-4.75,5.32.19-.09A8.39,8.39,0,0,0,18.63,227.45Z"/><path class="cls-3" d="M65.08,153.65a51.88,51.88,0,0,0-16.29,13.26c-4.92,6.1-8.45,13.27-11.65,20.38-1.65,3.66-3.21,7.37-4.81,11.05a67.38,67.38,0,0,0-3.87,9.93A64.26,64.26,0,0,0,27,217V217l4.66-5.2L60,180l33.86-37.86c-3.29,1.26-6.6,2.43-9.86,3.6A141.88,141.88,0,0,0,65.08,153.65Z"/><path class="cls-3" d="M101.83,133.28c7.1-3.55,13.57-8.11,18.15-14.84a110.53,110.53,0,0,0,7.49-13.84l-8.2,9.17-7,7.83Z"/><path class="cls-4" d="M25.54,225a45.82,45.82,0,0,0,1.4-8V217a64.26,64.26,0,0,1,1.51-8.7,67.38,67.38,0,0,1,3.87-9.93c1.6-3.68,3.16-7.39,4.81-11.05,3.2-7.11,6.73-14.28,11.65-20.38a51.88,51.88,0,0,1,16.29-13.26A141.88,141.88,0,0,1,84,145.77c3.26-1.17,6.57-2.34,9.86-3.6,9.61-3.68,19-8.16,26.09-15.75a51.28,51.28,0,0,0,7.22-10.33c1.27-2.29,2.44-4.65,3.6-7,.71-1.43,1.41-2.87,2.14-4.29.87-1.72,1.81-3.4,2.79-5a72.46,72.46,0,0,1,12-15.2c1.53-1.48,3.14-2.88,4.79-4.23a2.5,2.5,0,0,0,0-3.53,2.54,2.54,0,0,0-3.53,0,76.75,76.75,0,0,0-16.83,19.1,98.65,98.65,0,0,0-4.7,8.71A110.53,110.53,0,0,1,120,118.44c-4.58,6.73-11,11.29-18.15,14.84a143,143,0,0,1-15.18,6.25c-2.45.88-4.92,1.76-7.39,2.66-2.79,1-5.58,2.08-8.32,3.23-7.72,3.23-15.09,7.17-21.19,13-11.59,11.13-16.93,26.72-23.35,41a46.76,46.76,0,0,0-3.35,10c-.6,3-.9,6-1.3,9.07,0,0-.07.51-.09.6,0,.3-.09.6-.13.9-.11.63-.22,1.25-.36,1.86s-.28,1.18-.46,1.76c-.05.17-.11.34-.17.51s-.05.18-.09.27l-.12.32a.69.69,0,0,1,0,.08s0,0,0,.07a12.63,12.63,0,0,1-.76,1.4c-.12.19-.26.39-.39.58,0,0-.41.47-.49.55a8.39,8.39,0,0,1-2.65,2l-.19.09a20,20,0,0,1-4.08,1.41c-3.13.76-1.8,5.58,1.33,4.82a19.47,19.47,0,0,0,8.53-4.16A14.56,14.56,0,0,0,25.54,225Z"/><path class="cls-6" d="M9.5,145.46l.74-.17c8.17-2.07,15-7,20.82-13.11L14.9,141.55Z"/><path class="cls-6" d="M122.57,63.69l-.2.14L118.06,67a94.55,94.55,0,0,0,14.33-4,43,43,0,0,0,17-11.5c4.41-4.94,7.92-10.6,12-15.83l-4.85,3.51L142.85,49Z"/><path class="cls-6" d="M108.33,73.87c-7.09,1.29-14.21,2.63-21,5a50.48,50.48,0,0,0-18,10.71c-7.56,7-13,15.75-18.56,24.4,1.21-.31,2.41-.64,3.6-1l8.92-6.45L81.7,93.24l6.66-4.81,20.19-14.6Z"/><path class="cls-5" d="M42.24,126.53c.37-.48.72-1,1.07-1.46l-12.25,7.11c-5.82,6.07-12.65,11-20.82,13.11l-.74.17q-1,.22-2,.39l-4.87,2.82a2.51,2.51,0,0,0,2.49,2.46l.25,0a37.45,37.45,0,0,0,5.67-.91C24,147,34.3,137.11,42.24,126.53Z"/><path class="cls-5" d="M47.72,109.44c-.09.13-.17.26-.25.39-1.25,1.93-2.48,3.85-3.73,5.76q3.54-.72,7-1.6c5.53-8.65,11-17.35,18.56-24.4a50.48,50.48,0,0,1,18-10.71c6.82-2.38,13.94-3.72,21-5l.22,0c2.26-.42,4.55-.83,6.83-1.27,11.56-2.22,23.12-5.17,32.46-12.7,6.45-5.2,10.83-12.36,15.7-19a73.07,73.07,0,0,1,17.5-17q2.57-1.74,5.25-3.27c2.8-1.59.28-5.91-2.52-4.31a77.14,77.14,0,0,0-19.35,15.56c-1.06,1.2-2.07,2.44-3,3.7-4.06,5.23-7.57,10.89-12,15.83a43,43,0,0,1-17,11.5,94.55,94.55,0,0,1-14.33,4q-2.69.55-5.36,1l-.61.12c-14,2.58-28.73,4.7-40.55,13.22a58.65,58.65,0,0,0-7,5.94,79.68,79.68,0,0,0-6,6.7A179.66,179.66,0,0,0,47.72,109.44Z"/><path class="cls-3" d="M7.49,145.85l7.41-4.3,16.16-9.37,12.25-7.11,12.63-7.32c-11.94,3.43-24.5,4.92-36.6,7.55A100.89,100.89,0,0,0,.06,131.21v18.95l2.56-1.49Z"/><path class="cls-4" d="M.06,125.82v5.39a100.89,100.89,0,0,1,19.28-5.91c12.1-2.63,24.66-4.12,36.6-7.55.79-.23,1.57-.47,2.35-.72l1.39-.43a83.58,83.58,0,0,0,8.81-3.43c1.17-.54,2.33-1.1,3.47-1.71a61.57,61.57,0,0,0,5.63-3.37c2.65-1.8.15-6.13-2.53-4.32a61.76,61.76,0,0,1-10,5.45A86.07,86.07,0,0,1,54.36,113c-1.19.34-2.39.67-3.6,1q-3.48.89-7,1.6c-2.94.61-5.9,1.16-8.85,1.69l-4.2.75c-2.32.42-4.63.83-6.91,1.28l-.45.08c-4.87,1-9.74,2-14.5,3.42-2.45.71-4.87,1.51-7.26,2.42Z"/><path class="cls-3" d="M141.48,195.51a62.56,62.56,0,0,1,13.05.59c1.58.23,3.17.52,4.73.9a14.78,14.78,0,0,0,4.59.23,40.41,40.41,0,0,0,6-.76l29.33-17c.84-.84,1.67-1.69,2.47-2.57l-.42.12c-10.29,2.68-20.95,1.92-31.46,2.91-3,.28-6,.66-8.91,1.15l-5.42,3.72Z"/><path class="cls-4" d="M205.81,175.63c-1.36.47-2.74.89-4.13,1.26-.8.88-1.63,1.73-2.47,2.57Z"/><path class="cls-4" d="M236.88,125.42,250,115.36v-6.92c-2.14,2.09-4.3,4.37-6.24,6.65C242.18,117,237.87,122.89,236.88,125.42Z"/><path class="cls-4" d="M159.26,197c-1.56-.38-3.15-.67-4.73-.9a62.56,62.56,0,0,0-13.05-.59l-8.59,6.59a46.31,46.31,0,0,1,16.93-1.55,70.37,70.37,0,0,1,9.11,1.52c.33.07.67.12,1,.17l9.95-5.77a40.41,40.41,0,0,1-6,.76A14.78,14.78,0,0,1,159.26,197Z"/><path class="cls-6" d="M205.35,225.29c6.3-3.27,12.9-5.95,19.44-8.73,5.34-2.27,11-4.47,15.69-7.88l0,0h0l.25-.21.6-.52c.59-.56,1.15-1.17,1.69-1.79a26.69,26.69,0,0,0,3.18-4.69,40.11,40.11,0,0,0,3.77-11V177.13l-7.2,7.76Z"/><path class="cls-5" d="M243.06,206.13c-.54.62-1.1,1.23-1.69,1.79l-.6.52-.25.21h0l0,0c-4.73,3.41-10.35,5.61-15.69,7.88-6.54,2.78-13.14,5.46-19.44,8.73l-.45.22a60.43,60.43,0,0,0-9.7,6.1l-.34.27c-2.31,3.15-4.64,6.29-7,9.39a2.62,2.62,0,0,0,1.86,2.57,2.57,2.57,0,0,0,3.07-1.75s0-.06,0-.08l.18-.38c.12-.24.24-.47.37-.7a17.19,17.19,0,0,1,1.06-1.61h0l.06-.07.27-.33c.21-.25.43-.49.65-.73.5-.52,1-1,1.55-1.51.17-.16.36-.3.54-.45a44.05,44.05,0,0,1,6.94-4.75A174.24,174.24,0,0,1,224,222.3c1.86-.79,3.74-1.56,5.62-2.36a84.72,84.72,0,0,0,11.47-5.64,22.81,22.81,0,0,0,7.46-8.48,19.15,19.15,0,0,0,1.41-4.54V182.79c-.49,2.37-1.74,10.4-3.52,16.37A23.43,23.43,0,0,1,243.06,206.13Z"/><path class="cls-5" d="M141.48,195.51l14-10.72,5.42-3.72c-13.41,2.13-27,6.88-38.24,14.82s-19.86,18.74-26.93,30.44a59.64,59.64,0,0,1,9.51-6,71.14,71.14,0,0,1,8.83-3.76l18.83-14.43Z"/><path class="cls-6" d="M214.91,171.7a75.57,75.57,0,0,0,13.66-9.21l.19-.17-12.84,7.45Z"/><path class="cls-6" d="M95.72,226.33c7.07-11.7,15.73-22.49,26.93-30.44s24.13-12.43,37.52-14.71l.72-.11c3-.49,5.93-.87,8.91-1.15,10.51-1,21.17-.23,31.46-2.91l.42-.12c1.39-.37,2.77-.79,4.13-1.26l2.12-1.3c1.2-2.16,2.35-4.34,3.48-6.51a62.45,62.45,0,0,1-14.16,5c-5.5,1.17-11,1.21-16.58,1.41-4.18.15-8.37.42-12.55.86-13.53,1.42-26.89,4.58-39,11-15.67,8.26-27.74,21.58-37,36.51-2.73,4.42-5.22,9-7.55,13.63a2.45,2.45,0,0,0,0,2.4A45.54,45.54,0,0,1,95.72,226.33Z"/><path class="cls-3" d="M103.49,227c-6.83,4.22-12.88,10.07-16.26,17.4l48.15-27.92-2.16.37C122.85,218.7,112.53,221.42,103.49,227Z"/><path class="cls-3" d="M225.59,152.42C222,158,219,164,215.92,170l12.84-7.44L250,150.18V131.27a58.25,58.25,0,0,0-5.71,2.83A53.88,53.88,0,0,0,225.59,152.42Z"/><path class="cls-3" d="M199.21,179.46l-29.33,17-9.95,5.77L146.65,210c17.67-2.59,36.71-5.83,49.67-19.18a77.37,77.37,0,0,0,11.61-16.45l-2.12,1.3Z"/><path class="cls-4" d="M225.64,143.74c-5.82,7.46-10,15.94-14.34,24.3l-.08.14c-1.12,2.18-2.28,4.36-3.47,6.51A74.12,74.12,0,0,1,196.17,191c-12.89,13.09-31.4,16.32-49.08,18.91-3.35.49-6.67,1-9.92,1.47a130.13,130.13,0,0,0-23.11,5.38,69.6,69.6,0,0,0-8.83,3.75,59,59,0,0,0-9.51,6.05,45.5,45.5,0,0,0-11.06,12.25c-.11.2-.24.39-.35.58a40.17,40.17,0,0,0-3,6.61,2.5,2.5,0,1,0,4.82,1.33c.33-.92.7-1.82,1.11-2.71,3.38-7.33,9.43-13.17,16.26-17.39,9-5.59,19.36-8.3,29.73-10.15l2.16-.38c20.51-3.46,42.56-4.62,59.59-17.94,9.06-7.09,14.7-16.82,19.94-26.83.34-.65.68-1.29,1-1.94,3.09-6,6.1-12,9.67-17.53A53.88,53.88,0,0,1,244.3,134.1a58.25,58.25,0,0,1,5.71-2.83V125.9c-1,.41-2.1.84-3.13,1.3A55.87,55.87,0,0,0,225.64,143.74Z"/><path class="cls-5" d="M211.05,201.61l-52.77,41-9.77,7.6h25.75c12-13.79,22-29.19,33.05-43.75C208.54,204.88,209.79,203.24,211.05,201.61Z"/><path class="cls-6" d="M195,231.67l6.26-8.58c5.43-7.47,10.85-15,16.67-22.15,4.31-5.3,9.07-11.16,14.58-15a20.66,20.66,0,0,1,2.94-1.74l.22-.11.12,0c.23-.09.46-.17.7-.24s1.61-.33,1-.25c3.16-.36,3.2-5.36,0-5-5.58.62-10.18,4.83-14,8.62a147.52,147.52,0,0,0-12.43,14.44c-1.26,1.63-2.51,3.27-3.74,4.9-11,14.56-21.46,30-33.45,43.75h6.55c1.09-1.34,2.56-2.69,3.62-4,1.29-1.64,2.56-3.3,3.83-5,2.36-3.1,4.69-6.24,7-9.39Z"/><path class="cls-6" d="M29.87,237a41.48,41.48,0,0,0,17.42-5.79A54.76,54.76,0,0,0,61.6,217.8a197.08,197.08,0,0,0,14.25-21.87l-53.51,41.4A65.3,65.3,0,0,0,29.87,237Z"/><path class="cls-6" d="M212.7,58.46a59.28,59.28,0,0,0-22.17,12.67,42.67,42.67,0,0,0-10.57,16c-4.36,11.27-4.9,23.61-9.33,34.82-.12.31-.26.62-.39.94L250,61.17V56.45C237.47,55.22,224.94,54.56,212.7,58.46Z"/><path class="cls-6" d="M100.16,177.12,149.39,139c-4.51,1.05-9,2.09-13.42,3.53a74.21,74.21,0,0,0-17.9,8.55c-13.81,9.08-23.3,22.73-31.7,36.68l2.43-1.88Z"/><path class="cls-5" d="M241.3,50.65a100.87,100.87,0,0,0-14.23,0q-2.73.21-5.45.61a65.93,65.93,0,0,0-23.18,8.05c-7,4-13.24,9-17.79,15.69-7,10.21-8.9,22.45-11.57,34.26l-.3,1.3a56.38,56.38,0,0,1-4,12.32,27.84,27.84,0,0,1-1.41,2.57,19.26,19.26,0,0,1-2.09,2.82c-.4.44-.82.87-1.25,1.28-.25.24-.51.48-.78.7-.1.09-.28.23-.38.3a12.31,12.31,0,0,1-1.65,1l-.52.24-.16.06c-.41.16-.81.31-1.22.45-.94.31-1.88.59-2.83.85-3.3.9-6.69,1.55-10,2.37-2.73.68-5.43,1.45-8.09,2.33a87.48,87.48,0,0,0-8.9,3.45c-15.2,6.92-26.86,18.9-36.18,32.53-4.86,7.12-9.1,14.64-13.46,22.1A197.08,197.08,0,0,1,61.6,217.8a54.76,54.76,0,0,1-14.31,13.43A41.48,41.48,0,0,1,29.87,237a65.3,65.3,0,0,1-7.53.31c-1,0-2.07,0-3.11-.09-3.22-.16-3.21,4.84,0,5,2.47.12,5,.13,7.45,0A52.06,52.06,0,0,0,40,240a42.25,42.25,0,0,0,4.44-1.68,47.76,47.76,0,0,0,12.24-7.9,62.73,62.73,0,0,0,7-7.25,120.52,120.52,0,0,0,7.61-10.41c1.82-2.75,3.55-5.55,5.25-8.37,2.85-4.7,5.6-9.46,8.4-14.19l1.44-2.4c8.4-13.95,17.89-27.6,31.7-36.68a74.21,74.21,0,0,1,17.9-8.55c4.41-1.44,8.91-2.48,13.42-3.53l1.66-.39c3.52-.84,7.43-1.67,10.44-3.8,4.1-2.91,6.83-7.36,8.75-11.94.13-.32.27-.63.39-.94,4.43-11.21,5-23.55,9.33-34.82a42.67,42.67,0,0,1,10.57-16A59.28,59.28,0,0,1,212.7,58.46c12.24-3.9,24.77-3.24,37.31-2v-5c-2.19-.26-4.38-.52-6.55-.7Zm-84.58,81.13Z"/><path class="cls-5" d="M241,122.29l-68.37,52.4c2.7-.21,5.4-.37,8.09-.46,5.59-.2,11.08-.24,16.58-1.41a62.45,62.45,0,0,0,14.16-5c-.59,1.13-1.18,2.26-1.78,3.38h0c.53-1,1.06-2,1.58-3l.08-.14c4.34-8.36,8.52-16.84,14.34-24.3a55.87,55.87,0,0,1,21.24-16.54c1-.46,2.08-.89,3.13-1.3v2.21h0V115.34Z"/></g></g></svg>