<svg xmlns="http://www.w3.org/2000/svg" viewBox="0 0 250 250.03"><defs><style>.cls-1{fill:#3eab37;}.cls-2,.cls-6{fill:none;}.cls-2{stroke:#95c122;stroke-linecap:round;stroke-linejoin:round;stroke-width:4px;stroke-dasharray:5 8 5 15 5 10;}.cls-3{fill:#056734;}.cls-4{fill:#95c122;}.cls-5{fill:#a9cc66;}</style></defs><g id="Ebene_2" data-name="Ebene 2"><g id="Images"><rect class="cls-1" y="0.03" width="250" height="250"/><path class="cls-2" d="M17.14,43.15C9.77,75.63,3.51,215.8,23.35,188.43S53.58,68.41,73,107.15s34.19,145.91,37.7,71.43S115,45.24,127.8,88.72s50.75,154.68,54.06,95.67c.53-9.32.87-20.12,1.14-31.47,1.46-60.51.86-136.58,14.14-86.74,15.76,59.19,20.62,188.88,24.28,117.2S265,37.07,233.07,48.94,49.8,208.76,34.31,126.06C34.31,126.06,24.51,10.67,17.14,43.15Z"/><path class="cls-3" d="M193.55,27.06c-1.26,5.1-4.38,6.82-10.41,5.74a9.89,9.89,0,0,1-5.56-3.61,10.17,10.17,0,0,1-2.19-6.25l12.66,2.2a15.36,15.36,0,0,1-3.74-3.37,14.28,14.28,0,0,1-1.16-1.72L176,18.81a15.8,15.8,0,0,1,3.57-6.88l-4.66-.81a21.74,21.74,0,0,0-3,7l-10.29-1.79c-.05,0-4.94-.93-4.43-3.83.67-3.93,2.28-3.92,4.43-3.54A2.06,2.06,0,0,0,164,7.26a2,2,0,0,0,0-.9,6.27,6.27,0,0,1-.48-.88,2.09,2.09,0,0,0-1.16-.64,10,10,0,0,0-3.2-.1c-2.77.43-2,1.81-2.77,3.63-.92,2.24-1,6.19-2.34,8.07a.61.61,0,0,0,.07.1c2.08,3,6.31,3.79,6.79,3.88l10.37,1.8a14.44,14.44,0,0,0,11.18,14.69c10.32,1.84,14-3.83,15.23-9,0-.24.07-.47.11-.7A17.73,17.73,0,0,1,193.55,27.06Z"/><path class="cls-3" d="M117.53,28.3A29.64,29.64,0,0,1,99.18,0H91.24a29.64,29.64,0,0,0,53,26.19,29.68,29.68,0,0,1-15.39,4.34A29.53,29.53,0,0,1,117.53,28.3Z"/><path class="cls-3" d="M104.22,11.15a26.48,26.48,0,0,0,14.46,14.38,26.51,26.51,0,0,0,10.12,2A26.57,26.57,0,0,0,153.45,11a26.46,26.46,0,0,0,2-11H139.63a11.14,11.14,0,0,1,.17,1.84,11,11,0,0,1-21.93,0A11.14,11.14,0,0,1,118,0H102.17A26.77,26.77,0,0,0,104.22,11.15Z"/><path class="cls-4" d="M155.44,0a26.46,26.46,0,0,1-2,11A26.57,26.57,0,0,1,128.8,27.54a26.51,26.51,0,0,1-10.12-2,26.48,26.48,0,0,1-14.46-14.38,26.77,26.77,0,0,1-2-11.14h-3A29.64,29.64,0,0,0,117.53,28.3a29.53,29.53,0,0,0,11.27,2.24,29.68,29.68,0,0,0,15.39-4.34,29.42,29.42,0,0,0,12-14A29.33,29.33,0,0,0,158.43,0Z"/><path class="cls-5" d="M128.83,12.81a11,11,0,0,0,11-11A11.14,11.14,0,0,0,139.63,0H118a11.14,11.14,0,0,0-.16,1.84A11,11,0,0,0,128.83,12.81Z"/><path class="cls-6" d="M37,72.57A19.15,19.15,0,0,0,45.45,84.7a17.78,17.78,0,0,0,16.82.66,13.08,13.08,0,0,0,5-4.21,22,22,0,0,1-14-2.9A23.51,23.51,0,0,1,43,53.31a33.23,33.23,0,0,0-3.23,4.56A19.28,19.28,0,0,0,37,72.57Z"/><path class="cls-6" d="M74.39,74.1a16.58,16.58,0,0,0,5.29-7.42,6,6,0,0,0-.45-5.37c-.22-.31-.43-.57-.63-.81a7.16,7.16,0,0,1-8.26,1.56,14.71,14.71,0,0,1,3.42,5.56A16.47,16.47,0,0,1,74.39,74.1Z"/><path class="cls-6" d="M48,11.85c4,.71,7.33,0,10-2a12,12,0,0,0,3-3.55A19.9,19.9,0,0,1,57.31,6a16.45,16.45,0,0,1-6.2-2.56,2.08,2.08,0,0,1-2.26,3.19A11.16,11.16,0,0,1,41.73,0H35.11l0,0C37.76,4.87,42.1,10.79,48,11.85Z"/><path class="cls-6" d="M49.94,2.56A25.5,25.5,0,0,1,47.12,0h-.7A7.28,7.28,0,0,0,49.94,2.56Z"/><path class="cls-6" d="M114,49.81v.07a14.76,14.76,0,0,1,4.11-.42c.25-1.4.47-2.7.67-3.87a9.37,9.37,0,0,0-.93-.2C114.9,44.87,114,49.76,114,49.81Z"/><path class="cls-6" d="M53.85.21A12.14,12.14,0,0,0,58,1.85,15.28,15.28,0,0,0,62.78,2l.06-.22Z"/><path class="cls-6" d="M116,61.4c.47-2.71.93-5.34,1.35-7.78a10.33,10.33,0,0,0-4.2.94c-.27,1.56-.59,3.43-1,5.55A23,23,0,0,1,116,61.4Z"/><path class="cls-6" d="M107.4,87.6a30.41,30.41,0,0,1,4.43-2.27l.22-1.25a10.89,10.89,0,0,1-4.35,1.83Z"/><path class="cls-6" d="M94,108.74c-.78,2.59-.83,4.84-.16,5.94a1.93,1.93,0,0,0,1.41.89h.07a1.52,1.52,0,0,0,1.27-.28c1.43-1,2.49-4.15,2.9-6.82l.42-2.35a9.79,9.79,0,0,1-.65-4.78A12.2,12.2,0,0,0,94,108.74Z"/><path class="cls-6" d="M112.27,77.09a2.18,2.18,0,0,1,.79-1.12l-.65-.09a16.51,16.51,0,0,1-2.8-.95c-.37,2.12-.75,4.28-1.12,6.43A7.09,7.09,0,0,0,112.27,77.09Z"/><path class="cls-6" d="M97.48,71.37c-1.08,6.06.65,9.17,5.79,10.43.31.06.6.1.89.13.56-3.22,1.13-6.47,1.67-9.61a11,11,0,0,1-2.8-7.71,10.61,10.61,0,0,0-1.94,1.21A9.85,9.85,0,0,0,97.48,71.37Z"/><path class="cls-6" d="M164,7.26a2.06,2.06,0,0,1-2.41,1.68c-2.15-.38-3.76-.39-4.43,3.54-.51,2.9,4.38,3.82,4.43,3.83l10.29,1.79a21.74,21.74,0,0,1,3-7l-4-.7c-.48-.09-4.71-.9-6.79-3.88a1.88,1.88,0,0,1-.12-.18A2,2,0,0,1,164,7.26Z"/><path class="cls-6" d="M202.74,11.72l.39.07A7.07,7.07,0,0,0,198.89,8,26.09,26.09,0,0,1,202.74,11.72Z"/><path class="cls-6" d="M186.06,8.6c0,.07-.05.14-.07.21l9,1.57a12.09,12.09,0,0,0-4.2-1.65A15.2,15.2,0,0,0,186.06,8.6Z"/><path class="cls-6" d="M84.77,4l.11.18a2.2,2.2,0,0,1,0-.89,2.07,2.07,0,0,1,2.42-1.69C89,2,90.35,2,91.17,0H77l1,.16C78.46.25,82.69,1.06,84.77,4Z"/><path class="cls-6" d="M201.17,62.19a21.65,21.65,0,0,1,1.9,12.64,19.1,19.1,0,0,0,3.62-4.17,17.78,17.78,0,0,0,.66-16.82c-1-2.61-4.87-6.22-8.68-7.41a6,6,0,0,0-5.37.45,8.87,8.87,0,0,0-.81.63,7.16,7.16,0,0,1,2,7.16C197.73,56.83,200.28,59.83,201.17,62.19Z"/><path class="cls-6" d="M187.81,4.3a21,21,0,0,1,3.72.33,16.52,16.52,0,0,1,6.2,2.56,2,2,0,0,1-.3-1.75A2.08,2.08,0,0,1,200,4a11.13,11.13,0,0,1,7.7,8.58l7.6,1.32a26.25,26.25,0,0,0-1.58-3.36c-2.08-3.81-5.23-8.3-9.38-10.54H191.94a11.38,11.38,0,0,0-1.11.75A12.23,12.23,0,0,0,187.81,4.3Z"/><path class="cls-6" d="M171.58,6.31l6.68,1.16h0a14.69,14.69,0,0,1,4.57-2.39A19.1,19.1,0,0,1,185.73,0H168a7.33,7.33,0,0,0-.8,2.48C166.64,5.38,171.53,6.3,171.58,6.31Z"/><path class="cls-6" d="M162.31,4.84a2.09,2.09,0,0,1,1.16.64,6.36,6.36,0,0,1-.42-3.73c0-.13,0-.25.07-.38.1-.49.23-.94.36-1.37h-3.82a30.61,30.61,0,0,1-.55,4.74A10,10,0,0,1,162.31,4.84Z"/><path class="cls-6" d="M107.2,63.63c0,.33,0,.65,0,.95.06-.32.12-.64.17-1Z"/><path class="cls-6" d="M177.58,29.19a9.89,9.89,0,0,0,5.56,3.61c6,1.08,9.15-.64,10.41-5.74-.38,0-.74-.08-1.14-.15a12.35,12.35,0,0,1-4.36-1.77l-12.66-2.2A10.17,10.17,0,0,0,177.58,29.19Z"/><path class="cls-6" d="M183.15,20.05a14.13,14.13,0,0,1-1.92-7.83l-1.67-.29A15.8,15.8,0,0,0,176,18.81Z"/><path class="cls-6" d="M210.09,24.74l10.85,1.91c.52.08,1.24.21,2.07.41a21.71,21.71,0,0,1-5.91-8.61l-9.3-1.62c0,.34-.1.69-.16,1s-.14.54-.22.8a43.13,43.13,0,0,1,2.43,5.47Z"/><path class="cls-6" d="M220.25,30.75l-8.15-1.43a12.72,12.72,0,0,0,8.4,6.93c2.6.78,4.85.83,5.95.16a1.92,1.92,0,0,0,.88-1.41.17.17,0,0,0,0-.07,1.51,1.51,0,0,0-.27-1.27C226.06,32.23,222.92,31.17,220.25,30.75Z"/><path class="cls-6" d="M205.06,23.4c-.11.14-.23.27-.35.4l.57.1C205.21,23.73,205.14,23.57,205.06,23.4Z"/><path class="cls-6" d="M121.69,74.32a11.09,11.09,0,0,1-4,1.59c-.46,2.63-.9,5.19-1.32,7.6a26.25,26.25,0,0,0,3.36-1.58c.38-.2.76-.42,1.14-.65a10.21,10.21,0,0,0,.66-2.25A15.11,15.11,0,0,0,121.69,74.32Z"/><path class="cls-6" d="M106.14,98.09l-.61.23c-.45,2.63-.86,5-1.19,6.86a2.31,2.31,0,0,0,.94.39h.07a1.52,1.52,0,0,0,1.27-.28c1.43-1,2.49-4.15,2.9-6.82.1-.51.21-1.18.35-1.94C108.66,97.1,107.39,97.6,106.14,98.09Z"/><path class="cls-6" d="M119,68.45l-.51,2.91a6.63,6.63,0,0,0,1.79-1.18,9.94,9.94,0,0,0-.75-1.12C119.36,68.85,119.18,68.65,119,68.45Z"/><path class="cls-6" d="M230.5,26.25c2.6.78,4.85.83,5.95.16a1.92,1.92,0,0,0,.88-1.41.17.17,0,0,0,0-.07,1.51,1.51,0,0,0-.27-1.27c-1-1.43-4.15-2.49-6.82-2.91l-8.15-1.43A12.72,12.72,0,0,0,230.5,26.25Z"/><path class="cls-6" d="M202.87,19.08a35.72,35.72,0,0,0-2.38-3.52l-15.1-2.62a10.17,10.17,0,0,0,2.19,6.25,11.08,11.08,0,0,0,2.07,2l3.48.6A7.1,7.1,0,0,0,188.85,18,2.08,2.08,0,0,1,190,14a11.13,11.13,0,0,1,7.7,8.58l1.14.2A6.16,6.16,0,0,0,202.87,19.08Z"/><path class="cls-6" d="M119.84,63.61a16.25,16.25,0,0,1,2.83,2.72,2.08,2.08,0,0,1,3.61,1.89,10.29,10.29,0,0,1-1.16,2.57,17.15,17.15,0,0,1,.79,7c2.74-2.35,5-5.27,5.63-8.73.71-4,0-7.34-2-10a14.68,14.68,0,0,0-8.06-4.83C121,57.13,120.41,60.32,119.84,63.61Z"/><path class="cls-6" d="M110.78,91.35l.18-1A14.8,14.8,0,0,0,107,93.23a22,22,0,0,0,2.71-1.3Z"/><path class="cls-6" d="M114.16,71.93c.37-2.09.73-4.2,1.09-6.28a18.53,18.53,0,0,0-3.78-1.42c-.36,2-.73,4.2-1.12,6.44a11,11,0,0,0,2.92,1.13C113.58,71.86,113.87,71.9,114.16,71.93Z"/><path class="cls-3" d="M62.27,85.36a17.78,17.78,0,0,1-16.82-.66,19.3,19.3,0,0,1-5.71-26.83A33.23,33.23,0,0,1,43,53.31a23.45,23.45,0,0,1,3.16-7.53c.45-.76.92-1.49,1.41-2.21A38.69,38.69,0,0,0,36.13,55.78a23.47,23.47,0,0,0,7.14,32.47,21.85,21.85,0,0,0,20.65.93c3-1.14,7.09-5,9.11-9.6a21.31,21.31,0,0,1-5.77,1.57A13.08,13.08,0,0,1,62.27,85.36Z"/><path class="cls-3" d="M50.54,46.58c8.8-5.93,21.87-10,41.51-13.24a2.09,2.09,0,0,0,.73-3.85,2.1,2.1,0,0,0-1.4-.26C78.16,31.42,67.77,34,59.54,37.28A34.63,34.63,0,0,0,50.54,46.58Z"/><path class="cls-3" d="M74.39,74.1a16.47,16.47,0,0,0-.63-6.48,14.71,14.71,0,0,0-3.42-5.56c-.21-.1-.42-.18-.62-.3a7.17,7.17,0,0,1-2.19-2L67,59.42A7.17,7.17,0,1,0,68.6,70.5c.2.24.41.5.63.81a5.83,5.83,0,0,1,.55,5,19.48,19.48,0,0,0,2.49-1A8.48,8.48,0,0,0,74.39,74.1Z"/><path class="cls-3" d="M25.68,41.36a5.19,5.19,0,0,1,7.1-1.82c.14.08.25.19.38.28a5.16,5.16,0,1,0-8.11,5A5.09,5.09,0,0,1,25.68,41.36Z"/><path class="cls-3" d="M22.78,49.54a5.18,5.18,0,1,0,1.82,7.1A5.19,5.19,0,0,0,22.78,49.54Z"/><path class="cls-3" d="M84.77,4C82.69,1.06,78.46.25,78,.16L77,0H73.57a15.83,15.83,0,0,1-3,3.11l6.69,1.16s4.94.93,4.42,3.83C81,12,79.41,12,77.26,11.64a2.07,2.07,0,0,0-2.42,1.69,2.09,2.09,0,0,0,1.69,2.42c5,.88,8.13-1.38,9.18-6.54,0-.12.05-.25.07-.38a6.36,6.36,0,0,0-.41-3.73,2.13,2.13,0,0,1-.49-.88Z"/><path class="cls-3" d="M48.85,6.58a2.08,2.08,0,0,0,2.26-3.19c-.39-.26-.78-.53-1.17-.83A7.28,7.28,0,0,1,46.42,0H41.73A11.16,11.16,0,0,0,48.85,6.58Z"/><path class="cls-3" d="M61,6.28a12,12,0,0,1-3,3.55c-2.63,2.05-6,2.73-10,2C42.1,10.79,37.76,4.87,35.14,0l0,0H30.45c.33.72.67,1.43,1.05,2.08,4.35,8,9.82,12.8,15.81,13.87,5.12.91,9.7-.06,13.25-2.83A17.54,17.54,0,0,0,66,5.52,16.85,16.85,0,0,1,61,6.28Z"/><path class="cls-3" d="M62.84,1.77,62.78,2a10.77,10.77,0,0,0,5-2H53.53l.32.21Z"/><path class="cls-3" d="M203.57,17c.05-.31.09-.61.13-.89l-3.21-.56a35.72,35.72,0,0,1,2.38,3.52A12.86,12.86,0,0,0,203.57,17Z"/><path class="cls-3" d="M178.26,7.47l3.61.63a25,25,0,0,1,1-3,14.69,14.69,0,0,0-4.57,2.39Z"/><path class="cls-3" d="M223,27.06c-.83-.2-1.55-.33-2.07-.41l-10.85-1.91-.24-.6a43.13,43.13,0,0,0-2.43-5.47,13.48,13.48,0,0,1-2.36,4.73c.08.17.15.33.22.5l-.57-.1A10,10,0,0,1,198.87,27l8.23,1.43c2.05,4.82,5.09,9.91,12.27,11.81,2.2.66,6.33,1.49,9.25-.3a6.41,6.41,0,0,0,2.82-4.28,5.67,5.67,0,0,0-1-4.43,7.23,7.23,0,0,0-.77-.89l-.33-.1A16.34,16.34,0,0,1,223,27.06Zm4.33,7.87a.17.17,0,0,1,0,.07,1.92,1.92,0,0,1-.88,1.41c-1.1.67-3.35.62-5.95-.16a12.72,12.72,0,0,1-8.4-6.93l8.15,1.43c2.67.42,5.81,1.48,6.82,2.91A1.51,1.51,0,0,1,227.34,34.93Z"/><path class="cls-3" d="M190,14a2.08,2.08,0,0,0-1.13,4,7.1,7.1,0,0,1,4.28,3.78l-3.48-.6a8.82,8.82,0,0,0,3.49,1.61,12.78,12.78,0,0,0,5.68,0l-1.14-.2A11.13,11.13,0,0,0,190,14Z"/><path class="cls-3" d="M187.81,4.3a17.75,17.75,0,0,0-1.75,4.3,15.2,15.2,0,0,1,4.73.13,12.09,12.09,0,0,1,4.2,1.65l7.75,1.34A26.09,26.09,0,0,0,198.89,8h0a2.08,2.08,0,0,1-1.12-.82,16.52,16.52,0,0,0-6.2-2.56A21,21,0,0,0,187.81,4.3Z"/><path class="cls-3" d="M180.44,52.11c-.28.08-.57.15-.83.24a15.34,15.34,0,0,0-8.2,6.73,7.17,7.17,0,1,0,12-.54A7.17,7.17,0,0,1,180.44,52.11Z"/><path class="cls-3" d="M201.17,62.19c-.89-2.36-3.44-5.36-6.71-7.52a6.73,6.73,0,0,1-.71,1.72,7,7,0,0,1-1.52,1.8,14.06,14.06,0,0,1,5.12,5.65A17.81,17.81,0,0,1,198,78a19.14,19.14,0,0,0,5.11-3.18A21.65,21.65,0,0,0,201.17,62.19Z"/><path class="cls-3" d="M194.62,83.32a19.28,19.28,0,0,1-24.76,3.05c-12.67-7.5-19.54-22.17-24.53-52.31a2.09,2.09,0,0,0-3.85-.73,2.1,2.1,0,0,0-.26,1.4c4.11,24.88,9.62,39.77,18.58,49a5.16,5.16,0,0,1,7.68,6.09l.29.17a23.34,23.34,0,0,0,4.61,2.3,5.14,5.14,0,0,1,8.26,1.43,24.43,24.43,0,0,0,4.8-.54,23.41,23.41,0,0,0,14.8-10.33,19.44,19.44,0,0,0,.92-1.75,23.41,23.41,0,0,1-5.72,2.08C195.17,83.23,194.89,83.27,194.62,83.32Z"/><path class="cls-3" d="M155.26,93.59a5.18,5.18,0,1,0,1.81,7.1A5.18,5.18,0,0,0,155.26,93.59Z"/><path class="cls-3" d="M168.63,101.51a5.18,5.18,0,1,0,1.81,7.1A5.19,5.19,0,0,0,168.63,101.51Z"/><path class="cls-3" d="M119.84,63.61c-.28,1.59-.56,3.21-.84,4.84.18.2.36.4.53.61a9.94,9.94,0,0,1,.75,1.12,7.24,7.24,0,0,0,2-3.09,2.05,2.05,0,0,1,.4-.76A16.25,16.25,0,0,0,119.84,63.61Z"/><path class="cls-3" d="M100.32,106.85a5,5,0,0,1-.38-.72l-.42,2.35c-.41,2.67-1.47,5.81-2.9,6.82a1.52,1.52,0,0,1-1.27.28h-.07a1.93,1.93,0,0,1-1.41-.89c-.67-1.1-.62-3.35.16-5.94a12.2,12.2,0,0,1,5.26-7.39A18.72,18.72,0,0,1,100,97.6c.16-.6.35-1.16.55-1.71C96.15,98,91.76,101.05,90,107.6c-.66,2.21-1.49,6.33.3,9.25a6.46,6.46,0,0,0,4.28,2.83,5.72,5.72,0,0,0,4.43-1c3.06-2.17,4.2-7.1,4.57-9.31A6.08,6.08,0,0,1,100.32,106.85Z"/><path class="cls-3" d="M125.12,70.79a11.23,11.23,0,0,1-3.43,3.53,15.11,15.11,0,0,1-.15,4.71,10.21,10.21,0,0,1-.66,2.25,34.44,34.44,0,0,0,5-3.52A17.15,17.15,0,0,0,125.12,70.79Z"/><path class="cls-3" d="M107.4,87.6l.3-1.69a10.89,10.89,0,0,0,4.35-1.83c.44-2.55.91-5.25,1.4-8l-.39-.06a2.18,2.18,0,0,0-.79,1.12,7.09,7.09,0,0,1-3.78,4.27c.37-2.15.75-4.31,1.12-6.43a11.4,11.4,0,0,1-3.78-2.61c-.54,3.14-1.11,6.39-1.67,9.61-.29,0-.58-.07-.89-.13-5.14-1.26-6.87-4.37-5.79-10.43a9.85,9.85,0,0,1,3.61-5.55A10.61,10.61,0,0,1,103,64.61a21.43,21.43,0,0,1,.34-4c0-.22.11-.44.16-.66a14.63,14.63,0,0,0-5,2.56,14.17,14.17,0,0,0-5.14,8.1c-1.84,10.32,3.83,14,9,15.24l1,.15c-.38,2.2-.76,4.34-1.12,6.4A17.06,17.06,0,0,1,107.4,87.6Z"/><path class="cls-3" d="M114,49.81c0-.05.94-4.94,3.84-4.42a9.37,9.37,0,0,1,.93.2c.29-1.65.53-3,.72-4.11l-.54-.12-.38-.08a6.27,6.27,0,0,0-4.79,1c-3,2.08-3.8,6.31-3.88,6.79l-.49,2.83a14.06,14.06,0,0,1,4.58-2Z"/><path class="cls-3" d="M125.25,51.09a1.71,1.71,0,0,0,.19-.55c.57-3.17-.15-5.6-2.08-7.22-.31,1.75-.71,4.07-1.18,6.79A23.45,23.45,0,0,1,125.25,51.09Z"/><path class="cls-3" d="M106.14,98.09c1.25-.49,2.52-1,3.73-1.55.24-1.39.55-3.15.91-5.19l-1,.58a22,22,0,0,1-2.71,1.3,12.23,12.23,0,0,0-3,5.51c-.78,2.59-.83,4.84-.16,5.94a1.66,1.66,0,0,0,.47.5c.33-1.91.74-4.23,1.19-6.86Z"/><path class="cls-3" d="M115.25,65.65c.25-1.44.5-2.85.74-4.25a23,23,0,0,0-3.81-1.29c.37-2.12.69-4,1-5.55a10.31,10.31,0,0,0-2,1.26,9.85,9.85,0,0,0-3.61,5.55,18.06,18.06,0,0,0-.28,2.26h.14c0,.32-.11.64-.17,1,0,2.89,1,4.84,3.18,6.09.39-2.24.76-4.41,1.12-6.44A18.53,18.53,0,0,1,115.25,65.65Z"/><path class="cls-3" d="M116.14,88.09l-.61.23c-.36,2.08-.68,4-1,5.61,4.51-2.89,7.74-6.18,9.57-9.74-.75.47-1.53.93-2.35,1.37A41.39,41.39,0,0,1,116.14,88.09Z"/><path class="cls-3" d="M127.8,35.39c-1.85-.33-2.89,1.52-3.41,2.93a29.72,29.72,0,0,0,6.44-1.72A5.55,5.55,0,0,0,127.8,35.39Z"/><path class="cls-5" d="M103.77,21a2.08,2.08,0,0,0-1-1.46,2.1,2.1,0,0,0-1.4-.26c-3,.5-5.84,1-8.55,1.55C68.54,25.61,55.25,32.33,47.54,43.57c-.49.72-1,1.45-1.41,2.21a23.47,23.47,0,0,0,7.14,32.47,22,22,0,0,0,14,2.9A21.31,21.31,0,0,0,73,79.58l.89-.4c3.39-1.28,8.08-6,9.74-11.26a17.9,17.9,0,0,0,.1-10.3A15.37,15.37,0,0,0,77,49.42a7.17,7.17,0,1,0-7.32,12.34c.2.12.41.2.62.3A7.16,7.16,0,0,0,78.6,60.5c.2.24.41.5.63.81a6,6,0,0,1,.45,5.37,16.58,16.58,0,0,1-5.29,7.42,8.48,8.48,0,0,1-2.12,1.26,19.48,19.48,0,0,1-2.49,1A17.78,17.78,0,0,1,55.45,74.7a19.3,19.3,0,0,1-5.71-26.83c.26-.44.53-.87.8-1.29a34.63,34.63,0,0,1,9-9.3c7.72-5.54,18.91-9.49,35.31-12.65,2.3-.44,4.69-.87,7.2-1.29A2.08,2.08,0,0,0,103.77,21Z"/><path class="cls-5" d="M35.42,35.08A5.18,5.18,0,1,0,33.61,28,5.18,5.18,0,0,0,35.42,35.08Z"/><path class="cls-5" d="M34.6,46.64a5.16,5.16,0,0,0-1.44-6.82c-.13-.09-.24-.2-.38-.28a5.19,5.19,0,0,0-7.1,1.82,5.25,5.25,0,0,0,1.82,7.1A5.19,5.19,0,0,0,34.6,46.64Z"/><path class="cls-5" d="M73.57,0H67.76a10.77,10.77,0,0,1-5,2A15.28,15.28,0,0,1,58,1.85,12.14,12.14,0,0,1,53.85.21L53.53,0H47.12a25.5,25.5,0,0,0,2.82,2.56c.39.3.78.57,1.17.83A16.45,16.45,0,0,0,57.31,6,19.9,19.9,0,0,0,61,6.28a16.85,16.85,0,0,0,5-.76,14.67,14.67,0,0,0,4.56-2.4h0A15.83,15.83,0,0,0,73.57,0Z"/><path class="cls-5" d="M95.52,0H91.17C90.35,2,89,2,87.26,1.64a2.07,2.07,0,0,0-2.42,1.69,2.2,2.2,0,0,0,0,.89,2.13,2.13,0,0,0,.49.88,2.07,2.07,0,0,0,1.16.65,9.36,9.36,0,0,0,4-.07C93,5,94.71,3.11,95.52,0Z"/><path class="cls-5" d="M213.7,10.54a26.25,26.25,0,0,1,1.58,3.36l-7.6-1.32A11.13,11.13,0,0,0,200,4a2.08,2.08,0,0,0-2.55,1.44,2,2,0,0,0,.3,1.75,2.08,2.08,0,0,0,1.12.82h0a7.07,7.07,0,0,1,4.24,3.77l-.39-.07L195,10.38l-9-1.57c0-.07,0-.14.07-.21a17.75,17.75,0,0,1,1.75-4.3,12.23,12.23,0,0,1,3-3.55A11.38,11.38,0,0,1,191.94,0h-6.21a19.1,19.1,0,0,0-2.89,5.07,25,25,0,0,0-1,3l-3.61-.63-6.68-1.16c-.05,0-4.94-.93-4.43-3.83A7.33,7.33,0,0,1,168,0h-4.47c-.13.43-.26.88-.36,1.37,0,.13,0,.25-.07.38a6.36,6.36,0,0,0,.42,3.73,6.27,6.27,0,0,0,.48.88,1.88,1.88,0,0,0,.12.18c2.08,3,6.31,3.79,6.79,3.88l4,.7,4.66.81,1.67.29a14.13,14.13,0,0,0,1.92,7.83,14.28,14.28,0,0,0,1.16,1.72,15.36,15.36,0,0,0,3.74,3.37,12.35,12.35,0,0,0,4.36,1.77c.4.07.76.11,1.14.15a17.73,17.73,0,0,0,4.2.11c.38,0,.76-.09,1.12-.15a10,10,0,0,0,5.84-3.22c.12-.13.24-.26.35-.4a13.48,13.48,0,0,0,2.36-4.73c.08-.26.16-.53.22-.8s.12-.7.16-1l9.3,1.62A21.71,21.71,0,0,0,223,27.06a16.34,16.34,0,0,0,6.36,3.2l.33.1c2.26.63,6.14,1.31,8.92-.4a6.41,6.41,0,0,0,2.82-4.28,5.67,5.67,0,0,0-1-4.43c-2.24-3.16-7.44-4.28-9.53-4.6l-10.85-1.91-.24-.6a39.66,39.66,0,0,0-2.52-5.64A36.37,36.37,0,0,0,211.15,0h-6.83C208.47,2.24,211.62,6.73,213.7,10.54ZM193.14,22.8a8.82,8.82,0,0,1-3.49-1.61,11.08,11.08,0,0,1-2.07-2,10.17,10.17,0,0,1-2.19-6.25l15.1,2.62,3.21.56c0,.28-.08.58-.13.89a12.86,12.86,0,0,1-.7,2.07,6.16,6.16,0,0,1-4.05,3.7A12.78,12.78,0,0,1,193.14,22.8Zm37.11-2.05c2.67.42,5.81,1.48,6.82,2.91a1.51,1.51,0,0,1,.27,1.27.17.17,0,0,1,0,.07,1.92,1.92,0,0,1-.88,1.41c-1.1.67-3.35.62-5.95-.16a12.72,12.72,0,0,1-8.4-6.93Z"/><path class="cls-5" d="M199.91,42.45a17.9,17.9,0,0,0-10.3-.1,15.34,15.34,0,0,0-8.2,6.73,7.1,7.1,0,0,0-1,3,7.17,7.17,0,0,0,2.94,6.43,5.21,5.21,0,0,0,.55.36,7.16,7.16,0,0,0,8.3-.71,7,7,0,0,0,1.52-1.8,6.73,6.73,0,0,0,.71-1.72,7.16,7.16,0,0,0-2-7.16,8.87,8.87,0,0,1,.81-.63,6,6,0,0,1,5.37-.45c3.81,1.19,7.68,4.8,8.68,7.41a17.78,17.78,0,0,1-.66,16.82A19.36,19.36,0,0,1,198,78a18.7,18.7,0,0,1-3.4,1.08,19.28,19.28,0,0,1-14.7-2.72c-12.67-7.5-19.54-22.17-24.53-52.31a2.09,2.09,0,0,0-3.85-.73,2.1,2.1,0,0,0-.26,1.4c5.21,31.53,12.65,47,26.55,55.25a23.23,23.23,0,0,0,16.85,3.34c.27,0,.55-.09.82-.15a23.81,23.81,0,0,0,14.8-10.33,21.88,21.88,0,0,0,.93-20.65C209.89,48.8,205.22,44.11,199.91,42.45Z"/><path class="cls-5" d="M165.26,83.59a5.16,5.16,0,0,0-5.46.13,5,5,0,0,0-1.64,1.69,5.18,5.18,0,0,0,8.91,5.28,5.37,5.37,0,0,0,.41-.88A5.19,5.19,0,0,0,165.26,83.59Z"/><path class="cls-5" d="M178.63,91.51a5.17,5.17,0,0,0-6.25.77,5.5,5.5,0,0,0-.85,1,5.18,5.18,0,1,0,8.91,5.28,5.2,5.2,0,0,0-1.81-7.1Z"/><path class="cls-5" d="M128.91,31.36l-.38-.08a6.27,6.27,0,0,0-4.79,1c-2.54,1.78-3.51,5.11-3.79,6.35,0,.21-.08.37-.09.44l-.41,2.39c-.19,1.07-.43,2.46-.72,4.11-.2,1.17-.42,2.47-.67,3.87a14.76,14.76,0,0,0-4.11.42,14.06,14.06,0,0,0-4.58,2c-.31.21-.59.41-.86.62a14.45,14.45,0,0,0-5,7.44c0,.22-.12.44-.16.66a21.43,21.43,0,0,0-.34,4,11,11,0,0,0,2.8,7.71,11.4,11.4,0,0,0,3.78,2.61,16.51,16.51,0,0,0,2.8.95l.65.09.39.06c-.49,2.8-1,5.5-1.4,8l-.22,1.25a30.41,30.41,0,0,0-4.43,2.27,17.06,17.06,0,0,0-5.07,4.83,16.5,16.5,0,0,0-1.76,3.46c-.2.55-.39,1.11-.55,1.71a18.72,18.72,0,0,0-.73,3.75,9.79,9.79,0,0,0,.65,4.78,5,5,0,0,0,.38.72,6.08,6.08,0,0,0,3.28,2.54,6.42,6.42,0,0,0,1,.29,5.72,5.72,0,0,0,4.43-1c3.16-2.24,4.28-7.44,4.6-9.53.21-1.14.53-3,.93-5.24.29-1.65.61-3.53,1-5.61l.61-.23a41.39,41.39,0,0,0,5.64-2.53c.82-.44,1.6-.9,2.35-1.37,6.59-4.11,10.56-9.06,11.52-14.43.91-5.12-.07-9.7-2.83-13.26a17.53,17.53,0,0,0-7.57-5.41,23.45,23.45,0,0,0-3.07-1c.47-2.72.87-5,1.18-6.79.38-2.21.6-3.51.6-3.51a13.43,13.43,0,0,1,.43-1.49c.52-1.41,1.56-3.26,3.41-2.93a5.55,5.55,0,0,1,3,1.21c.82.81.74,1.91.51,3.21a2.08,2.08,0,1,0,4.1.73,8,8,0,0,0-.8-5.75C133.57,33.08,131.65,31.92,128.91,31.36ZM110.35,70.67c-2.13-1.25-3.15-3.2-3.18-6.09,0-.3,0-.62,0-.95a18.06,18.06,0,0,1,.28-2.26,9.85,9.85,0,0,1,3.61-5.55,10.2,10.2,0,0,1,6.25-2.2c-.42,2.44-.88,5.07-1.35,7.78-.24,1.4-.49,2.81-.74,4.25-.36,2.08-.72,4.19-1.09,6.28-.29,0-.58-.07-.89-.13A11,11,0,0,1,110.35,70.67Zm-3.73,34.63a1.52,1.52,0,0,1-1.27.28h-.07a2.31,2.31,0,0,1-.94-.39,1.66,1.66,0,0,1-.47-.5c-.67-1.1-.62-3.35.16-5.94a12.23,12.23,0,0,1,3-5.51A14.8,14.8,0,0,1,111,90.34l-.18,1c-.36,2-.67,3.8-.91,5.19-.14.76-.25,1.43-.35,1.94C109.11,101.15,108.05,104.29,106.62,105.3Zm22.91-46.24c2.05,2.63,2.72,6,2,10-.61,3.46-2.89,6.38-5.63,8.73a34.44,34.44,0,0,1-5,3.52c-.38.23-.76.45-1.14.65a26.25,26.25,0,0,1-3.36,1.58c.42-2.41.86-5,1.32-7.6a11.09,11.09,0,0,0,4-1.59,11.23,11.23,0,0,0,3.43-3.53,10.29,10.29,0,0,0,1.16-2.57,2.08,2.08,0,0,0-3.61-1.89,2.05,2.05,0,0,0-.4.76,7.24,7.24,0,0,1-2,3.09,6.63,6.63,0,0,1-1.79,1.18l.51-2.91c.28-1.63.56-3.25.84-4.84.57-3.29,1.12-6.48,1.63-9.38A14.68,14.68,0,0,1,129.53,59.06Z"/><path class="cls-6" d="M61.25,241.53a10.43,10.43,0,0,0-2.07-2l-3.47-.61A7.09,7.09,0,0,0,60,242.71a2.08,2.08,0,0,1-1.13,4,11.13,11.13,0,0,1-7.7-8.58l-1.14-.2a6.13,6.13,0,0,0-4,3.7,37.42,37.42,0,0,0,2.37,3.52l15.1,2.62A10.13,10.13,0,0,0,61.25,241.53Z"/><path class="cls-6" d="M192.17,250H204.1a11.62,11.62,0,0,0-3.31-1.15A12.65,12.65,0,0,0,192.17,250Z"/><path class="cls-6" d="M195.57,182.47a23.49,23.49,0,0,1,10.29,24.95,34.56,34.56,0,0,0,3.24-4.56A19.3,19.3,0,0,0,203.38,176a17.81,17.81,0,0,0-16.82-.66,13.06,13.06,0,0,0-5,4.21A22.08,22.08,0,0,1,195.57,182.47Z"/><path class="cls-6" d="M169.15,194.05a5.94,5.94,0,0,0,.46,5.36,6.35,6.35,0,0,0,.63.81,7.16,7.16,0,0,1,8.26-1.56,14.61,14.61,0,0,1-3.43-5.56,16.62,16.62,0,0,1-.63-6.47A16.53,16.53,0,0,0,169.15,194.05Z"/><path class="cls-6" d="M128.55,190.54a12.14,12.14,0,0,0,.75,1.12c.17.21.35.41.54.62l.51-2.92A6.69,6.69,0,0,0,128.55,190.54Z"/><path class="cls-6" d="M43.55,236.82c.07.17.15.33.22.5.11-.14.24-.27.36-.4Z"/><path class="cls-6" d="M45.71,248.93a6.33,6.33,0,0,0,.62,1.09H47c-.3-.33-.61-.67-.91-1Z"/><path class="cls-6" d="M69.27,248.79a15.8,15.8,0,0,0,3.57-6.88l-7.15-1.24a14.13,14.13,0,0,1,1.91,7.83Z"/><path class="cls-6" d="M38.75,236l-10.85-1.9c-.53-.09-1.25-.22-2.07-.42a21.81,21.81,0,0,1,5.91,8.61l9.3,1.62c0-.34.09-.68.15-1s.14-.53.22-.8A42.51,42.51,0,0,1,39,236.58C38.9,236.38,38.82,236.18,38.75,236Z"/><path class="cls-6" d="M33.55,246.82a28.91,28.91,0,0,0,1.5,3.2h6.63a11.76,11.76,0,0,1-.53-1.88Z"/><path class="cls-6" d="M132.46,177.21a27.07,27.07,0,0,0-3.37,1.58c-.37.2-.75.42-1.14.65a11.32,11.32,0,0,0-.66,2.26,15,15,0,0,0-.14,4.7,11,11,0,0,1,4-1.59C131.59,182.19,132,179.63,132.46,177.21Z"/><path class="cls-6" d="M117.29,191.7c-.71,4,0,7.33,2,10a14.68,14.68,0,0,0,8.07,4.84c.5-2.91,1.06-6.1,1.63-9.39a15.25,15.25,0,0,1-2.83-2.72,2.08,2.08,0,0,1-3.61-1.89,10.23,10.23,0,0,1,1.15-2.57,17.15,17.15,0,0,1-.78-7C120.18,185.31,117.91,188.23,117.29,191.7Z"/><path class="cls-6" d="M141.66,196.14c0,.32-.11.65-.17,1h.14C141.65,196.76,141.66,196.45,141.66,196.14Z"/><path class="cls-6" d="M143.48,155.14a1.52,1.52,0,0,0-1.27.28c-1.42,1-2.48,4.15-2.9,6.82-.09.52-.21,1.18-.34,1.94,1.2-.55,2.47-1.06,3.73-1.55l.6-.23c.46-2.62.86-5,1.2-6.86a2.24,2.24,0,0,0-.94-.38Z"/><path class="cls-6" d="M135.69,206.16c.27-1.56.6-3.43,1-5.54a24.14,24.14,0,0,1-3.82-1.3c-.47,2.72-.92,5.34-1.35,7.78A10.13,10.13,0,0,0,135.69,206.16Z"/><path class="cls-6" d="M143,188.4a11,11,0,0,1,2.8,7.71,10.28,10.28,0,0,0,5.56-6.76c1.08-6-.65-9.17-5.8-10.43l-.89-.13C144.11,182,143.55,185.26,143,188.4Z"/><path class="cls-6" d="M141.81,167.49a25.5,25.5,0,0,0-2.72,1.3l-1,.59c-.05.33-.11.66-.17,1A15.12,15.12,0,0,0,141.81,167.49Z"/><path class="cls-6" d="M136.79,176.65a11,11,0,0,1,4.35-1.84c.1-.57.19-1.13.29-1.69a30.31,30.31,0,0,1-4.42,2.27C136.93,175.8,136.86,176.23,136.79,176.65Z"/><path class="cls-6" d="M149.55,159.38a12.26,12.26,0,0,0,5.26-7.39c.77-2.6.82-4.85.15-6a1.87,1.87,0,0,0-1.4-.88l-.08,0a1.52,1.52,0,0,0-1.27.28c-1.42,1-2.48,4.15-2.9,6.82l-.42,2.35A9.82,9.82,0,0,1,149.55,159.38Z"/><path class="cls-6" d="M139.23,185.79c.37-2.12.74-4.28,1.12-6.43a7.06,7.06,0,0,0-3.78,4.28,2.07,2.07,0,0,1-.8,1.11l.65.1A15.72,15.72,0,0,1,139.23,185.79Z"/><path class="cls-6" d="M138.49,190.05a11.12,11.12,0,0,0-2.93-1.13l-.89-.13c-.36,2.1-.73,4.2-1.09,6.29a19.89,19.89,0,0,0,3.79,1.42C137.72,194.46,138.1,192.3,138.49,190.05Z"/><path class="cls-6" d="M56.43,233.82a12.31,12.31,0,0,1,4.35,1.77l12.66,2.19a10.13,10.13,0,0,0-2.19-6.25,9.86,9.86,0,0,0-5.56-3.61c-6-1.08-9.14.64-10.41,5.74C55.66,233.71,56,233.75,56.43,233.82Z"/><path class="cls-6" d="M28.58,230l8.15,1.43a12.67,12.67,0,0,0-8.4-6.93c-2.59-.77-4.85-.83-5.94-.16a2,2,0,0,0-.89,1.41s0,.05,0,.07a1.56,1.56,0,0,0,.27,1.28C22.78,228.49,25.92,229.55,28.58,230Z"/><path class="cls-6" d="M18.33,234.47c-2.59-.77-4.85-.83-5.94-.16a2,2,0,0,0-.89,1.41s0,.05,0,.07a1.56,1.56,0,0,0,.27,1.28c1,1.42,4.16,2.48,6.82,2.9l8.15,1.43A12.67,12.67,0,0,0,18.33,234.47Z"/><path class="cls-6" d="M130.1,215.13a7.36,7.36,0,0,0,.94.2c2.9.52,3.82-4.37,3.83-4.42v-.07a14.36,14.36,0,0,1-4.11.42C130.53,212.66,130.3,214,130.1,215.13Z"/><polygon class="cls-6" points="128.82 222.34 128.82 222.34 128.82 222.57 128.82 222.57 128.82 222.34"/><path class="cls-6" d="M91.44,249.35a11.12,11.12,0,0,0,.24-1.11c.52-2.9-4.38-3.82-4.42-3.83L77,242.62a21.53,21.53,0,0,1-3,7l2.4.42H91.18l.21-.58Z"/><path class="cls-6" d="M47.67,198.53a21.58,21.58,0,0,1-1.91-12.64,19.37,19.37,0,0,0-3.62,4.17,17.83,17.83,0,0,0-.65,16.83c1,2.6,4.87,6.21,8.68,7.41a6,6,0,0,0,5.37-.46c.31-.22.57-.43.81-.63a7.16,7.16,0,0,1-2-7.16C51.11,203.89,48.56,200.9,47.67,198.53Z"/><path class="cls-3" d="M178.5,198.66a7.16,7.16,0,0,0-8.26,1.56,6.35,6.35,0,0,1-.63-.81,5.94,5.94,0,0,1-.46-5.36,16.53,16.53,0,0,1,5.29-7.42,18.67,18.67,0,0,1,.74-3.83,15.24,15.24,0,0,1,.63-1.66l-.9.4c-3.38,1.28-8.07,6-9.73,11.26a17.91,17.91,0,0,0-.11,10.3,15.43,15.43,0,0,0,6.73,8.2A7.17,7.17,0,0,0,181.3,201,15.79,15.79,0,0,1,178.5,198.66Z"/><path class="cls-3" d="M205.86,207.42a23.49,23.49,0,0,0-10.29-24.95,22.08,22.08,0,0,0-14-2.9,14.86,14.86,0,0,0-2.43,4.48c0,.11-.06.22-.09.33A17.76,17.76,0,0,1,193.38,186a19.3,19.3,0,0,1,5.72,26.84c-.26.43-.53.86-.81,1.28A36.14,36.14,0,0,0,205.86,207.42Z"/><path class="cls-3" d="M201.29,217.15a58.81,58.81,0,0,1-12,6.29c-7.63,5.48-18.66,9.4-34.77,12.55a28.19,28.19,0,0,1,1.86,3.88C180.44,235,193.63,228.33,201.29,217.15Z"/><path class="cls-3" d="M213.41,225.64a5.18,5.18,0,1,0,1.82,7.1A5.18,5.18,0,0,0,213.41,225.64Z"/><path class="cls-3" d="M214.24,214.08a5.16,5.16,0,0,0,1.44,6.82,5.11,5.11,0,0,1,.63-3.45,5.18,5.18,0,0,1,7.1-1.81,3.37,3.37,0,0,1,.38.28,5.16,5.16,0,0,0-9.55-1.84Z"/><path class="cls-3" d="M73.66,250h2.67l-2.4-.42C73.84,249.74,73.76,249.89,73.66,250Z"/><path class="cls-3" d="M69.27,248.79l-1.67-.29a14.13,14.13,0,0,0-1.91-7.83l-6.51-1.13a10.43,10.43,0,0,1,2.07,2,10.13,10.13,0,0,1,2.19,6.25l-15.1-2.62a21.78,21.78,0,0,0,5,4.86H67.94L68,250A10.83,10.83,0,0,0,69.27,248.79Z"/><path class="cls-3" d="M55.28,233.66s0,0,0,.05c-.06.31-.1.61-.13.9l5.64,1a12.31,12.31,0,0,0-4.35-1.77C56,233.75,55.66,233.71,55.28,233.66Z"/><path class="cls-3" d="M33.55,246.82l7.6,1.32a11.76,11.76,0,0,0,.53,1.88h4.65a6.33,6.33,0,0,1-.62-1.09l.38.07a39.49,39.49,0,0,1-4.59-6.78l-.09-.17c-.08.27-.15.54-.22.8s-.11.7-.15,1l-9.3-1.62a21.81,21.81,0,0,0-5.91-8.61,14.83,14.83,0,0,1-6.7-3.29c-2.26-.64-6.13-1.32-8.92.39A6.41,6.41,0,0,0,7.39,235a5.7,5.7,0,0,0,1,4.44c2.24,3.15,7.44,4.27,9.53,4.6L28.75,246c.07.2.15.4.23.6.45,1.15.91,2.32,1.42,3.44h4.65A28.91,28.91,0,0,1,33.55,246.82Zm-15-6.85c-2.66-.42-5.8-1.48-6.82-2.9a1.56,1.56,0,0,1-.27-1.28s0,0,0-.07a2,2,0,0,1,.89-1.41c1.09-.67,3.35-.61,5.94.16a12.67,12.67,0,0,1,8.4,6.93Z"/><path class="cls-3" d="M51.09,233.55c-.39,0-.77.09-1.13.16l1.08.18C51.05,233.78,51.07,233.66,51.09,233.55Z"/><path class="cls-3" d="M50,237.94l-5.88-1c-.12.13-.25.26-.36.4a24.55,24.55,0,0,0,1.37,2.86c.25.48.54,1,.83,1.46A6.13,6.13,0,0,1,50,237.94Z"/><path class="cls-3" d="M50.87,182.71a20.7,20.7,0,0,1,3.4-1.08A19.3,19.3,0,0,1,69,184.35c12.66,7.5,19.54,22.17,24.52,52.31a2.08,2.08,0,0,0,2.4,1.72A2.07,2.07,0,0,0,97.61,236C92.4,204.46,85,189,71.07,180.74a23.34,23.34,0,0,0-16.85-3.34,19.38,19.38,0,0,0-2.08,2.66A18.38,18.38,0,0,0,50.87,182.71Z"/><path class="cls-3" d="M65.54,203.84c.31-.22.57-.43.81-.63a6.21,6.21,0,0,1-.89-1c-.18-.12-.36-.25-.55-.36a7.17,7.17,0,0,0-8.3.71,14.08,14.08,0,0,0,3.56,1.77A6,6,0,0,0,65.54,203.84Z"/><path class="cls-3" d="M48.93,218.27a17.9,17.9,0,0,0,10.3.1,15.38,15.38,0,0,0,8.19-6.72,7.14,7.14,0,0,0,1-3,18.41,18.41,0,0,1-9.46-.34,17.84,17.84,0,0,1-4.56-2.22,7.16,7.16,0,0,0,2,7.16c-.24.2-.5.41-.81.63a6,6,0,0,1-5.37.46c-3.81-1.2-7.69-4.81-8.68-7.41a17.83,17.83,0,0,1,.65-16.83,19.37,19.37,0,0,1,3.62-4.17,21.91,21.91,0,0,1,1.92-6.26,23.42,23.42,0,0,0-9.08,8.25,21.86,21.86,0,0,0-.93,20.65C38.94,211.92,43.62,216.61,48.93,218.27Z"/><path class="cls-3" d="M89,177a5.1,5.1,0,0,0,1.65-1.68A5.19,5.19,0,0,0,81.76,170a5.46,5.46,0,0,0-.41.89A37.8,37.8,0,0,1,89,177Z"/><path class="cls-3" d="M77.3,167.39a5.18,5.18,0,1,0-9.11-.37,23.06,23.06,0,0,1,8.26,1.43A4.89,4.89,0,0,0,77.3,167.39Z"/><path class="cls-3" d="M135.56,188.92a11.12,11.12,0,0,1,2.93,1.13l.74-4.26a15.72,15.72,0,0,0-2.81-.94l-.65-.1a2.08,2.08,0,0,1-3.21-2.25,11.18,11.18,0,0,1,4.23-5.85c.07-.42.14-.85.22-1.26a30.31,30.31,0,0,0,4.42-2.27c.35-2,.7-4,1-5.91l-.65.28a15.12,15.12,0,0,1-3.93,2.89c.06-.34.12-.67.17-1-4,2.28-8.32,5.66-10.1,10.06.39-.23.77-.45,1.14-.65a27.07,27.07,0,0,1,3.37-1.58c-.42,2.42-.87,5-1.32,7.6a11,11,0,0,0-4,1.59,10.76,10.76,0,0,0,1.4,4.14,6.69,6.69,0,0,1,1.8-1.18l-.51,2.92a13,13,0,0,0,3.74,2.8c.36-2.09.73-4.19,1.09-6.29Z"/><path class="cls-3" d="M148.89,154.59c-.27,1.56-.61,3.52-1,5.79a17.55,17.55,0,0,0,1.67-1A9.82,9.82,0,0,0,148.89,154.59Z"/><path class="cls-3" d="M125.81,208.5a2.06,2.06,0,0,1,1.69,2.41c-.35,2-.38,3.47,2.6,4.22.2-1.17.43-2.47.67-3.87a14.36,14.36,0,0,0,4.11-.42c.06-.34.36-2,.81-4.68a10.13,10.13,0,0,1-4.2.94c.43-2.44.88-5.06,1.35-7.78a19.15,19.15,0,0,1-3.84-2.21c-.57,3.29-1.13,6.48-1.63,9.39a14.68,14.68,0,0,1-8.07-4.84c-2-2.63-2.72-6-2-10,.62-3.47,2.89-6.39,5.64-8.74,0-.66.14-1.32.26-2a16,16,0,0,1,1.51-4.43c-6.59,4.11-10.55,9.06-11.51,14.43-.92,5.12.06,9.71,2.83,13.26a17.5,17.5,0,0,0,7.56,5.41A2.07,2.07,0,0,1,125.81,208.5Z"/><path class="cls-3" d="M128.82,221.07h.25l.32-1.84a9.43,9.43,0,0,1-3.91-1.84c-.39,2.21-.61,3.51-.61,3.51l-.1.45a28.71,28.71,0,0,1,4-.29Z"/><path class="cls-3" d="M141.66,196.14c0,.31,0,.62,0,1a10.13,10.13,0,0,0,4.17-1,11,11,0,0,0-2.8-7.71C142.54,191.09,142.08,193.7,141.66,196.14Z"/><path class="cls-3" d="M139,164.18c.13-.76.25-1.42.34-1.94.42-2.67,1.48-5.81,2.9-6.82a1.52,1.52,0,0,1,1.27-.28l.08,0a2.24,2.24,0,0,1,.94.38c.3-1.69.54-3.06.7-4,0-.07,0-.15,0-.22a7.08,7.08,0,0,0-1-.28,5.69,5.69,0,0,0-4.44,1c-3.16,2.24-4.27,7.44-4.6,9.53l-.92,5.25c.88-.57,1.8-1.11,2.77-1.64C137.66,164.81,138.3,164.49,139,164.18Z"/><path class="cls-3" d="M146.5,168.29a16.28,16.28,0,0,0,1.77-3.46l-1.26.56C146.84,166.33,146.67,167.3,146.5,168.29Z"/><path class="cls-3" d="M117.5,220.91a2.09,2.09,0,0,0-4.11-.73,8.51,8.51,0,0,0,.41,5,30.21,30.21,0,0,1,3.69-1.84A4.75,4.75,0,0,1,117.5,220.91Z"/><path class="cls-3" d="M139.46,208.8a10,10,0,0,0,.86-.62,14.33,14.33,0,0,0,5-7.44,14.55,14.55,0,0,1-4.53.52C140.23,204.37,139.78,207,139.46,208.8Z"/><path class="cls-3" d="M124,195.06a2.07,2.07,0,0,0,2.18-.67c0-.06-.11-.11-.15-.17a14.72,14.72,0,0,1-2.31-4.29,10.23,10.23,0,0,0-1.15,2.57A2.08,2.08,0,0,0,124,195.06Z"/><polygon class="cls-3" points="128.82 221.07 128.82 221.07 128.82 222.34 128.82 222.34 128.82 221.07"/><path class="cls-3" d="M91.39,249.44l-.21.58h0c.08-.2.15-.43.22-.67Z"/><path class="cls-3" d="M95.78,249c0,.13,0,.26-.07.38s-.1.45-.16.67h3.63a29.65,29.65,0,0,1,2.21-10.58,31,31,0,0,1,2-4.07,29.51,29.51,0,0,0-9,8.43c.1.12.21.25.3.38A6.28,6.28,0,0,1,95.78,249Z"/><path class="cls-5" d="M212.71,204.94a23.47,23.47,0,0,0-7.14-32.47,21.9,21.9,0,0,0-20.66-.93c-3,1.15-7.09,5-9.1,9.6a15.24,15.24,0,0,0-.63,1.66,18.67,18.67,0,0,0-.74,3.83,16.62,16.62,0,0,0,.63,6.47,14.61,14.61,0,0,0,3.43,5.56,15.79,15.79,0,0,0,2.8,2.32l.5.32a7.17,7.17,0,1,0-1.56-11.08,6.35,6.35,0,0,1-.63-.81,5.83,5.83,0,0,1-.55-5c0-.11.05-.22.09-.33a14.86,14.86,0,0,1,2.43-4.48,13.06,13.06,0,0,1,5-4.21,17.81,17.81,0,0,1,16.82.66,19.3,19.3,0,0,1,5.72,26.84,34.56,34.56,0,0,1-3.24,4.56,36.14,36.14,0,0,1-7.57,6.72c-8.8,5.94-21.87,10-41.51,13.24a2.08,2.08,0,1,0,.68,4.11c13.22-2.19,23.61-4.76,31.83-8.05a58.81,58.81,0,0,0,12-6.29A38.62,38.62,0,0,0,212.71,204.94Z"/><path class="cls-5" d="M216.31,217.45a5.25,5.25,0,0,0,1.82,7.1,5.16,5.16,0,0,0,5.66-8.63,3.37,3.37,0,0,0-.38-.28A5.18,5.18,0,0,0,216.31,217.45Z"/><path class="cls-5" d="M226.05,211.18a5.18,5.18,0,1,0-1.81-7.1A5.18,5.18,0,0,0,226.05,211.18Z"/><path class="cls-5" d="M171.58,249.08a2.08,2.08,0,0,0,.73-4.1c-4.46-.8-7.46,1-8.79,5H168C168.86,248.73,170.09,248.82,171.58,249.08Z"/><path class="cls-5" d="M200.79,248.87A11.62,11.62,0,0,1,204.1,250H211a18.26,18.26,0,0,0-9.5-5.25c-5.13-.91-9.71.07-13.26,2.83a15.5,15.5,0,0,0-2.44,2.42h6.34A12.65,12.65,0,0,1,200.79,248.87Z"/><path class="cls-5" d="M25.83,233.66c.82.2,1.54.33,2.07.42L38.75,236c.07.2.15.4.23.6a42.51,42.51,0,0,0,2.43,5.47l.09.17A39.49,39.49,0,0,0,46.09,249c.3.35.61.69.91,1h6.35a21.78,21.78,0,0,1-5-4.86A37.42,37.42,0,0,1,46,241.64c-.29-.49-.58-1-.83-1.46a24.55,24.55,0,0,1-1.37-2.86c-.07-.17-.15-.33-.22-.5l.58.1,5.88,1,1.14.2a11.13,11.13,0,0,0,7.7,8.58,2.08,2.08,0,0,0,1.13-4,7.09,7.09,0,0,1-4.27-3.78l3.47.61,6.51,1.13,7.15,1.24a15.8,15.8,0,0,1-3.57,6.88A10.83,10.83,0,0,1,68,250l-.06.05h5.72c.1-.13.18-.28.27-.42a21.53,21.53,0,0,0,3-7l10.3,1.79s4.94.93,4.42,3.83a11.12,11.12,0,0,1-.24,1.11c-.07.24-.14.47-.22.67h4.33c.06-.22.11-.44.16-.67s.05-.25.07-.38a6.28,6.28,0,0,0-1-4.79c-.09-.13-.2-.26-.3-.38-2.16-2.66-6-3.42-6.49-3.5L77.6,238.5A14.18,14.18,0,0,0,74.52,229a14,14,0,0,0-8.09-5.14c-10.32-1.85-14,3.82-15.24,9,0,.24-.07.47-.1.7s0,.23-.05.34L50,233.71l-8.22-1.44c-2.06-4.82-5.1-9.9-12.28-11.81-2.2-.66-6.32-1.49-9.25.3A6.41,6.41,0,0,0,17.39,225a5.7,5.7,0,0,0,1,4.44,7,7,0,0,0,.76.89A14.83,14.83,0,0,0,25.83,233.66Zm39.86-5.74a9.86,9.86,0,0,1,5.56,3.61,10.13,10.13,0,0,1,2.19,6.25l-12.66-2.19-5.64-1c0-.29.07-.59.13-.9,0,0,0,0,0-.05C56.55,228.56,59.66,226.84,65.69,227.92Zm-44.2-2.13s0,0,0-.07a2,2,0,0,1,.89-1.41c1.09-.67,3.35-.61,5.94.16a12.67,12.67,0,0,1,8.4,6.93L28.58,230c-2.66-.42-5.8-1.48-6.82-2.9A1.56,1.56,0,0,1,21.49,225.79Z"/><path class="cls-5" d="M47.67,198.53c.89,2.37,3.44,5.36,6.7,7.52a17.84,17.84,0,0,0,4.56,2.22,18.41,18.41,0,0,0,9.46.34q.44-.11.84-.24a15.38,15.38,0,0,0,8.19-6.72,7.17,7.17,0,1,0-12,.53,6.21,6.21,0,0,0,.89,1c-.24.2-.5.41-.81.63a6,6,0,0,1-5.37.46,15.69,15.69,0,0,1-8.68-7.41,17.87,17.87,0,0,1-.62-14.18,18.38,18.38,0,0,1,1.27-2.65,19.38,19.38,0,0,1,2.08-2.66,19.06,19.06,0,0,1,10-5.77A19.3,19.3,0,0,1,79,174.35c12.66,7.5,19.54,22.17,24.53,52.31a2.08,2.08,0,0,0,3.84.73,2,2,0,0,0,.26-1.4C103.5,201.11,98,186.23,89,177a37.8,37.8,0,0,0-7.68-6.08l-.28-.18a23.94,23.94,0,0,0-4.62-2.29,23.4,23.4,0,0,0-13.06-.89A23.31,23.31,0,0,0,48.6,177.88c-.34.57-.64,1.16-.92,1.75a21.91,21.91,0,0,0-1.92,6.26A21.58,21.58,0,0,0,47.67,198.53Z"/><path class="cls-5" d="M93.58,167.13a5.18,5.18,0,1,0-1.82-7.1A5.18,5.18,0,0,0,93.58,167.13Z"/><path class="cls-5" d="M80.21,159.21a5.18,5.18,0,1,0-1.82-7.1A5.17,5.17,0,0,0,80.21,159.21Z"/><path class="cls-5" d="M129.93,219.36l.37.08a6.25,6.25,0,0,0,4.8-1c3-2.08,3.79-6.31,3.88-6.79,0,0,.17-1,.48-2.83s.77-4.43,1.31-7.54a14.55,14.55,0,0,0,4.53-.52,14.37,14.37,0,0,0,5-2.56,14,14,0,0,0,5.14-8.1c1.84-10.32-3.83-14-9-15.23-.35-.06-.69-.12-1-.16.39-2.2.76-4.34,1.12-6.4.17-1,.34-2,.51-2.9l1.26-.56c4.42-2.06,8.81-5.16,10.55-11.71.65-2.2,1.49-6.33-.3-9.25a6.41,6.41,0,0,0-4.28-2.82,5.69,5.69,0,0,0-4.44,1c-3.05,2.17-4.2,7.1-4.56,9.31,0,.07,0,.15,0,.22-.16.93-.4,2.3-.7,4-.34,1.91-.74,4.24-1.2,6.86l-.6.23c-1.26.49-2.53,1-3.73,1.55-.67.31-1.31.63-1.92,1-1,.53-1.89,1.07-2.77,1.64-4.52,2.88-7.75,6.18-9.58,9.73a16,16,0,0,0-1.51,4.43c-.12.68-.21,1.34-.26,2a17.15,17.15,0,0,0,.78,7,14.72,14.72,0,0,0,2.31,4.29c0,.06.1.11.15.17a15.25,15.25,0,0,0,2.83,2.72,19.15,19.15,0,0,0,3.84,2.21,24.14,24.14,0,0,0,3.82,1.3c-.37,2.11-.7,4-1,5.54-.45,2.64-.75,4.34-.81,4.68v.07c0,.05-.93,4.94-3.83,4.42a7.36,7.36,0,0,1-.94-.2c-3-.75-2.95-2.26-2.6-4.22a2.08,2.08,0,0,0-3.92-1.28,2.76,2.76,0,0,0-.19.55c-.56,3.17.16,5.6,2.09,7.22a9.43,9.43,0,0,0,3.91,1.84C129.57,219.28,129.74,219.33,129.93,219.36Zm15.63-40.44c5.15,1.26,6.88,4.38,5.8,10.43a10.28,10.28,0,0,1-5.56,6.76,10.13,10.13,0,0,1-4.17,1h-.14c.06-.31.12-.64.17-1,.42-2.44.88-5,1.34-7.74.55-3.14,1.11-6.39,1.67-9.61Zm6.65-33.5a1.52,1.52,0,0,1,1.27-.28l.08,0a1.87,1.87,0,0,1,1.4.88c.67,1.1.62,3.35-.15,6a12.26,12.26,0,0,1-5.26,7.39,17.55,17.55,0,0,1-1.67,1c.4-2.27.74-4.23,1-5.79l.42-2.35C149.73,149.57,150.79,146.43,152.21,145.42Zm-18.63,49.66a13,13,0,0,1-3.74-2.8c-.19-.21-.37-.41-.54-.62a12.14,12.14,0,0,1-.75-1.12,10.76,10.76,0,0,1-1.4-4.14,15,15,0,0,1,.14-4.7,11.32,11.32,0,0,1,.66-2.26c1.78-4.4,6.15-7.78,10.1-10.06l1-.59a25.5,25.5,0,0,1,2.72-1.3l.65-.28c-.33,1.89-.68,3.88-1,5.91-.1.56-.19,1.12-.29,1.69a11,11,0,0,0-4.35,1.84,11.18,11.18,0,0,0-4.23,5.85,2.08,2.08,0,0,0,4,1.14,7.06,7.06,0,0,1,3.78-4.28c-.38,2.15-.75,4.31-1.12,6.43l-.74,4.26c-.39,2.25-.77,4.41-1.12,6.45A19.89,19.89,0,0,1,133.58,195.08Z"/><path class="cls-3" d="M138.94,226.08a26.36,26.36,0,0,0-10.12-2v-1.5h0v1.5a26.65,26.65,0,0,0-26.64,26H117.9a10.95,10.95,0,0,1,21.86,0h15.67A26.67,26.67,0,0,0,138.94,226.08Z"/><path class="cls-4" d="M128.82,222.34v1.73a26.36,26.36,0,0,1,10.12,2A26.67,26.67,0,0,1,155.43,250h3a29.44,29.44,0,0,0-2.06-10.15,28.19,28.19,0,0,0-1.86-3.88,29.58,29.58,0,0,0-25.45-14.91h-.25Z"/><path class="cls-4" d="M99.18,250h3a26.65,26.65,0,0,1,26.64-26v-3h0a28.71,28.71,0,0,0-4,.29,29.67,29.67,0,0,0-11,3.82,29.37,29.37,0,0,0-10.36,10.19,31,31,0,0,0-2,4.07A29.65,29.65,0,0,0,99.18,250Z"/><path class="cls-5" d="M128.83,239.71A11,11,0,0,0,117.9,250h21.86A11,11,0,0,0,128.83,239.71Z"/></g></g></svg>