<svg xmlns="http://www.w3.org/2000/svg" viewBox="0 0 250 250"><defs><style>.cls-1{fill:#15253e;}.cls-2{fill:#fcd468;}.cls-3{fill:#da4970;}.cls-4{fill:#233568;}.cls-5{fill:none;stroke:#da4970;stroke-linecap:round;stroke-linejoin:round;stroke-width:12px;stroke-dasharray:0.48 23.8 0.48 23.8 0.48 23.8;}.cls-6{fill:#e61b48;}</style></defs><g id="Ebene_2" data-name="Ebene 2"><g id="Images"><rect class="cls-1" width="250" height="250"/><path class="cls-2" d="M173.15,74.47a13.86,13.86,0,0,0-13.06-.59c-2.14.81-5.1,3.76-6.15,7.12a11.33,11.33,0,0,0-.07,6.52,9.71,9.71,0,0,0,4.25,5.18,4.54,4.54,0,1,0-1-7,6.35,6.35,0,0,1-.4-.52,3.73,3.73,0,0,1-.29-3.39,9.77,9.77,0,0,1,4.69-5.49,11.25,11.25,0,0,1,10.63.41,12.2,12.2,0,0,1,3.62,17c-4.75,8-14,12.36-33.09,15.51a1.32,1.32,0,0,0-1.08,1.52,1.28,1.28,0,0,0,.63.92,1.26,1.26,0,0,0,.88.16c19.94-3.29,29.73-8,34.94-16.79a14.84,14.84,0,0,0-4.52-20.53Z"/><path class="cls-2" d="M184.44,101.77a3.28,3.28,0,1,0,1.15,4.49A3.28,3.28,0,0,0,184.44,101.77Z"/><path class="cls-2" d="M186.11,99A3.28,3.28,0,1,0,185,94.46,3.28,3.28,0,0,0,186.11,99Z"/><path class="cls-2" d="M174.47,134.89q.06-.34.09-.66l5.89,1c1.3,3.05,3.22,6.27,7.76,7.47,1.39.42,4,.95,5.85-.19a4,4,0,0,0,1.78-2.7,3.59,3.59,0,0,0-.61-2.81c-1.42-2-4.71-2.7-6-2.91l-6.86-1.2-.15-.38a25.25,25.25,0,0,0-1.6-3.57c-2.75-5.06-6.2-8.09-10-8.77a10.29,10.29,0,0,0-8.38,1.79,11.94,11.94,0,0,0-4.05,6.73l-6.51-1.13s-3.12-.59-2.8-2.42c.42-2.49,1.44-2.48,2.8-2.24a1.32,1.32,0,0,0,.46-2.6c-3.14-.56-5.14.87-5.81,4.13,0,.08,0,.16,0,.24a3.92,3.92,0,0,0,.64,3,7.21,7.21,0,0,0,4.3,2.46l6.56,1.13a9.12,9.12,0,0,0,7.06,9.29C171.36,141.77,173.66,138.18,174.47,134.89Zm-10.63-10.83a7.63,7.63,0,0,1,6.3-1.27c3.75.66,6.5,4.41,8.16,7.46a16.22,16.22,0,0,1,1,2.13l-4.81-.84a7,7,0,0,0-4.87-5.42,1.31,1.31,0,0,0-.71,2.53,4.49,4.49,0,0,1,2.7,2.39l-10.83-1.88A9.21,9.21,0,0,1,163.84,124.06Zm24.92,12.65c1.69.26,3.68.93,4.32,1.84a1,1,0,0,1,.17.8v.05a1.2,1.2,0,0,1-.56.89,5.31,5.31,0,0,1-3.76-.1,8.08,8.08,0,0,1-5.31-4.38Zm-27-1a6.42,6.42,0,0,1-1.38-3.95l11.57,2c0,.18,0,.37-.08.56-.79,3.25-2.77,4.35-6.59,3.67A6.28,6.28,0,0,1,161.78,135.72Z"/><path class="cls-2" d="M177.67,168.79a13.83,13.83,0,0,0,.58-13.06c-.81-2.14-3.76-5.11-7.12-6.16a11.38,11.38,0,0,0-6.51-.07,9.83,9.83,0,0,0-5.19,4.26,4.54,4.54,0,1,0,7-1,6.08,6.08,0,0,1,.51-.4,3.82,3.82,0,0,1,3.4-.29,9.77,9.77,0,0,1,5.49,4.69,11.27,11.27,0,0,1-.42,10.64,12.21,12.21,0,0,1-17,3.61c-8-4.74-12.36-14-15.51-33.08a1.32,1.32,0,0,0-1.51-1.09,1.34,1.34,0,0,0-.92.63,1.3,1.3,0,0,0-.17.89c3.3,19.93,8,29.72,16.79,34.93a14.83,14.83,0,0,0,20.54-4.51Z"/><path class="cls-2" d="M150.37,180.07a3.28,3.28,0,1,0-4.49,1.15A3.28,3.28,0,0,0,150.37,180.07Z"/><path class="cls-2" d="M153.19,181.74a3.28,3.28,0,1,0,4.49-1.14A3.27,3.27,0,0,0,153.19,181.74Z"/><path class="cls-2" d="M114.13,174l.66.1-1,5.88c-3.05,1.3-6.26,3.22-7.47,7.76-.41,1.39-.94,4,.19,5.85a4.1,4.1,0,0,0,2.71,1.79,3.64,3.64,0,0,0,2.81-.62c2-1.42,2.7-4.71,2.91-6s.65-3.73,1.2-6.86l.38-.15a25.22,25.22,0,0,0,3.57-1.59c5.06-2.75,8.09-6.21,8.77-10a10.33,10.33,0,0,0-1.79-8.38,12,12,0,0,0-6.73-4.05c.67-3.88,1.13-6.51,1.13-6.51s.59-3.12,2.42-2.79c2.49.42,2.48,1.43,2.24,2.79a1.32,1.32,0,0,0,2.6.46c.56-3.14-.87-5.14-4.13-5.8l-.24,0a4,4,0,0,0-3,.64,7.24,7.24,0,0,0-2.45,4.3s-.45,2.65-1.13,6.56a9,9,0,0,0-6,1.95,8.85,8.85,0,0,0-3.25,5.12C107.25,170.92,110.84,173.23,114.13,174ZM125,163.4a7.67,7.67,0,0,1,1.27,6.3c-.67,3.75-4.41,6.5-7.46,8.16a16.85,16.85,0,0,1-2.13,1c.27-1.53.55-3.15.83-4.81a7,7,0,0,0,5.43-4.86,1.32,1.32,0,0,0-2.53-.72,4.47,4.47,0,0,1-2.39,2.7c.65-3.76,1.31-7.57,1.88-10.83A9.21,9.21,0,0,1,125,163.4Zm-12.65,24.93c-.27,1.68-.94,3.67-1.84,4.31a1,1,0,0,1-.8.17h0a1.26,1.26,0,0,1-.89-.56,5.31,5.31,0,0,1,.1-3.76,8,8,0,0,1,4.38-5.31C112.81,185.49,112.49,187.31,112.31,188.33Zm1-27a6.42,6.42,0,0,1,4-1.38c-.61,3.48-1.31,7.57-2,11.57-.18,0-.37,0-.56-.08-3.26-.79-4.35-2.76-3.67-6.59A6.28,6.28,0,0,1,113.3,161.34Z"/><path class="cls-2" d="M76.42,174.1a13.86,13.86,0,0,0,13.06.59c2.14-.81,5.11-3.77,6.16-7.13a11.38,11.38,0,0,0,.07-6.51,9.77,9.77,0,0,0-4.26-5.18,4.53,4.53,0,1,0,1,7,6.35,6.35,0,0,1,.4.52,3.8,3.8,0,0,1,.29,3.39,9.77,9.77,0,0,1-4.69,5.49,11.27,11.27,0,0,1-10.64-.42,12.21,12.21,0,0,1-3.61-17c4.74-8,14-12.35,33.08-15.51a1.31,1.31,0,0,0,1.09-1.51,1.34,1.34,0,0,0-.63-.92,1.36,1.36,0,0,0-.89-.17c-19.93,3.3-29.72,8-34.93,16.79a14.83,14.83,0,0,0,4.51,20.54Z"/><path class="cls-2" d="M65.14,146.8A3.28,3.28,0,1,0,64,142.31,3.27,3.27,0,0,0,65.14,146.8Z"/><path class="cls-2" d="M63.47,149.62a3.28,3.28,0,1,0,1.14,4.49A3.28,3.28,0,0,0,63.47,149.62Z"/><path class="cls-2" d="M75.53,112.65c0,.23-.07.45-.1.66l-5.88-1c-1.3-3.05-3.22-6.27-7.76-7.47-1.39-.42-4-.95-5.85.19a4.06,4.06,0,0,0-1.79,2.7,3.64,3.64,0,0,0,.62,2.81c1.42,2,4.71,2.7,6,2.91l6.86,1.2.15.38a26.41,26.41,0,0,0,1.59,3.57c2.75,5.06,6.21,8.09,10,8.77a10.3,10.3,0,0,0,8.38-1.79,12,12,0,0,0,4-6.73L98.34,120s3.12.59,2.79,2.42c-.42,2.49-1.43,2.48-2.79,2.24a1.32,1.32,0,1,0-.46,2.6c3.14.56,5.14-.87,5.8-4.13,0-.08,0-.16,0-.24a4,4,0,0,0-.64-3,7.12,7.12,0,0,0-4.3-2.45l-6.56-1.14a9.05,9.05,0,0,0-1.94-6,9,9,0,0,0-5.13-3.25C78.64,105.77,76.33,109.36,75.53,112.65Zm10.63,10.83a7.63,7.63,0,0,1-6.3,1.27c-3.75-.66-6.5-4.41-8.16-7.46a16.22,16.22,0,0,1-1-2.13l4.81.84a7,7,0,0,0,4.86,5.42,1.32,1.32,0,0,0,.72-2.53,4.44,4.44,0,0,1-2.7-2.39l10.83,1.88A9.21,9.21,0,0,1,86.16,123.48ZM61.23,110.83c-1.68-.26-3.67-.93-4.31-1.84a1,1,0,0,1-.17-.8v0a1.26,1.26,0,0,1,.56-.89,5.31,5.31,0,0,1,3.76.1,8,8,0,0,1,5.31,4.38Zm27,1a6.42,6.42,0,0,1,1.38,4l-11.57-2c0-.18,0-.37.08-.56.79-3.25,2.76-4.35,6.59-3.67A6.28,6.28,0,0,1,88.22,111.82Z"/><path class="cls-2" d="M73.89,77.89A13.83,13.83,0,0,0,73.3,91c.81,2.14,3.76,5.11,7.12,6.16a11.29,11.29,0,0,0,6.51.06,9.73,9.73,0,0,0,5.19-4.25,4.54,4.54,0,1,0-7,1,6.08,6.08,0,0,1-.51.4,3.77,3.77,0,0,1-3.39.28,9.72,9.72,0,0,1-5.49-4.68,11.27,11.27,0,0,1,.41-10.64,12.21,12.21,0,0,1,17-3.61c8,4.74,12.36,14,15.51,33.08a1.31,1.31,0,0,0,2.43.46,1.3,1.3,0,0,0,.17-.89c-3.3-19.93-8-29.72-16.79-34.94a14.83,14.83,0,0,0-20.53,4.52Z"/><path class="cls-2" d="M101.19,66.6a3.28,3.28,0,1,0,4.49-1.14A3.27,3.27,0,0,0,101.19,66.6Z"/><path class="cls-2" d="M98.37,64.93a3.28,3.28,0,1,0-4.49,1.15A3.28,3.28,0,0,0,98.37,64.93Z"/><path class="cls-2" d="M135.75,76l-.65-.1c.35-2.06.7-4.05,1-5.88,3-1.3,6.27-3.22,7.47-7.76.42-1.39.94-4-.19-5.85a4,4,0,0,0-2.7-1.78,3.59,3.59,0,0,0-2.81.61c-2,1.42-2.7,4.71-2.91,6s-.66,3.73-1.2,6.86l-.38.15a26.41,26.41,0,0,0-3.57,1.59c-5.06,2.76-8.1,6.21-8.77,10a10.29,10.29,0,0,0,1.79,8.38,11.94,11.94,0,0,0,6.73,4c-.68,3.88-1.13,6.51-1.13,6.51s-.59,3.12-2.43,2.8c-2.48-.43-2.48-1.44-2.24-2.8a1.3,1.3,0,0,0-1.06-1.53,1.32,1.32,0,0,0-1.53,1.07c-.56,3.14.87,5.14,4.13,5.8l.24,0a4,4,0,0,0,3-.64,7.18,7.18,0,0,0,2.45-4.3l1.14-6.56a9.12,9.12,0,0,0,9.29-7.06C142.63,79.08,139.05,76.78,135.75,76ZM124.93,86.6a7.64,7.64,0,0,1-1.28-6.3c.67-3.75,4.42-6.5,7.47-8.16a15.64,15.64,0,0,1,2.13-1c-.27,1.53-.55,3.15-.84,4.81A7,7,0,0,0,127,80.81a1.32,1.32,0,0,0,2.54.72,4.44,4.44,0,0,1,2.39-2.7c-.66,3.77-1.32,7.57-1.88,10.83A9.21,9.21,0,0,1,124.93,86.6Zm12.65-24.93c.26-1.68.93-3.67,1.83-4.31a1,1,0,0,1,.81-.17h0a1.16,1.16,0,0,1,.89.56c.43.69.39,2.11-.09,3.76a8.06,8.06,0,0,1-4.39,5.31Zm-1,27a6.42,6.42,0,0,1-4,1.38c.6-3.48,1.31-7.57,2-11.57.18,0,.36,0,.56.08,3.25.79,4.35,2.76,3.66,6.59A6.25,6.25,0,0,1,136.59,88.66Z"/><path class="cls-2" d="M124.61,141.83a17.06,17.06,0,0,1-6.56-1.3,17.23,17.23,0,1,1,6.56,1.3Z"/><path class="cls-3" d="M124.62,108.83h0a15.76,15.76,0,1,1-14.57,9.77,15.64,15.64,0,0,1,14.57-9.77m0-3a18.77,18.77,0,1,0,7.12,1.42,18.75,18.75,0,0,0-7.12-1.42Z"/><circle class="cls-4" cx="124.63" cy="124.56" r="6.93"/><circle class="cls-5" cx="124.76" cy="124.36" r="104.31"/><path class="cls-6" d="M211.77,22.58a9.44,9.44,0,1,0,14.48-12.13l-.46-.55a9.44,9.44,0,0,0-16.64,5.24A9.33,9.33,0,0,0,211.31,22Zm-.63-7.27a7.45,7.45,0,0,1,13.12-4.12l.45.54a7.44,7.44,0,1,1-11.4,9.56l-.46-.55A7.34,7.34,0,0,1,211.14,15.31Z"/><path class="cls-6" d="M225.45,226.46a9.44,9.44,0,0,0-13.31,1.1l-.51.6a9.44,9.44,0,0,0,14.5,12.1l.41-.49A9.45,9.45,0,0,0,225.45,226.46Zm-.43,12-.42.5a7.44,7.44,0,0,1-11.43-9.54l.5-.59a7.39,7.39,0,0,1,5.06-2.61l.63,0A7.45,7.45,0,0,1,225,238.48Z"/><path class="cls-6" d="M24.46,24.18a9.43,9.43,0,0,0,13.31-1.06l.5-.59A9.44,9.44,0,1,0,23.82,10.37l-.43.5A9.45,9.45,0,0,0,24.46,24.18Zm.46-12,.43-.5A7.39,7.39,0,0,1,30.4,9c.22,0,.44,0,.65,0a7.37,7.37,0,0,1,4.78,1.74,7.46,7.46,0,0,1,.91,10.49l-.5.58a7.44,7.44,0,1,1-11.32-9.66Z"/><path class="cls-6" d="M.3,29.3a7.52,7.52,0,0,1,1.93.25A7.41,7.41,0,0,1,6.75,33a7.37,7.37,0,0,1,.75,5.64A7.36,7.36,0,0,1,4,43.18l-.66.39a7.48,7.48,0,0,1-3.32,1v2A9.51,9.51,0,0,0,4.37,45.3L5,44.92a9.4,9.4,0,0,0,4.39-5.74A9.34,9.34,0,0,0,8.48,32a9.36,9.36,0,0,0-5.73-4.4,9.51,9.51,0,0,0-2.69-.31v2Z"/><path class="cls-6" d="M5.54,205.94l-.7-.4A9.33,9.33,0,0,0,.06,204.3v2H.15a7.35,7.35,0,0,1,3.69,1l.69.4a7.46,7.46,0,0,1,2.64,10.19,7.51,7.51,0,0,1-6.42,3.67c-.24,0-.47,0-.69-.05v2c.22,0,.45,0,.69,0a9.49,9.49,0,0,0,8.14-4.66A9.46,9.46,0,0,0,5.54,205.94Z"/><path class="cls-6" d="M38.14,227.89a9.44,9.44,0,0,0-14.45,12.16l.42.5a9.44,9.44,0,1,0,14.52-12.07Zm-2,12.35a7.44,7.44,0,0,1-10.48-1l-.43-.51a7.44,7.44,0,0,1,11.39-9.58l.49.58A7.46,7.46,0,0,1,36.13,240.24Z"/><path class="cls-6" d="M246.26,43.23l-.63-.37A7.44,7.44,0,0,1,243,32.68,7.43,7.43,0,0,1,249.39,29c.19,0,.38,0,.58,0V27a9.43,9.43,0,0,0-5.35,17.57l.64.37A9.4,9.4,0,0,0,250,46.23v-2A7.45,7.45,0,0,1,246.26,43.23Z"/><path class="cls-6" d="M249.83,221.24a7.44,7.44,0,0,1-3.75-13.87l.65-.38a7.37,7.37,0,0,1,3.24-1v-2a9.4,9.4,0,0,0-4.23,1.23l-.66.38a9.44,9.44,0,0,0,4.75,17.61H250v-2Z"/></g></g></svg>