<svg xmlns="http://www.w3.org/2000/svg" viewBox="0 0 250 250"><defs><style>.cls-1{fill:#602483;}.cls-2{fill:#4f2567;}.cls-3{fill:#29265b;}.cls-4,.cls-5{fill:none;}.cls-5,.cls-6,.cls-7{stroke:#ae569c;stroke-miterlimit:10;}.cls-6,.cls-7,.cls-9{fill:#9d7eb8;}.cls-6{stroke-width:2px;}.cls-8{fill:#ae569c;}</style></defs><g id="Ebene_2" data-name="Ebene 2"><g id="Images"><rect class="cls-1" width="250" height="250"/><path class="cls-2" d="M113.51,144.75H102.44V133.68h11.07Zm-10.07-1h9.07v-9.07h-9.07Z"/><path class="cls-2" d="M129.75,161H109.39V140.63h20.36Zm-19.36-1h18.36V141.63H110.39Z"/><rect class="cls-3" x="101.55" y="72.3" width="37.41" height="37.41" transform="translate(-27.99 63.3) rotate(-26.53)"/><path class="cls-2" d="M111.43,117.44,93.83,82.18l35.26-17.6,17.6,35.26ZM96.51,83.07l15.82,31.69L144,98.94,128.19,67.26Z"/><rect class="cls-3" x="142.09" y="74.34" width="71.95" height="71.95" transform="translate(-30.52 91.15) rotate(-26.53)"/><path class="cls-2" d="M161.5,159.91l-33-66.16,66.16-33,33,66.16ZM131.15,94.65l31.24,62.58L225,126,193.73,63.41Z"/><path class="cls-2" d="M163.17,199.64l-7.61-.8.81-7.61,7.61.8ZM156.66,198l5.62.59.6-5.62-5.62-.59Z"/><path class="cls-2" d="M174.33,196.21l-13.72-1.46L162.06,181l13.72,1.45Zm-12.62-2.35,11.73,1.25,1.24-11.73L163,182.14Z"/><polygon class="cls-3" points="196 249.93 196.27 247.4 189.65 246.7 189.31 249.93 196 249.93"/><polygon class="cls-2" points="189.81 249.93 190.1 247.25 195.72 247.84 195.5 249.93 196.5 249.93 196.82 246.96 189.21 246.15 188.81 249.93 189.81 249.93"/><polygon class="cls-3" points="208.07 237.86 195.35 236.51 194 249.23 200.61 249.93 206.79 249.93 208.07 237.86"/><polygon class="cls-4" points="195.79 237.06 194.55 248.79 205.36 249.93 206.29 249.93 207.52 238.3 195.79 237.06"/><polygon class="cls-2" points="194.55 248.79 195.79 237.06 207.52 238.3 206.29 249.93 207.29 249.93 208.62 237.41 194.9 235.96 193.45 249.68 195.86 249.93 205.36 249.93 194.55 248.79"/><rect class="cls-3" x="193" y="21.93" width="14.35" height="14.35" transform="translate(250.19 -166.9) rotate(96.04)"/><path class="cls-2" d="M207.45,38.09l-16.26-1.72,1.72-16.26,16.26,1.73Zm-14.06-3.5,12.28,1.3L207,23.61l-12.28-1.3Z"/><rect class="cls-3" x="168.2" y="30" width="27.59" height="27.59" transform="translate(244.72 -132.58) rotate(96.04)"/><path class="cls-2" d="M195.16,60.07,165.73,57l3.11-29.43,29.43,3.11Zm-27.23-4.89,25.45,2.69,2.69-25.45-25.45-2.69Z"/><path class="cls-2" d="M34.64,120.37l-7.61-.8.81-7.61,7.61.8Zm-6.51-1.69,5.62.59.6-5.62-5.62-.59Z"/><path class="cls-2" d="M45.8,116.94l-13.72-1.45,1.45-13.72,13.72,1.45ZM33.18,114.6l11.73,1.24,1.24-11.73-11.73-1.24Z"/><rect class="cls-3" x="85.68" y="233.28" width="2.23" height="2.23" transform="translate(252.54 421.49) rotate(158.78)"/><path class="cls-2" d="M85.87,236.48l-1.16-3,3-1.17,1.17,3Zm.13-2.43.44,1.14,1.15-.44-.45-1.15Z"/><rect class="cls-3" x="81.33" y="230.79" width="4.28" height="4.28" transform="translate(245.59 419.86) rotate(158.78)"/><path class="cls-2" d="M82,236.35l-1.91-4.92L85,229.52l1.91,4.92ZM81.35,232l1.19,3.06,3.06-1.19-1.19-3.06Z"/><rect class="cls-3" x="85.68" y="118.79" width="2.23" height="2.23" transform="translate(211.1 200.26) rotate(158.78)"/><path class="cls-2" d="M85.87,122l-1.16-3,3-1.17,1.17,3Zm.13-2.44.44,1.14,1.15-.44-.45-1.14Z"/><rect class="cls-3" x="81.33" y="116.3" width="4.28" height="4.28" transform="translate(204.15 198.63) rotate(158.78)"/><path class="cls-2" d="M82,121.86l-1.91-4.93L85,115l1.91,4.92Zm-.62-4.36,1.19,3.06,3.06-1.19-1.19-3.06Z"/><path class="cls-2" d="M96.56,208.42l-4.22-4.3,4.3-4.23,4.23,4.31Zm-2.81-4.29L96.57,207l2.88-2.83-2.82-2.87Z"/><path class="cls-2" d="M96.61,203.51l-7.48-7.62,7.62-7.48,7.48,7.62Zm-6.07-7.61,6.08,6.2,6.2-6.08-6.08-6.2Z"/><rect class="cls-5" x="112.94" y="124.18" width="10.06" height="10.06"/><rect class="cls-5" x="119.89" y="131.13" width="19.35" height="19.35"/><rect class="cls-6" x="111.55" y="62.3" width="37.41" height="37.41" transform="translate(-22.47 66.71) rotate(-26.53)"/><rect class="cls-6" x="152.09" y="64.34" width="71.95" height="71.95" transform="translate(-25 94.56) rotate(-26.53)"/><rect class="cls-5" x="166.44" y="182.11" width="6.65" height="6.65" transform="translate(-32.51 334.74) rotate(-83.96)"/><rect class="cls-5" x="171.8" y="172.23" width="12.79" height="12.79" transform="translate(-18.19 337.03) rotate(-83.96)"/><rect class="cls-7" x="199.28" y="237.03" width="6.65" height="6.65" transform="translate(-57.74 416.54) rotate(-83.96)"/><rect class="cls-7" x="204.64" y="227.15" width="12.79" height="12.79" transform="translate(-43.43 418.82) rotate(-83.96)"/><rect class="cls-6" x="203" y="11.93" width="14.35" height="14.35" transform="translate(251.3 -187.89) rotate(96.04)"/><rect class="cls-6" x="178.2" y="20" width="27.59" height="27.59" transform="translate(245.82 -153.58) rotate(96.04)"/><rect class="cls-5" x="37.92" y="102.84" width="6.65" height="6.65" transform="translate(-68.68 136) rotate(-83.96)"/><rect class="cls-5" x="43.27" y="92.96" width="12.79" height="12.79" transform="translate(-54.36 138.29) rotate(-83.96)"/><rect class="cls-7" x="95.68" y="223.28" width="2.23" height="2.23" transform="translate(268.24 398.55) rotate(158.78)"/><rect class="cls-7" x="91.33" y="220.79" width="4.28" height="4.28" transform="translate(261.3 396.92) rotate(158.78)"/><rect class="cls-7" x="95.68" y="108.79" width="2.23" height="2.23" transform="translate(226.8 177.32) rotate(158.78)"/><rect class="cls-7" x="91.33" y="106.3" width="4.28" height="4.28" transform="translate(219.86 175.69) rotate(158.78)"/><rect class="cls-5" x="104.08" y="191.64" width="5.03" height="5.03" transform="translate(42.67 406.23) rotate(-134.45)"/><rect class="cls-5" x="101.84" y="181.12" width="9.68" height="9.68" transform="translate(48.65 392.34) rotate(-134.45)"/><polygon class="cls-4" points="216.19 224.81 249.97 231.78 249.97 221.76 218.17 215.2 216.19 224.81"/><polygon class="cls-4" points="248.34 74.2 249.97 73.81 249.97 73.32 248.17 73.48 248.34 74.2"/><polygon class="cls-4" points="244.19 37.99 239.9 39.02 241.17 44.32 244.67 43.47 244.19 37.99"/><polygon class="cls-4" points="214.85 212.47 249.97 219.72 249.97 160.36 226.59 155.54 214.85 212.47"/><polygon class="cls-4" points="241.63 46.26 246.82 67.89 244.85 45.49 241.63 46.26"/><polygon class="cls-4" points="239.69 46.73 230.12 49.02 238.56 84.2 249.97 81.46 249.97 75.87 246.86 76.61 239.69 46.73"/><rect class="cls-4" x="186.73" y="180.24" width="58.36" height="5.77" transform="translate(-7.06 357.59) rotate(-78.35)"/><rect class="cls-4" x="205.72" y="213.96" width="9.58" height="9.58" transform="translate(-46.26 380.72) rotate(-78.34)"/><polygon class="cls-4" points="204.82 212.68 181.49 207.87 174.34 242.55 209.01 249.7 213.83 226.37 202.48 224.03 204.82 212.68"/><polygon class="cls-4" points="226.99 153.58 249.97 158.32 249.97 148.3 228.98 143.97 226.99 153.58"/><polygon class="cls-3" points="249.14 71.38 249.97 71.31 249.97 36.61 246.16 37.52 249.14 71.38"/><polygon class="cls-2" points="249.97 34.55 249.97 33.69 243.86 34.23 244.01 35.98 249.97 34.55"/><polygon class="cls-2" points="246.16 37.52 244.19 37.99 244.67 43.47 241.17 44.32 241.63 46.26 244.85 45.49 246.82 67.89 248.17 73.48 249.97 73.32 249.97 71.31 249.14 71.38 246.16 37.52"/><polygon class="cls-2" points="238.56 84.2 230.12 49.02 239.69 46.73 239.22 44.78 227.71 47.55 237.08 86.61 249.97 83.52 249.97 81.46 238.56 84.2"/><rect class="cls-4" x="205.72" y="213.96" width="9.58" height="9.58" transform="translate(-46.26 380.72) rotate(-78.34)"/><polygon class="cls-4" points="213.83 226.37 202.48 224.03 204.82 212.68 181.49 207.87 174.34 242.55 209.01 249.7 213.83 226.37"/><path class="cls-2" d="M215.79,226.77l34.18,7v-2l-33.78-7,2-9.61L212.48,214l.36-1.74-5.65-1.16L219,154l5.65,1.17.4-2-7.61-1.57-12.19,59.11-25.3-5.21-8,38.59,28.25,5.83H211Zm-9-13.68,9.39,1.93-1.94,9.39-9.38-1.94Zm-25.29-5.22,23.33,4.81L202.48,224l11.35,2.34L209,249.7l-34.68-7.15Z"/><polygon class="cls-2" points="226.59 155.54 249.97 160.36 249.97 158.32 226.99 153.58 226.59 155.54"/><polygon class="cls-8" points="246.86 76.61 249.97 75.87 249.97 73.81 248.34 74.2 248.17 73.48 246.82 67.89 241.63 46.26 241.17 44.32 239.9 39.02 244.19 37.99 246.16 37.52 249.97 36.61 249.97 34.55 244.01 35.98 237.49 37.55 239.22 44.78 239.69 46.73 246.86 76.61"/><polygon class="cls-8" points="212.84 212.29 212.48 214.03 218.17 215.2 249.97 221.76 249.97 219.72 214.85 212.47 226.59 155.54 226.99 153.58 228.98 143.97 249.97 148.3 249.97 146.26 227.42 141.61 225.03 153.18 224.63 155.14 212.84 212.29"/><polygon class="cls-4" points="97.53 45.51 140.04 35.31 131.56 0 131.36 0 124.39 1.67 123.99 0 99.81 0 87.32 3 97.53 45.51"/><polygon class="cls-2" points="131.36 0 123.99 0 124.39 1.67 131.36 0"/><polygon class="cls-2" points="140.04 35.31 97.53 45.51 87.32 3 99.81 0 91.24 0 84.91 1.52 96.05 47.92 142.45 36.79 133.62 0 131.56 0 140.04 35.31"/><polygon class="cls-3" points="195.12 3.47 195.49 0 189.81 0 189.5 2.87 195.12 3.47"/><polygon class="cls-2" points="195.49 0 195.12 3.47 189.5 2.87 189.81 0 188.8 0 188.4 3.76 196.01 4.57 196.49 0 195.49 0"/><polygon class="cls-2" points="196.51 0 204.82 0.88 200.56 0 196.51 0"/><polygon class="cls-2" points="200.56 0 204.82 0.88 210.57 2.07 211 0 200.56 0"/><polygon class="cls-4" points="150.04 25.31 143.96 0 99 0 107.53 35.51 150.04 25.31"/><polygon class="cls-8" points="150.04 25.31 107.53 35.51 99 0 96.95 0 106.05 37.92 152.45 26.79 146.02 0 143.96 0 150.04 25.31"/><polygon class="cls-4" points="22.51 71.42 16.19 71.98 0.03 75.86 0.03 81.4 23.55 75.76 22.51 71.42"/><polygon class="cls-4" points="23.38 236.6 25.37 226.99 16.04 225.07 15.66 225.16 15.62 224.98 0.03 221.76 0.03 231.78 23.38 236.6"/><polygon class="cls-4" points="0.03 73.4 0.03 73.8 2.65 73.17 0.03 73.4"/><polygon class="cls-4" points="17.88 18.23 19.02 22.98 22.39 22.69 26.71 21.65 26.87 22.29 36.99 21.4 35.23 14.06 17.88 18.23"/><polygon class="cls-4" points="20.62 223.97 25.77 225.03 26.27 222.61 20.62 223.97"/><rect class="cls-4" x="36.92" y="60.91" width="2.81" height="1.05" transform="translate(-5.25 3.61) rotate(-5.04)"/><polygon class="cls-4" points="0.03 148.3 0.03 158.32 31.21 164.76 40.1 162.62 38.57 156.25 0.03 148.3"/><polygon class="cls-4" points="0.03 219.72 15.1 222.83 4.52 178.76 16.25 175.95 14.52 168.76 26.63 165.85 0.03 160.37 0.03 219.72"/><polygon class="cls-4" points="27.73 225.44 33.38 226.6 34.62 220.61 28.42 222.1 27.73 225.44"/><polygon class="cls-2" points="22.39 22.69 26.87 22.29 26.71 21.65 22.39 22.69"/><polygon class="cls-2" points="23.55 75.76 0.03 81.4 0.03 83.46 25.96 77.24 24.52 71.25 22.51 71.42 23.55 75.76"/><polygon class="cls-2" points="0.03 160.37 26.63 165.85 31.21 164.76 0.03 158.32 0.03 160.37"/><polygon class="cls-2" points="26.27 222.61 25.77 225.03 27.73 225.44 28.42 222.1 26.27 222.61"/><polygon class="cls-2" points="23.38 236.6 0.03 231.78 0.03 233.83 24.94 238.97 27.33 227.4 25.37 226.99 23.38 236.6"/><polygon class="cls-3" points="40.73 156.7 42.04 162.16 46.92 160.99 47.51 158.1 40.73 156.7"/><rect class="cls-3" x="63.71" y="166.38" width="2.35" height="5.39" transform="translate(-37.69 19.83) rotate(-13.51)"/><polygon class="cls-3" points="42.06 154.93 49.88 156.54 49.07 160.47 51.82 159.81 50.18 152.98 42.06 154.93"/><polygon class="cls-2" points="38.57 156.25 40.1 162.62 42.04 162.16 40.73 156.7 38.57 156.25"/><polygon class="cls-2" points="42.06 154.93 50.18 152.98 49.72 151.04 37.99 153.85 38.05 154.11 42.06 154.93"/><polygon class="cls-2" points="65.4 166.18 66.66 171.42 64.37 171.97 64.83 173.91 69.07 172.9 67.34 165.71 65.4 166.18"/><polygon class="cls-3" points="17.14 222.75 35.07 218.45 36.27 212.61 25.66 215.16 16.72 177.89 6.94 180.24 17.14 222.75"/><polygon class="cls-3" points="59.65 212.55 58.39 207.31 38.42 212.1 37.22 217.93 59.65 212.55"/><polygon class="cls-2" points="15.1 222.83 20.62 223.97 26.27 222.61 28.42 222.1 34.62 220.61 35.07 218.45 17.14 222.75 6.94 180.24 16.72 177.89 16.25 175.95 4.52 178.76 15.1 222.83"/><polygon class="cls-2" points="16.04 225.07 15.62 224.98 15.66 225.16 16.04 225.07"/><polygon class="cls-2" points="58.39 207.31 59.65 212.55 37.22 217.93 36.77 220.09 62.06 214.03 60.34 206.84 58.39 207.31"/><polygon class="cls-3" points="37.68 70.09 31.67 70.62 32.67 82.02 50.09 80.49 49.47 73.43 40.86 74.19 39.95 63.83 37.15 64.08 37.68 70.09"/><rect class="cls-2" x="37.06" y="61.96" width="2.81" height="2" transform="translate(-5.37 3.62) rotate(-5.03)"/><polygon class="cls-2" points="49.47 73.43 50.09 80.49 32.67 82.02 31.67 70.62 29.68 70.79 30.86 84.19 52.26 82.31 51.46 73.26 49.47 73.43"/><polygon class="cls-3" points="15.87 70 33.55 65.76 32.51 61.42 8.36 63.55 5.87 35.27 5.41 35.31 0.03 36.6 0.03 69.68 0.17 71.38 15.87 70"/><polygon class="cls-3" points="35.11 63.7 34.89 61.21 34.52 61.25 35.11 63.7"/><polygon class="cls-3" points="29.41 68.81 35.51 68.27 35.43 67.36 29.41 68.81"/><polygon class="cls-2" points="5.09 33.33 0.03 33.78 0.03 34.55 5.09 33.33"/><polygon class="cls-2" points="15.87 70 0.17 71.38 0.03 69.68 0.03 73.4 2.65 73.17 15.87 70"/><polygon class="cls-2" points="31.67 70.62 37.68 70.09 37.15 64.08 36.98 62.08 36.88 61.04 34.89 61.21 35.11 63.7 35.96 67.24 35.43 67.36 35.51 68.27 29.41 68.81 16.19 71.98 22.51 71.42 24.52 71.25 29.68 70.79 31.67 70.62"/><polygon class="cls-2" points="5.86 35.2 5.41 35.31 5.87 35.27 5.86 35.2"/><polygon class="cls-8" points="17.88 18.23 35.23 14.06 36.99 21.4 39.01 21.22 36.71 11.65 15.47 16.75 17 23.16 19.02 22.98 17.88 18.23"/><polygon class="cls-8" points="29.41 68.81 35.43 67.36 35.96 67.24 35.11 63.7 34.52 61.25 32.51 61.42 33.55 65.76 15.87 70 2.65 73.17 0.03 73.8 0.03 75.86 16.19 71.98 29.41 68.81"/><polygon class="cls-8" points="0.03 36.6 5.41 35.31 5.86 35.2 5.68 33.19 5.09 33.33 0.03 34.55 0.03 36.6"/><polygon class="cls-8" points="38.57 156.25 40.73 156.7 47.51 158.1 46.92 160.99 49.07 160.47 49.88 156.54 42.06 154.93 38.05 154.11 0.03 146.26 0.03 148.3 38.57 156.25"/><polygon class="cls-8" points="37.22 217.93 38.42 212.1 36.27 212.61 35.07 218.45 34.62 220.61 33.38 226.6 27.73 225.44 25.77 225.03 20.62 223.97 15.1 222.83 0.03 219.72 0.03 221.76 15.62 224.98 16.04 225.07 25.37 226.99 27.33 227.4 34.94 228.97 36.77 220.09 37.22 217.93"/><polygon class="cls-9" points="76.66 161.42 71.58 140.25 50.4 145.33 53.77 159.34 60.92 157.62 62.64 164.78 76.66 161.42"/><polygon class="cls-8" points="50.18 152.98 51.82 159.81 53.77 159.34 50.4 145.33 71.58 140.25 76.66 161.42 62.64 164.78 63.11 166.73 65.4 166.18 67.34 165.71 79.07 162.9 73.05 137.84 47.99 143.85 49.72 151.04 50.18 152.98"/><rect class="cls-9" x="21.43" y="164.53" width="43.72" height="43.72" transform="translate(-42.3 15.25) rotate(-13.5)"/><path class="cls-8" d="M64.83,173.91,64.37,172l-1.26-5.24-.47-1.95-1.72-7.16-7.15,1.72-2,.47-2.75.66-2.15.52L42,162.16l-1.94.46-8.89,2.14-4.58,1.09-12.11,2.91L16.25,176l.47,1.94,8.94,37.27,10.61-2.55,2.15-.51,20-4.79,2-.47L72.06,204Zm4.82,28.64-42.51,10.2-10.2-42.51L59.45,160Z"/><polygon class="cls-9" points="42.67 72.02 60.09 70.49 58.56 53.07 47.15 54.08 47.68 60.09 41.67 60.62 42.67 72.02"/><polygon class="cls-8" points="47.15 54.08 58.56 53.07 60.09 70.49 42.67 72.02 41.67 60.62 39.68 60.79 39.77 61.84 39.95 63.83 40.86 74.19 49.47 73.43 51.46 73.26 62.26 72.31 60.38 50.9 46.98 52.08 47.15 54.08"/><rect class="cls-9" x="8.55" y="24.42" width="35.47" height="35.47" transform="translate(-3.6 2.47) rotate(-5.03)"/><path class="cls-8" d="M5.86,35.2v.07L8.36,63.55l24.15-2.13,2-.17.37,0,2-.17,2.8-.25,2-.17,6-.53-.53-6-.17-2L44.22,20.76,39,21.22l-2,.18-10.13.89-4.48.4L19,23l-2,.18L4.89,24.23l.79,9ZM7.06,26,42.4,22.93l3.11,35.34L10.18,61.38Z"/><rect class="cls-4" x="97.62" y="240.09" width="24.3" height="5.39" transform="translate(-53.62 32.32) rotate(-13.49)"/><polygon class="cls-4" points="133.5 249.49 133.6 249.93 143.95 249.93 143.28 247.14 133.5 249.49"/><rect class="cls-4" x="125.17" y="243.35" width="5.36" height="5.36" transform="translate(-53.88 36.63) rotate(-13.49)"/><rect class="cls-4" x="121.47" y="226.82" width="10.06" height="7.02" transform="translate(-50.26 35.88) rotate(-13.5)"/><polygon class="cls-4" points="131.31 240.38 133.03 247.54 142.81 245.19 141.55 239.95 134.4 241.67 132.68 234.51 122.9 236.86 124.16 242.1 131.31 240.38"/><polygon class="cls-4" points="147.26 236.53 157.04 234.18 151.96 213.01 130.79 218.09 132.05 223.33 143.44 220.59 147.26 236.53"/><rect class="cls-4" x="135.17" y="233.35" width="5.36" height="5.36" transform="translate(-51.27 38.68) rotate(-13.49)"/><polygon class="cls-4" points="100.1 249.93 123.98 249.93 122.68 244.51 100.1 249.93"/><rect class="cls-4" x="144.09" y="239.14" width="2.35" height="5.39" transform="translate(-52.43 40.58) rotate(-13.5)"/><polygon class="cls-4" points="141.96 223.01 132.52 225.27 134.16 232.1 141.31 230.38 143.03 237.54 145.32 236.99 141.96 223.01"/><polygon class="cls-2" points="120.79 228.09 130.57 225.74 130.11 223.8 118.38 226.61 120.49 235.38 122.43 234.91 120.79 228.09"/><polygon class="cls-2" points="125.87 249.26 124.62 244.05 122.68 244.51 123.98 249.93 131.55 249.93 131.09 248.01 125.87 249.26"/><polygon class="cls-2" points="145.32 236.99 147.26 236.53 143.44 220.59 132.05 223.33 132.52 225.27 141.96 223.01 145.32 236.99"/><polygon class="cls-2" points="147.04 244.18 144.76 244.73 145.22 246.67 149.46 245.66 147.73 238.47 145.79 238.94 147.04 244.18"/><rect class="cls-2" x="121.55" y="237.02" width="2" height="5.39" transform="translate(-52.56 35.22) rotate(-13.49)"/><rect class="cls-2" x="133.13" y="246.34" width="10.06" height="2" transform="translate(-53.9 39.06) rotate(-13.49)"/><polygon class="cls-2" points="96.64 248.71 91.53 249.93 96.93 249.93 96.64 248.71"/><polygon class="cls-2" points="133.03 247.54 131.31 240.38 124.16 242.1 122.21 242.57 98.58 248.24 98.99 249.93 100.1 249.93 122.68 244.51 124.62 244.05 129.84 242.79 131.09 248.01 131.55 249.93 133.6 249.93 133.5 249.49 133.03 247.54"/><polygon class="cls-8" points="132.21 232.57 134.16 232.1 132.52 225.27 132.05 223.33 130.79 218.09 151.96 213.01 157.04 234.18 147.26 236.53 145.32 236.99 143.03 237.54 143.5 239.49 145.79 238.94 147.73 238.47 159.46 235.66 153.44 210.59 128.38 216.61 130.11 223.8 130.57 225.74 132.21 232.57"/><polygon class="cls-8" points="141.55 239.95 141.09 238.01 135.87 239.26 134.62 234.05 132.68 234.51 134.4 241.67 141.55 239.95"/><polygon class="cls-8" points="98.99 249.93 98.58 248.24 97.32 243 120.95 237.33 122.9 236.86 132.68 234.51 134.62 234.05 139.84 232.79 141.09 238.01 141.55 239.95 142.81 245.19 143.28 247.14 143.95 249.93 146 249.93 145.22 246.67 144.76 244.73 143.5 239.49 143.03 237.54 141.31 230.38 134.16 232.1 132.21 232.57 122.43 234.91 120.49 235.38 94.91 241.52 96.64 248.71 96.93 249.93 98.99 249.93"/></g></g></svg>