<svg xmlns="http://www.w3.org/2000/svg" xmlns:xlink="http://www.w3.org/1999/xlink" viewBox="0 0 250 250"><defs><style>.cls-1{fill:url(#Unbenannter_Verlauf_6);}.cls-2{fill:#bb0738;}.cls-3{fill:#da4970;}.cls-4{fill:#c7549a;}.cls-5{fill:#f3bcbc;}.cls-6{fill:#e57cb0;}.cls-7{fill:#e61b48;}.cls-8{fill:#fcd468;}.cls-9{fill:#ef7b31;}.cls-10{fill:#5a78ba;}.cls-11{fill:#ea5655;}.cls-12{fill:#a9cc66;}.cls-13{fill:#55c4f1;}.cls-14{fill:#8cd1e9;}.cls-15{fill:#eae773;}</style><linearGradient id="Unbenannter_Verlauf_6" x1="125" y1="8.46" x2="125" y2="243.43" gradientUnits="userSpaceOnUse"><stop offset="0.01" stop-color="#343434"/><stop offset="0.19" stop-color="#404040"/><stop offset="0.47" stop-color="#4e4d4d"/><stop offset="0.57" stop-color="#454545"/><stop offset="0.79" stop-color="#383838"/><stop offset="1" stop-color="#343434"/></linearGradient></defs><g id="Ebene_2" data-name="Ebene 2"><g id="Images"><rect class="cls-1" width="250" height="250"/><path class="cls-2" d="M113,15.57c.69,4.62,1.15,9.23,1.51,13.85s.66,9.23.87,13.85.33,9.23.39,13.85,0,9.23-.2,13.85c-.45,9.23-1.58,18.46-1.79,27.7s.14,18.46.79,27.69c.29,4.62.67,9.24.89,13.85s.37,9.24.5,13.85c.26,9.24.54,18.47.43,27.7-.06,4.62-.16,9.23-.35,13.85l-.27,6.93-.36,6.92c-.55,9.23-1.21,18.47-2.41,27.7h-.7c-1.19-9.23-1.85-18.47-2.4-27.7l-.37-6.92-.27-6.93c-.19-4.62-.28-9.23-.35-13.85-.11-9.23.18-18.46.43-27.7.14-4.61.26-9.23.5-13.85s.6-9.23.9-13.85c.65-9.23,1-18.46.78-27.69S110.18,80.2,109.72,71c-.23-4.62-.28-9.24-.19-13.85s.19-9.24.39-13.85.46-9.23.86-13.85.82-9.23,1.51-13.85Z"/><path class="cls-3" d="M99.69,36.46c1.15,7.49,1.64,15,2,22.48.17,3.74.29,7.49.33,11.23s0,7.5-.16,11.24c-.39,7.49-1.36,15-1.54,22.48a221.89,221.89,0,0,0,.68,22.47c.25,3.75.58,7.5.76,11.24s.32,7.49.43,11.24c.22,7.49.46,15,.37,22.48-.06,3.74-.14,7.49-.3,11.23l-.23,5.62-.31,5.62c-.48,7.49-1,15-2.07,22.48h-.6c-1-7.49-1.59-15-2.06-22.48l-.31-5.62-.23-5.62c-.16-3.74-.25-7.49-.3-11.23-.09-7.5.15-15,.37-22.48.11-3.75.22-7.49.43-11.24s.51-7.49.76-11.24a221.89,221.89,0,0,0,.68-22.47c-.18-7.49-1.15-15-1.54-22.48q-.28-5.61-.16-11.24c0-3.74.16-7.49.33-11.23.4-7.5.88-15,2-22.48Z"/><path class="cls-4" d="M86.4,56c.49,2.93.81,5.86,1.08,8.79s.47,5.86.61,8.8.24,5.86.28,8.79,0,5.86-.14,8.8c-.32,5.86-1.13,11.72-1.28,17.59a163.89,163.89,0,0,0,.56,17.58c.22,2.94.49,5.87.64,8.8s.26,5.86.36,8.79c.18,5.87.39,11.73.31,17.59s-.32,11.73-.71,17.59-.86,11.73-1.71,17.59h-.5c-.86-5.86-1.33-11.73-1.72-17.59s-.61-11.72-.7-17.59.12-11.72.3-17.59c.1-2.93.19-5.86.36-8.79s.43-5.86.64-8.8a163.89,163.89,0,0,0,.56-17.58c-.15-5.87-1-11.73-1.28-17.59-.16-2.94-.2-5.87-.14-8.8s.14-5.86.28-8.79.33-5.87.62-8.8.59-5.86,1.08-8.79Z"/><path class="cls-5" d="M59.85,72.3A121.18,121.18,0,0,1,61.2,85.81c.11,2.26.21,4.51.23,6.76s0,4.51-.11,6.76c-.26,4.51-.9,9-1,13.52a119.59,119.59,0,0,0,.45,13.51c.16,2.26.38,4.51.51,6.76s.21,4.51.28,6.76c.15,4.51.31,9,.25,13.52a223.32,223.32,0,0,1-1.94,27h-.4a223.32,223.32,0,0,1-1.94-27c-.06-4.51.1-9,.25-13.52.08-2.25.15-4.5.28-6.76s.35-4.5.52-6.76A122,122,0,0,0,59,112.85c-.12-4.51-.76-9-1-13.52-.13-2.25-.16-4.51-.11-6.76s.12-4.5.23-6.76A121.18,121.18,0,0,1,59.45,72.3Z"/><path class="cls-6" d="M72.7,173.35a93.77,93.77,0,0,1-1.36-11.75c-.11-1.95-.19-3.91-.22-5.87s0-3.91.11-5.87c.26-3.92.9-7.83,1-11.75a90.6,90.6,0,0,0-.45-11.75c-.17-2-.38-3.91-.51-5.87s-.21-3.92-.28-5.87c-.15-3.92-.31-7.83-.25-11.75A169.12,169.12,0,0,1,72.7,79.38h.4A169.11,169.11,0,0,1,75,102.87c.07,3.92-.09,7.83-.24,11.75-.08,1.95-.15,3.91-.29,5.87s-.34,3.92-.51,5.87a92.41,92.41,0,0,0-.45,11.75c.12,3.92.77,7.83,1,11.75.13,2,.16,3.91.11,5.87s-.11,3.92-.22,5.87a95.68,95.68,0,0,1-1.36,11.75Z"/><path class="cls-7" d="M124.88,29.51c1,8.07,1.37,16.14,1.68,24.21l.19,6.06.09,6c.09,4,0,8.07-.13,12.11-.32,8.07-1.13,16.14-1.28,24.21s.09,16.14.57,24.21c.21,4,.48,8.08.63,12.11s.27,8.07.36,12.11c.18,8.07.39,16.14.31,24.21s-.32,16.14-.7,24.21-.87,16.15-1.72,24.22h-.5c-.86-8.07-1.33-16.14-1.72-24.22s-.61-16.14-.7-24.21.12-16.14.3-24.21c.1-4,.19-8.07.36-12.11s.43-8.07.64-12.11c.47-8.07.72-16.14.56-24.21s-1-16.14-1.27-24.21c-.16-4-.22-8.07-.14-12.11l.09-6,.19-6.06c.31-8.07.73-16.14,1.69-24.21Z"/><path class="cls-8" d="M160.78,29.51c.76,8.07,1.1,16.14,1.35,24.21l.15,6.06.07,6q.09,6.06-.1,12.11c-.25,8.07-.91,16.14-1,24.21s.1,16.14.45,24.21c.16,4,.38,8.08.51,12.11s.21,8.07.27,12.11c.14,8.07.31,16.14.25,24.21s-.23,16.14-.55,24.21-.73,16.15-1.38,24.22h-.4c-.65-8.07-1.08-16.14-1.37-24.22s-.46-16.14-.56-24.21.11-16.14.25-24.21c.07-4,.14-8.07.28-12.11s.34-8.07.51-12.11c.35-8.07.6-16.14.44-24.21s-.76-16.14-1-24.21c-.12-4-.17-8.07-.11-12.11l.07-6,.15-6.06c.25-8.07.59-16.14,1.35-24.21Z"/><path class="cls-9" d="M148.75,58.61c.57,5.65.82,11.3,1,16.94s.26,11.29.09,16.94-.68,11.29-.77,16.94.06,11.29.34,16.93.51,11.3.59,16.94.21,11.29.19,16.94c-.14,11.29-.49,22.58-1.45,33.87h-.3c-1-11.29-1.32-22.58-1.45-33.87,0-5.65.06-11.29.18-16.94s.3-11.29.6-16.94.43-11.29.33-16.93-.57-11.3-.76-16.94-.08-11.29.08-16.94.44-11.29,1-16.94Z"/><path class="cls-10" d="M220.61,58.61c.36,5.65.56,11.3.67,16.94s.18,11.29.06,16.94-.44,11.29-.51,16.94,0,11.29.22,16.93.34,11.3.4,16.94.15,11.29.12,16.94c-.08,11.29-.33,22.58-1,33.87h-.2c-.63-11.29-.89-22.58-1-33.87,0-5.65.06-11.29.13-16.94s.2-11.29.39-16.94.3-11.29.22-16.93-.36-11.3-.51-16.94,0-11.29.06-16.94.32-11.29.68-16.94Z"/><path class="cls-11" d="M136.81,10.4c.77,9.66,1.1,19.32,1.35,29l.15,7.25.07,7.24q.09,7.26-.1,14.5c-.25,9.66-.91,19.33-1,29s.1,19.33.45,29c.17,4.84.38,9.67.51,14.5s.21,9.66.27,14.5c.14,9.66.31,19.32.25,29s-.23,19.33-.55,29-.73,19.33-1.38,29h-.4c-.65-9.66-1.08-19.33-1.37-29s-.46-19.33-.56-29,.11-19.33.25-29c.07-4.84.14-9.67.28-14.5s.34-9.66.51-14.5c.35-9.66.6-19.32.44-29s-.76-19.33-1-29c-.12-4.83-.17-9.66-.11-14.5l.07-7.24.15-7.25c.25-9.67.59-19.33,1.35-29Z"/><path class="cls-12" d="M184.7,86.85a84.59,84.59,0,0,1,1,9.88c.1,1.64.14,3.29.17,4.94s0,3.29-.08,4.94c-.19,3.29-.68,6.58-.76,9.87a85.77,85.77,0,0,0,.33,9.88c.3,3.3.52,6.59.6,9.88s.21,6.59.18,9.88a158.23,158.23,0,0,1-1.45,19.76h-.3A160.16,160.16,0,0,1,183,146.12c0-3.29.06-6.58.18-9.88s.31-6.58.6-9.88a88.08,88.08,0,0,0,.34-9.88c-.09-3.29-.58-6.58-.77-9.87-.09-1.65-.13-3.3-.08-4.94s.08-3.3.17-4.94a86.81,86.81,0,0,1,1-9.88Z"/><path class="cls-13" d="M208.62,117.26a7.77,7.77,0,0,1,.68,2.27,7.93,7.93,0,0,1,.06,2.28c-.13.76-.46,1.52-.52,2.28a7,7,0,0,0,.23,2.27,13,13,0,0,1,.4,2.28,17.42,17.42,0,0,1,.12,2.28,13.51,13.51,0,0,1-1,4.55h-.2a13.75,13.75,0,0,1-1-4.55,15.85,15.85,0,0,1,.13-2.28,13,13,0,0,1,.39-2.28,7,7,0,0,0,.23-2.27c-.06-.76-.38-1.52-.51-2.28a7.58,7.58,0,0,1,.05-2.28,8.08,8.08,0,0,1,.68-2.27Z"/><path class="cls-14" d="M232.59,92c.38,2.87.55,5.73.68,8.59s.17,5.73,0,8.59-.43,5.73-.5,8.59,0,5.73.22,8.59.35,5.73.39,8.59.16,5.73.13,8.6c-.09,5.72-.34,11.45-1,17.18h-.2c-.63-5.73-.88-11.46-1-17.18,0-2.87.06-5.73.13-8.6s.2-5.72.39-8.59.3-5.72.23-8.59-.37-5.72-.51-8.59,0-5.72.06-8.59.29-5.72.67-8.59Z"/><path class="cls-14" d="M196.64,111.61a18.37,18.37,0,0,1,.67,3.69,19,19,0,0,1,.06,3.69c-.13,1.23-.45,2.46-.51,3.69a18.24,18.24,0,0,0,.22,3.68,30.82,30.82,0,0,1,.4,3.69c.08,1.23.16,2.46.12,3.69a34,34,0,0,1-1,7.38h-.2a33.37,33.37,0,0,1-1-7.38c0-1.23.05-2.46.12-3.69a33,33,0,0,1,.4-3.69,17.54,17.54,0,0,0,.22-3.68c-.06-1.23-.38-2.46-.51-3.69a20.68,20.68,0,0,1,.06-3.69,19.13,19.13,0,0,1,.68-3.69Z"/><path class="cls-13" d="M244.58,111.61a18.37,18.37,0,0,1,.67,3.69,19,19,0,0,1,.06,3.69c-.13,1.23-.45,2.46-.51,3.69a18.24,18.24,0,0,0,.22,3.68,30.82,30.82,0,0,1,.4,3.69c.08,1.23.16,2.46.12,3.69a34,34,0,0,1-1,7.38h-.2a33.37,33.37,0,0,1-1-7.38c0-1.23.05-2.46.12-3.69a33,33,0,0,1,.4-3.69,17.54,17.54,0,0,0,.22-3.68c-.06-1.23-.38-2.46-.51-3.69a20.68,20.68,0,0,1,.06-3.69,19.13,19.13,0,0,1,.68-3.69Z"/><path class="cls-12" d="M33.3,63.49c.58,5.24.83,10.48,1,15.72s.26,10.48.08,15.72-.67,10.48-.76,15.72,0,10.47.34,15.71.51,10.48.59,15.72.21,10.48.18,15.72c-.13,10.48-.48,21-1.45,31.44H33c-1-10.48-1.31-21-1.45-31.44,0-5.24.06-10.48.19-15.72s.3-10.48.59-15.72.44-10.48.34-15.71-.58-10.48-.76-15.72-.08-10.48.08-15.72.44-10.48,1-15.72Z"/><path class="cls-14" d="M20.06,85.48a92.8,92.8,0,0,1,1,10.22c.09,1.7.14,3.41.16,5.11s0,3.41-.07,5.11c-.19,3.41-.68,6.81-.77,10.22a91.76,91.76,0,0,0,.34,10.22c.29,3.41.51,6.82.59,10.23s.21,6.81.19,10.22a171.27,171.27,0,0,1-1.45,20.44h-.3a171.29,171.29,0,0,1-1.46-20.44c0-3.41.06-6.82.19-10.22s.3-6.82.6-10.23a91.76,91.76,0,0,0,.33-10.22c-.09-3.41-.57-6.81-.76-10.22-.09-1.7-.13-3.41-.08-5.11s.07-3.41.16-5.11a90.45,90.45,0,0,1,1-10.22Z"/><path class="cls-10" d="M6.81,114.31a7.25,7.25,0,0,1,1,2.54,6.4,6.4,0,0,1,.08,2.54,25.32,25.32,0,0,0-.77,2.54,5.93,5.93,0,0,0,.34,2.55,11,11,0,0,1,.6,2.54,13.57,13.57,0,0,1,.18,2.54,12.57,12.57,0,0,1-.42,2.55,10.2,10.2,0,0,1-1,2.54h-.3a9.83,9.83,0,0,1-1-2.54,11.91,11.91,0,0,1-.42-2.55A13.57,13.57,0,0,1,5.24,127a11,11,0,0,1,.6-2.54,5.77,5.77,0,0,0,.33-2.55,25.23,25.23,0,0,0-.76-2.54,6.4,6.4,0,0,1,.08-2.54,6.89,6.89,0,0,1,1-2.54Z"/><path class="cls-15" d="M46.55,102.58a32.4,32.4,0,0,1,1,5.94,34.8,34.8,0,0,1,.08,6c-.19,2-.67,4-.76,6a31.16,31.16,0,0,0,.33,5.94,54.75,54.75,0,0,1,.6,6c.11,2,.23,4,.18,5.95a58.2,58.2,0,0,1-1.45,11.89h-.3a58.91,58.91,0,0,1-1.45-11.89c0-2,.07-4,.18-5.95s.31-4,.6-6a31.17,31.17,0,0,0,.34-5.94c-.09-2-.57-4-.77-6a34.8,34.8,0,0,1,.08-6,33.27,33.27,0,0,1,1-5.94Z"/><path class="cls-15" d="M172.72,69.91c.57,4.7.82,9.41,1,14.11s.26,9.41.08,14.12-.67,9.41-.76,14.11.06,9.41.34,14.11.51,9.41.59,14.12.21,9.41.19,14.11c-.14,9.41-.49,18.82-1.45,28.23h-.3c-1-9.41-1.31-18.82-1.45-28.23,0-4.7.06-9.41.18-14.11s.3-9.41.6-14.12.43-9.41.33-14.11-.57-9.41-.76-14.11-.08-9.41.08-14.12.44-9.41,1-14.11Z"/></g></g></svg>