<svg xmlns="http://www.w3.org/2000/svg" viewBox="0 0 250 250"><defs><style>.cls-1,.cls-3{fill:#2c2050;}.cls-2{fill:#a62a86;opacity:0.26;}.cls-3{opacity:0.44;}.cls-4,.cls-5{fill:#eae773;}.cls-5{fill-rule:evenodd;}.cls-6{fill:#70c5cb;}.cls-7{fill:#95c122;}.cls-8{fill:#e62d28;}.cls-9{fill:#ef7b31;}.cls-10{fill:#da4970;}.cls-11{fill:#ea5655;}.cls-12{fill:#f3bcbc;}.cls-13{fill:#fcd468;}</style></defs><g id="Ebene_2" data-name="Ebene 2"><g id="Images"><rect class="cls-1" width="250" height="250"/><path class="cls-2" d="M71.78,205.06c-18.47,0-33.49-12.05-33.49-26.86s15-26.86,33.49-26.86a38.6,38.6,0,0,1,19.39,5V71.91a6,6,0,0,1,4.39-5.79l98-27.37a6.66,6.66,0,0,1,1.53-.18,6,6,0,0,1,3.63,1.2,6.08,6.08,0,0,1,2.38,4.8l-.06,117.33c0,.11,0,.23,0,.35,0,14.81-15,26.86-33.48,26.86s-33.47-12.05-33.47-26.86,15-26.86,33.47-26.86a38.58,38.58,0,0,1,19.41,5V83.83l-81.78,22.85v71.08a3.15,3.15,0,0,1,0,.44C105.25,193,90.23,205.06,71.78,205.06Z"/><path class="cls-3" d="M195.1,41.57a3,3,0,0,1,1.82.6,3,3,0,0,1,1.19,2.4l-.06,117.53c0,.05,0,.1,0,.15,0,13.16-13.67,23.87-30.48,23.87s-30.47-10.71-30.47-23.87,13.67-23.86,30.47-23.86A34.52,34.52,0,0,1,190,146.21V79.88L102.22,104.4V178c0,.08,0,.15,0,.23,0,13.16-13.67,23.86-30.47,23.86s-30.49-10.7-30.49-23.86S55,154.34,71.78,154.34a34.48,34.48,0,0,1,22.39,7.81V71.91a3,3,0,0,1,2.2-2.9l97.9-27.34a3.29,3.29,0,0,1,.82-.1m0-6a9.85,9.85,0,0,0-2.23.26l-.2.06L94.76,63.23a9.06,9.06,0,0,0-6.58,8.68v79.63a42.49,42.49,0,0,0-16.39-3.2c-20.12,0-36.49,13.39-36.49,29.86s16.37,29.86,36.49,29.86,36.47-13.4,36.47-29.86a5.85,5.85,0,0,0,0-.62V109L184,87.79V135.6a42.6,42.6,0,0,0-16.41-3.21c-20.11,0-36.47,13.39-36.47,29.86s16.36,29.87,36.47,29.87,36.48-13.4,36.48-29.87c0-.17,0-.33,0-.5l.06-117.18a9.06,9.06,0,0,0-3.55-7.17,9,9,0,0,0-5.46-1.83Z"/><path class="cls-4" d="M212.64,109.1a.51.51,0,0,0-.71,0l-.44.44-.28-.27a.49.49,0,0,0-.7.7l.28.28-.53.53-.28-.28a.5.5,0,0,0-.71,0,.51.51,0,0,0,0,.71l.28.28-5.16,5.15a.51.51,0,0,0,0,.71.51.51,0,0,0,.36.15.49.49,0,0,0,.35-.15l5.16-5.16.28.28a.48.48,0,0,0,.7,0,.5.5,0,0,0,0-.71l-.27-.27.52-.53.28.28a.52.52,0,0,0,.71,0,.51.51,0,0,0,0-.71l-.28-.28.44-.44A.5.5,0,0,0,212.64,109.1Z"/><path class="cls-5" d="M204.75,118.5a1.48,1.48,0,0,1-1.07-.45,1.5,1.5,0,0,1,0-2.12l1-1c-.58-.27-1.23-.48-1.57-.25-.69.49-.66,1.6-1.45,2.08s-3.23.32-4.37,1.64c-.76,1-.5,2.91.83,4.41s3.49,2.86,4.7,2.19,1.4-3.29,2-4.12,1.88-.32,2.6-1.69C206.84,118.54,204.83,118.5,204.75,118.5Zm-3.49,4a.51.51,0,0,1-.36.15.49.49,0,0,1-.35-.15l-1.27-1.26a.51.51,0,0,1,0-.71.5.5,0,0,1,.71,0l1.27,1.26A.51.51,0,0,1,201.26,122.46Zm1.57.74a.52.52,0,1,1,.52-.52A.52.52,0,0,1,202.83,123.2Z"/><path class="cls-4" d="M129.31,109.1a.51.51,0,0,0-.71,0l-.44.44-.28-.27a.5.5,0,0,0-.71,0,.5.5,0,0,0,0,.7l.28.28-.52.53-.28-.28a.5.5,0,1,0-.71.71l.28.28-5.16,5.15a.5.5,0,0,0,0,.71.5.5,0,0,0,.35.15.51.51,0,0,0,.36-.15l5.16-5.16.27.28a.51.51,0,0,0,.36.15.49.49,0,0,0,.35-.15.5.5,0,0,0,0-.71l-.28-.27.53-.53.28.28a.52.52,0,0,0,.35.14.54.54,0,0,0,.36-.14.51.51,0,0,0,0-.71l-.28-.28.44-.44A.51.51,0,0,0,129.31,109.1Z"/><path class="cls-5" d="M121.41,118.5a1.48,1.48,0,0,1-1.06-.45,1.5,1.5,0,0,1,0-2.12l1-1c-.58-.27-1.23-.48-1.57-.25-.7.49-.66,1.6-1.45,2.08s-3.23.32-4.38,1.64c-.76,1-.5,2.91.84,4.41s3.48,2.86,4.69,2.19,1.4-3.29,2-4.12,1.87-.32,2.6-1.69C123.5,118.54,121.49,118.5,121.41,118.5Zm-3.49,4a.49.49,0,0,1-.35.15.47.47,0,0,1-.35-.15L116,121.2a.51.51,0,0,1,0-.71.5.5,0,0,1,.71,0l1.26,1.26A.5.5,0,0,1,117.92,122.46Zm1.58.74a.52.52,0,1,1,.51-.52A.52.52,0,0,1,119.5,123.2Z"/><path class="cls-4" d="M171,109.29a.51.51,0,0,0-.71,0l-.44.44-.28-.28a.51.51,0,0,0-.71,0,.5.5,0,0,0,0,.71l.28.28-.53.53-.28-.28a.5.5,0,0,0-.71.71l.28.28-5.17,5.17a.5.5,0,0,0,0,.71.5.5,0,0,0,.35.15.51.51,0,0,0,.36-.15l5.17-5.17.28.28a.52.52,0,0,0,.71,0,.51.51,0,0,0,0-.71l-.28-.28.53-.53.28.28a.51.51,0,0,0,.7,0,.5.5,0,0,0,0-.71l-.28-.28L171,110A.51.51,0,0,0,171,109.29Z"/><path class="cls-5" d="M164.16,118.27a1.51,1.51,0,0,1-1.06.44,1.51,1.51,0,0,1-1-2.57l.93-.92a1.46,1.46,0,0,0-1.61-.29c-1.13.68-1.36,1.58-2.15,2.06s-2.41.28-3.56,1.6c-.76,1-.68,3.11,1,4.82,1.39,1.45,3.42,1.93,4.64,1.25s1.66-3,2.28-3.81.3-.19,1.58-1.55a1.37,1.37,0,0,0,0-2Zm-4.56,4.41a.5.5,0,0,1-.35.15.51.51,0,0,1-.36-.15l-1.26-1.27a.49.49,0,0,1,.7-.7L159.6,122A.48.48,0,0,1,159.6,122.68Zm.81-1.36a1.4,1.4,0,1,1,1.4-1.4A1.4,1.4,0,0,1,160.41,121.32Z"/><path class="cls-4" d="M46,109.1a.5.5,0,0,0-.7,0l-.44.44-.28-.27a.5.5,0,0,0-.71,0,.48.48,0,0,0,0,.7l.28.28-.53.53-.28-.28a.48.48,0,0,0-.7,0,.5.5,0,0,0,0,.71l.27.28-5.15,5.15a.5.5,0,0,0,0,.71.48.48,0,0,0,.7,0l5.16-5.16.28.28a.5.5,0,0,0,.35.15.51.51,0,0,0,.36-.15.51.51,0,0,0,0-.71l-.28-.27.53-.53.27.28a.54.54,0,0,0,.36.14.52.52,0,0,0,.35-.14.5.5,0,0,0,0-.71l-.28-.28.44-.44A.5.5,0,0,0,46,109.1Z"/><path class="cls-5" d="M38.08,118.5a1.5,1.5,0,0,1-1-2.57l1-1c-.58-.27-1.23-.48-1.57-.25-.69.49-.65,1.6-1.45,2.08s-3.22.32-4.37,1.64c-.76,1-.5,2.91.84,4.41S35,125.65,36.19,125s1.4-3.29,2-4.12,1.88-.32,2.6-1.69C40.17,118.54,38.16,118.5,38.08,118.5Zm-3.49,4a.5.5,0,0,1-.35.15.51.51,0,0,1-.36-.15l-1.26-1.26a.5.5,0,0,1,0-.71.48.48,0,0,1,.7,0l1.27,1.26A.51.51,0,0,1,34.59,122.46Zm1.57.74a.52.52,0,1,1,.52-.52A.51.51,0,0,1,36.16,123.2Z"/><path class="cls-4" d="M3.64,109.29l-.44.44-.28-.28a.5.5,0,0,0-.71.71l.28.28L2,111l-.28-.28a.5.5,0,0,0-.7,0,.5.5,0,0,0,0,.71l.28.28L0,112.93v1.42l2-2,.28.28a.52.52,0,0,0,.71,0A.5.5,0,0,0,3,112l-.28-.28.53-.53.28.28a.49.49,0,0,0,.35.14.5.5,0,0,0,.36-.14.51.51,0,0,0,0-.71l-.28-.28.44-.44a.5.5,0,0,0,0-.71A.51.51,0,0,0,3.64,109.29Z"/><path class="cls-5" d="M247.49,118.27a1.5,1.5,0,1,1-2.11-2.13l.93-.92a1.44,1.44,0,0,0-1.6-.29c-1.13.68-1.36,1.58-2.16,2.06s-2.4.28-3.55,1.6c-.77,1-.69,3.11.94,4.82,1.39,1.45,3.43,1.93,4.64,1.25s1.67-3,2.28-3.81.3-.19,1.58-1.55a1.37,1.37,0,0,0,0-2Zm-4.56,4.41a.48.48,0,0,1-.7,0L241,121.41a.48.48,0,0,1,0-.7.5.5,0,0,1,.71,0l1.26,1.27A.48.48,0,0,1,242.93,122.68Zm.81-1.36a1.4,1.4,0,1,1,1.4-1.4A1.4,1.4,0,0,1,243.74,121.32Z"/><path class="cls-4" d="M250,112.93l-3.92,3.92a.51.51,0,0,0,0,.71.51.51,0,0,0,.36.15.5.5,0,0,0,.35-.15l3.21-3.21Z"/><path class="cls-4" d="M87.68,109.29a.5.5,0,0,0-.7,0l-.45.44-.28-.28a.5.5,0,0,0-.7,0,.5.5,0,0,0,0,.71l.28.28-.53.53-.28-.28a.51.51,0,0,0-.71,0,.5.5,0,0,0,0,.71l.28.28-5.17,5.17a.5.5,0,0,0,0,.71.48.48,0,0,0,.7,0l5.18-5.17.28.28a.5.5,0,1,0,.7-.71l-.28-.28.53-.53.28.28a.5.5,0,0,0,.36.14.47.47,0,0,0,.35-.14.5.5,0,0,0,0-.71l-.28-.28.44-.44A.5.5,0,0,0,87.68,109.29Z"/><path class="cls-5" d="M80.82,118.27a1.5,1.5,0,1,1-2.1-2.13l.92-.92a1.44,1.44,0,0,0-1.6-.29c-1.13.68-1.36,1.58-2.16,2.06s-2.4.28-3.55,1.6c-.76,1-.69,3.11.94,4.82,1.39,1.45,3.43,1.93,4.64,1.25s1.67-3,2.29-3.81.29-.19,1.58-1.55a1.37,1.37,0,0,0,0-2Zm-4.55,4.41a.51.51,0,0,1-.36.15.5.5,0,0,1-.35-.15l-1.27-1.27a.5.5,0,0,1,0-.7.5.5,0,0,1,.71,0L76.27,122A.5.5,0,0,1,76.27,122.68Zm.8-1.36a1.4,1.4,0,1,1,1.4-1.4A1.4,1.4,0,0,1,77.07,121.32Z"/><path class="cls-6" d="M212.47,181.37l-5.27-4.16a.5.5,0,0,0-.62.78l.37.29c.24.57-.18,1-.39,2.27-.25,1.52-.29,5.47-1.45,5.47-.42,0-.55-3.77-.6-6.58h.08a.5.5,0,0,0,.5-.5.51.51,0,0,0-.5-.5h-.09V178h0a.5.5,0,0,0,.5-.5.5.5,0,0,0-.5-.5h0v-.47h0a.5.5,0,0,0,0-1h0l0-.48a.49.49,0,0,0,.47-.49.5.5,0,0,0-.44-.49c0-.49,0-1,.05-1.48,0-2-.19-3.08-1.36-3.45s-2.41,2.25-3.53,3v1c1.38-.36,2.12-2.12,2.79-1.94s-1.07,8.91-1.78,13.54,4.08,6.24,6.86,4.64,2.1-5,2.76-6.58c.29-.69,1.18-.61,1.51-.55a.32.32,0,0,0,.09,0h0c.06,0,.1.06.16.06a.5.5,0,0,0,.31-.89Z"/><path class="cls-6" d="M198.76,172.26a5.29,5.29,0,0,1-1.15-.36c-.67-.27-.74.08-.29.52a3.52,3.52,0,0,0,1.44.67Z"/><path class="cls-6" d="M129.13,181.37l-5.26-4.16a.5.5,0,0,0-.7.08.49.49,0,0,0,.08.7l.37.29c.24.57-.19,1-.4,2.27-.25,1.52-.28,5.47-1.44,5.47-.42,0-.56-3.77-.6-6.58h.07a.5.5,0,0,0,.5-.5.5.5,0,0,0-.5-.5h-.08c0-.16,0-.32,0-.47h0a.5.5,0,0,0,.5-.5.51.51,0,0,0-.5-.5h0v-.47h0a.5.5,0,0,0,0-1h0c0-.16,0-.32,0-.48a.49.49,0,0,0,.48-.49.5.5,0,0,0-.44-.49c0-.49,0-1,0-1.48,0-2-.18-3.08-1.35-3.45s-2.42,2.25-3.53,3v1c1.38-.36,2.12-2.12,2.78-1.94s-1.07,8.91-1.77,13.54,4.07,6.24,6.85,4.64,2.11-5,2.76-6.58c.3-.69,1.19-.61,1.51-.55a.38.38,0,0,0,.1,0h0a.47.47,0,0,0,.15.06.53.53,0,0,0,.4-.19A.5.5,0,0,0,129.13,181.37Z"/><path class="cls-6" d="M115.43,172.26a5,5,0,0,1-1.15-.36c-.67-.27-.74.08-.3.52a3.56,3.56,0,0,0,1.45.67Z"/><path class="cls-6" d="M158.25,185a.22.22,0,0,1-.23-.21h0v-5.38h-1.71a.22.22,0,0,0-.22.22h0v7.82a.24.24,0,0,0,.22.23h2.36a.23.23,0,0,0,.23-.23V185Z"/><path class="cls-6" d="M162.11,185a.22.22,0,0,1-.23-.21h0v-5.38h-1v5.4a.22.22,0,0,1-.23.22H160v2.43a.24.24,0,0,0,.22.23h2.36a.23.23,0,0,0,.23-.23V185Z"/><path class="cls-6" d="M170.28,179.39h-1.71v5.4a.22.22,0,0,1-.22.22h-.66v2.43a.23.23,0,0,0,.23.23h2.36a.23.23,0,0,0,.22-.23v-7.82a.22.22,0,0,0-.21-.23Z"/><path class="cls-6" d="M166,185a.22.22,0,0,1-.22-.22v-5.38H164.7v5.4a.22.22,0,0,1-.22.22h-.66v2.43a.26.26,0,0,0,.23.23h2.36a.24.24,0,0,0,.23-.23V185Z"/><path class="cls-6" d="M159.41,173.63v-.83h-3.06a.5.5,0,1,0,0,1h3.08C159.42,173.74,159.42,173.69,159.41,173.63Z"/><path class="cls-6" d="M169.85,172.8h-7.44v.83a.49.49,0,0,1,0,.17h7.46a.5.5,0,0,0,0-1Z"/><path class="cls-6" d="M160.91,175.2a.5.5,0,0,1-.5-.5v-2.89a.5.5,0,0,1,.5-.5.5.5,0,0,1,.5.5v2.89A.5.5,0,0,1,160.91,175.2Z"/><circle class="cls-6" cx="158.52" cy="177.05" r="1.11"/><circle class="cls-6" cx="163.43" cy="177.05" r="1.11"/><circle class="cls-6" cx="168.05" cy="177.05" r="1.11"/><path class="cls-6" d="M45.8,181.37l-5.26-4.16a.52.52,0,0,0-.71.08.5.5,0,0,0,.09.7l.36.29c.24.57-.18,1-.39,2.27-.25,1.52-.28,5.47-1.45,5.47-.41,0-.55-3.77-.59-6.58h.07a.5.5,0,0,0,.5-.5.5.5,0,0,0-.5-.5h-.09V178h0a.5.5,0,0,0,.5-.5.5.5,0,0,0-.5-.5h0v-.47h0a.5.5,0,1,0,0-1h0l0-.48a.49.49,0,0,0,.47-.49.5.5,0,0,0-.43-.49c0-.49,0-1,0-1.48,0-2-.19-3.08-1.36-3.45s-2.41,2.25-3.52,3v1c1.37-.36,2.12-2.12,2.78-1.94S34.81,180,34.1,184.66s4.08,6.24,6.86,4.64,2.1-5,2.76-6.58c.29-.69,1.18-.61,1.51-.55a.29.29,0,0,0,.1,0h0a.47.47,0,0,0,.15.06.51.51,0,0,0,.39-.19A.49.49,0,0,0,45.8,181.37Z"/><path class="cls-6" d="M32.1,172.26a5.2,5.2,0,0,1-1.16-.36c-.67-.27-.73.08-.29.52a3.51,3.51,0,0,0,1.45.67Z"/><path class="cls-6" d="M3.62,179.39H1.91v5.4a.22.22,0,0,1-.22.22H1v2.43a.23.23,0,0,0,.23.23H3.62a.24.24,0,0,0,.22-.23v-7.82a.23.23,0,0,0-.21-.23Z"/><circle class="cls-6" cx="1.39" cy="177.05" r="1.11"/><path class="cls-6" d="M3.21,172.8H0v1H3.21a.5.5,0,1,0,0-1Z"/><path class="cls-6" d="M241.59,185a.22.22,0,0,1-.23-.21h0v-5.38h-1.71a.22.22,0,0,0-.22.22h0v7.82a.24.24,0,0,0,.22.23H242a.23.23,0,0,0,.23-.23V185Z"/><path class="cls-6" d="M245.45,185a.22.22,0,0,1-.23-.21h0v-5.38h-1v5.4a.24.24,0,0,1-.23.22h-.65v2.43a.24.24,0,0,0,.22.23h2.36a.23.23,0,0,0,.23-.23V185Z"/><path class="cls-6" d="M249.32,185a.22.22,0,0,1-.22-.22v-5.38H248v5.4a.22.22,0,0,1-.22.22h-.66v2.43a.24.24,0,0,0,.23.23h2.36a.26.26,0,0,0,.23-.23V185Z"/><path class="cls-6" d="M242.75,173.63v-.83h-3.06a.5.5,0,0,0,0,1h3.08A1,1,0,0,1,242.75,173.63Z"/><path class="cls-6" d="M244.25,175.2a.5.5,0,0,1-.5-.5v-2.89a.5.5,0,0,1,.5-.5.5.5,0,0,1,.5.5v2.89A.5.5,0,0,1,244.25,175.2Z"/><circle class="cls-6" cx="241.86" cy="177.05" r="1.11"/><circle class="cls-6" cx="246.77" cy="177.05" r="1.11"/><path class="cls-6" d="M250,172.8h-4.25v1H250Z"/><path class="cls-6" d="M74.92,185a.22.22,0,0,1-.23-.21h0v-5.38H73a.22.22,0,0,0-.22.22h0v7.82a.24.24,0,0,0,.22.23h2.36a.23.23,0,0,0,.23-.23V185Z"/><path class="cls-6" d="M78.78,185a.22.22,0,0,1-.23-.21h0v-5.38h-1v5.4a.23.23,0,0,1-.23.22h-.65v2.43a.24.24,0,0,0,.22.23h2.36a.23.23,0,0,0,.23-.23V185Z"/><path class="cls-6" d="M87,179.39H85.24v5.4A.22.22,0,0,1,85,185h-.66v2.43a.23.23,0,0,0,.23.23H87a.24.24,0,0,0,.22-.23v-7.82a.22.22,0,0,0-.21-.23Z"/><path class="cls-6" d="M82.65,185a.22.22,0,0,1-.22-.22v-5.38H81.37v5.4a.22.22,0,0,1-.22.22h-.66v2.43a.26.26,0,0,0,.23.23h2.36a.24.24,0,0,0,.23-.23V185Z"/><path class="cls-6" d="M76.08,173.63v-.83H73a.5.5,0,1,0,0,1H76.1A1,1,0,0,1,76.08,173.63Z"/><path class="cls-6" d="M86.52,172.8H79.08v.83a.49.49,0,0,1,0,.17h7.46a.5.5,0,1,0,0-1Z"/><path class="cls-6" d="M77.58,175.2a.5.5,0,0,1-.5-.5v-2.89a.5.5,0,0,1,.5-.5.5.5,0,0,1,.5.5v2.89A.5.5,0,0,1,77.58,175.2Z"/><circle class="cls-6" cx="75.19" cy="177.05" r="1.11"/><circle class="cls-6" cx="80.1" cy="177.05" r="1.11"/><circle class="cls-6" cx="84.72" cy="177.05" r="1.11"/><path class="cls-7" d="M237.71,143.94l-2.94-1.05v-.63a.5.5,0,0,0-.5-.5h0a.5.5,0,0,0-.5.5v.65l-3,1a.51.51,0,0,0-.31.64.5.5,0,0,0,.63.31l2.64-.91,0,10.69H232.5a.5.5,0,0,0,0,1H236a.5.5,0,0,0,0-1h-1.27l0-10.71,2.61.93a.47.47,0,0,0,.17,0,.52.52,0,0,0,.47-.33A.5.5,0,0,0,237.71,143.94Z"/><path class="cls-7" d="M231,155.17l-.83-.74a4.59,4.59,0,1,0-8.33-2.66,4.5,4.5,0,0,0,.73,2.46l-1.06.94a.48.48,0,0,0,0,.7.46.46,0,0,0,.37.17.5.5,0,0,0,.33-.12l1-.9a4.57,4.57,0,0,0,6.31.15l.84.75a.5.5,0,0,0,.33.12.45.45,0,0,0,.37-.17A.48.48,0,0,0,231,155.17Zm-4.3.38a1.62,1.62,0,0,1-.49-3.2,1.62,1.62,0,1,1,.49,3.2Z"/><path class="cls-7" d="M154.38,143.94l-2.95-1.05v-.63a.5.5,0,0,0-.5-.5h0a.5.5,0,0,0-.5.5v.65l-3,1a.5.5,0,0,0,.32.95l2.63-.91v10.69h-1.26a.5.5,0,0,0,0,1h3.53a.5.5,0,0,0,0-1h-1.27V144l2.61.93.17,0a.5.5,0,0,0,.17-1Z"/><path class="cls-7" d="M147.64,155.17l-.84-.74a4.54,4.54,0,0,0,.86-2.66,4.59,4.59,0,0,0-9.18,0,4.5,4.5,0,0,0,.73,2.46l-1.06.94a.49.49,0,0,0-.05.7.48.48,0,0,0,.38.17.52.52,0,0,0,.33-.12l1-.9a4.57,4.57,0,0,0,6.31.15l.85.75a.5.5,0,0,0,.33.12.48.48,0,0,0,.37-.17A.5.5,0,0,0,147.64,155.17Zm-4.3.38a1.62,1.62,0,1,1,1.35-1.84A1.62,1.62,0,0,1,143.34,155.55Z"/><path class="cls-7" d="M192.66,140.18a3.59,3.59,0,0,0-1.73.44l4.8,4.84a3.55,3.55,0,0,0-3.07-5.28Z"/><path class="cls-7" d="M189.12,143.73c-.17,1,2.62,3.72,3.54,3.54a3.52,3.52,0,0,0,2.47-1l-5-5A3.51,3.51,0,0,0,189.12,143.73Z"/><path class="cls-7" d="M191.34,147.87a8.12,8.12,0,0,1-2.63-2.68.38.38,0,0,0-.29-.18.41.41,0,0,0-.31.12l-8.17,9a.37.37,0,0,0,0,.52l1.62,1.65a.39.39,0,0,0,.27.11.38.38,0,0,0,.24-.09l9.3-7.8a.36.36,0,0,0,.13-.31A.37.37,0,0,0,191.34,147.87Zm-2.39.75-3.21,2.88a.65.65,0,0,1-.41.15.61.61,0,0,1-.43-.21.63.63,0,0,1,.06-.87l3.21-2.88a.59.59,0,0,1,.84.06A.63.63,0,0,1,189,148.62Z"/><path class="cls-7" d="M71.05,143.94l-3-1.05v-.63a.5.5,0,0,0-.5-.5h0a.5.5,0,0,0-.5.5v.65l-3,1a.5.5,0,1,0,.33.95L67.1,144l0,10.69H65.83a.5.5,0,0,0,0,1h3.52a.5.5,0,0,0,0-1H68.08l0-10.71,2.61.93a.5.5,0,0,0,.64-.3A.5.5,0,0,0,71.05,143.94Z"/><path class="cls-7" d="M64.3,155.17l-.83-.74a4.59,4.59,0,1,0-7.6-.2l-1.06.94a.5.5,0,0,0,0,.7.48.48,0,0,0,.37.17.54.54,0,0,0,.34-.12l1-.9a4.57,4.57,0,0,0,6.31.15l.84.75A.52.52,0,0,0,64,156a.48.48,0,0,0,.38-.17A.49.49,0,0,0,64.3,155.17Zm-4.29.38a1.62,1.62,0,1,1,1.35-1.84A1.62,1.62,0,0,1,60,155.55Z"/><path class="cls-7" d="M26,140.18a3.62,3.62,0,0,0-1.73.44l4.81,4.84a3.63,3.63,0,0,0,.45-1.71A3.55,3.55,0,0,0,26,140.18Z"/><path class="cls-7" d="M22.45,143.73c-.17,1,2.62,3.72,3.54,3.54a3.5,3.5,0,0,0,2.47-1l-5-5A3.55,3.55,0,0,0,22.45,143.73Z"/><path class="cls-7" d="M24.67,147.87A8.21,8.21,0,0,1,22,145.19a.38.38,0,0,0-.28-.18.41.41,0,0,0-.32.12l-8.17,9a.38.38,0,0,0,0,.52l1.62,1.65a.4.4,0,0,0,.27.11.38.38,0,0,0,.24-.09l9.3-7.8a.36.36,0,0,0,.13-.31A.34.34,0,0,0,24.67,147.87Zm-2.39.75-3.21,2.88a.65.65,0,0,1-.41.15.61.61,0,0,1-.43-.21.63.63,0,0,1,.06-.87l3.21-2.88a.59.59,0,0,1,.84.06A.63.63,0,0,1,22.28,148.62Z"/><path class="cls-7" d="M109.32,140.18a3.55,3.55,0,0,0-1.72.44l4.8,4.84a3.55,3.55,0,0,0-3.08-5.28Z"/><path class="cls-7" d="M105.78,143.73c-.16,1,2.62,3.72,3.54,3.54a3.53,3.53,0,0,0,2.48-1l-5-5A3.52,3.52,0,0,0,105.78,143.73Z"/><path class="cls-7" d="M108,147.87a8.31,8.31,0,0,1-2.63-2.68.36.36,0,0,0-.28-.18.41.41,0,0,0-.31.12l-8.18,9a.4.4,0,0,0,0,.52l1.63,1.65a.38.38,0,0,0,.26.11.36.36,0,0,0,.24-.09l9.3-7.8a.37.37,0,0,0,.14-.31A.38.38,0,0,0,108,147.87Zm-2.38.75-3.22,2.88a.61.61,0,0,1-.41.15.63.63,0,0,1-.43-.21.65.65,0,0,1,.06-.87l3.22-2.88a.59.59,0,0,1,.84.06A.64.64,0,0,1,105.62,148.62Z"/><path class="cls-8" d="M86,243.19a1.37,1.37,0,0,0-1,.45,3.65,3.65,0,0,0-.62,2.46c0,.48,0,1.44.07,2.64l-.13.08a9.1,9.1,0,0,0-1.21.87l-.34.31h1.59l.12-.09V250h1c0-.25,0-.5,0-.73a4.34,4.34,0,0,0,2.19-3.46,2.94,2.94,0,0,0-.51-2.16A1.61,1.61,0,0,0,86,243.19Zm.66,2.55a3.08,3.08,0,0,1-1.23,2.31c0-.89,0-1.6,0-2a2.88,2.88,0,0,1,.35-1.74.39.39,0,0,1,.29-.13h0a.44.44,0,0,1,.37.15A2,2,0,0,1,86.64,245.74Z"/><path class="cls-8" d="M93.19,248.69V250h1v-1.31a.51.51,0,0,0-.5-.5A.5.5,0,0,0,93.19,248.69Z"/><path class="cls-8" d="M85.51,205.74a5.25,5.25,0,0,0-4.38,2.33,4.64,4.64,0,0,0-.63,3.52,4.33,4.33,0,0,0,1.23,2.14,3.73,3.73,0,0,0,2.4.87,1.73,1.73,0,1,0-1.68-2.1l-.23-.09a1.43,1.43,0,0,1-.75-1,3.68,3.68,0,0,1,.47-2.7,4.26,4.26,0,0,1,3.55-1.92,4.58,4.58,0,0,1,3.23,1.47A4.64,4.64,0,0,1,90,211.58c0,3.53-2.18,6.75-7.8,11.46a.51.51,0,0,0-.06.71.49.49,0,0,0,.38.18.47.47,0,0,0,.32-.12c5.88-4.93,8.16-8.36,8.16-12.24a5.62,5.62,0,0,0-5.44-5.83Z"/><path class="cls-8" d="M94.47,212.47a1.24,1.24,0,1,0,1.25,1.24A1.24,1.24,0,0,0,94.47,212.47Z"/><path class="cls-8" d="M94.47,211.22A1.24,1.24,0,1,0,93.23,210,1.24,1.24,0,0,0,94.47,211.22Z"/><path class="cls-9" d="M117.42,244.75l-.25,0c0-.8,0-1.56-.06-2.27a4.36,4.36,0,0,0,2.19-3.45,2.92,2.92,0,0,0-.51-2.16,1.55,1.55,0,0,0-1.15-.46,1.38,1.38,0,0,0-1,.44,3.69,3.69,0,0,0-.63,2.46c0,.48,0,1.44.07,2.65l-.13.08a9.92,9.92,0,0,0-1.2.86c-1.68,1.41-2.55,2.92-2.51,4.38a4,4,0,0,0,1,2.7H115a3,3,0,0,1-.82-.47,2.91,2.91,0,0,1-1-2.25c0-1.45,1.15-2.75,2.16-3.6a5.7,5.7,0,0,1,.71-.53c0,.58,0,1.21.06,1.85a2.65,2.65,0,0,0-1.65,2.22.5.5,0,0,0,1,.07,1.69,1.69,0,0,1,.69-1.18c0,1.34.08,2.7.11,3.89h1c0-1.29-.08-2.78-.12-4.23l.22,0c1.26.05,1.82.7,1.86,2.18a2.36,2.36,0,0,1-.59,1.48,2.42,2.42,0,0,1-.76.59h1.56a3.41,3.41,0,0,0,.79-2.1C120.22,245.39,118.71,244.8,117.42,244.75Zm-.4-5.45a2.77,2.77,0,0,1,.36-1.74.34.34,0,0,1,.28-.13h0a.44.44,0,0,1,.37.14,2,2,0,0,1,.25,1.41,3,3,0,0,1-1.23,2.3C117.05,240.39,117,239.69,117,239.3Z"/><path class="cls-9" d="M123.72,248.63a1.86,1.86,0,0,0-1.79,1.37H123a.82.82,0,0,1,1.37,0h1.1A1.85,1.85,0,0,0,123.72,248.63Z"/><path class="cls-10" d="M22.43,244.85l-.25,0c0-.8-.05-1.57-.06-2.27a4.36,4.36,0,0,0,2.19-3.45,2.93,2.93,0,0,0-.52-2.16,1.53,1.53,0,0,0-1.14-.46,1.36,1.36,0,0,0-1,.44,3.69,3.69,0,0,0-.63,2.46c0,.48,0,1.44.07,2.64l-.13.09a10.92,10.92,0,0,0-1.21.86c-1.67,1.41-2.54,2.92-2.5,4.38a4,4,0,0,0,.94,2.6h1.61a2.79,2.79,0,0,1-.6-.38,2.87,2.87,0,0,1-.95-2.24c0-1.45,1.15-2.75,2.16-3.6a6,6,0,0,1,.71-.54c0,.59,0,1.22.06,1.86a2.63,2.63,0,0,0-1.65,2.22.5.5,0,0,0,1,.07,1.72,1.72,0,0,1,.69-1.19c0,1.32.07,2.63.11,3.8h1c0-1.27-.08-2.71-.12-4.14h.21c1.27.05,1.83.7,1.86,2.18a2.34,2.34,0,0,1-.58,1.48,2.44,2.44,0,0,1-.58.49h1.45a3.33,3.33,0,0,0,.71-2C25.22,245.49,23.72,244.9,22.43,244.85ZM22,239.4a2.9,2.9,0,0,1,.35-1.75.38.38,0,0,1,.29-.12h0a.44.44,0,0,1,.37.14,2,2,0,0,1,.25,1.4,3,3,0,0,1-1.23,2.31C22.06,240.49,22,239.79,22,239.4Z"/><path class="cls-10" d="M30.36,241.53a.5.5,0,0,0-.5.5v5.71a2.15,2.15,0,0,0-.73-.13,1.63,1.63,0,0,0-1.78,1.4,1.26,1.26,0,0,0,.52,1h2.52a1.28,1.28,0,0,0,.52-1h0l-.06-7A.5.5,0,0,0,30.36,241.53Z"/><path class="cls-10" d="M22.43,208l-.25,0c0-.8-.05-1.57-.06-2.27a4.36,4.36,0,0,0,2.19-3.45,2.93,2.93,0,0,0-.52-2.16,1.53,1.53,0,0,0-1.14-.46,1.36,1.36,0,0,0-1,.44A3.69,3.69,0,0,0,21,202.6c0,.48,0,1.44.07,2.64l-.13.09a10.92,10.92,0,0,0-1.21.86c-1.67,1.41-2.54,2.92-2.5,4.38a3.9,3.9,0,0,0,1.3,3,4.53,4.53,0,0,0,2.81,1c0,1.49.07,2.51.07,2.51s0,1.2-.69,1.22c-1,0-1-.35-1.05-.87a.49.49,0,0,0-.51-.49.51.51,0,0,0-.49.51,1.74,1.74,0,0,0,2,1.85h.09a1.48,1.48,0,0,0,1.08-.47,2.75,2.75,0,0,0,.59-1.78s0-1-.08-2.53a3.46,3.46,0,0,0,2.92-3.33C25.22,208.66,23.72,208.07,22.43,208Zm-3.22,4.77a2.87,2.87,0,0,1-.95-2.24c0-1.45,1.15-2.75,2.16-3.6a5,5,0,0,1,.71-.53c0,.58,0,1.21.06,1.85a2.63,2.63,0,0,0-1.65,2.22A.49.49,0,0,0,20,211a.5.5,0,0,0,.54-.46,1.69,1.69,0,0,1,.69-1.18c0,1.45.08,2.91.12,4.17A3.5,3.5,0,0,1,19.21,212.79ZM22,202.57a2.9,2.9,0,0,1,.35-1.75.38.38,0,0,1,.29-.12h0a.44.44,0,0,1,.37.14,2,2,0,0,1,.25,1.4,3.05,3.05,0,0,1-1.23,2.31C22.06,203.66,22,203,22,202.57Zm1.67,10.11a2.41,2.41,0,0,1-1.37.81c0-1.34-.08-2.91-.12-4.46h.21c1.27,0,1.83.7,1.86,2.18A2.34,2.34,0,0,1,23.7,212.68Z"/><path class="cls-10" d="M30,215.07a1.86,1.86,0,1,0-2.61,0,2.07,2.07,0,0,0-.81,1.64A2.11,2.11,0,1,0,30,215.07Zm-2.16-1.32a.85.85,0,0,1,.85-.85.85.85,0,1,1,0,1.7A.85.85,0,0,1,27.87,213.75Zm.85,4.07a1.11,1.11,0,1,1,1.11-1.11A1.11,1.11,0,0,1,28.72,217.82Z"/><path class="cls-10" d="M154.34,244.42h-6.66a.58.58,0,0,0-.57.57v4.29a.57.57,0,0,0,.57.57h.76a.56.56,0,0,1,.49-.32h4.16a.54.54,0,0,1,.49.32h.76a.56.56,0,0,0,.57-.57V245A.57.57,0,0,0,154.34,244.42Z"/><path class="cls-10" d="M157.06,245.61a.5.5,0,0,1-.42-.22l-3.2-4.84a.5.5,0,1,1,.83-.56l3.21,4.85a.5.5,0,0,1-.15.69A.45.45,0,0,1,157.06,245.61Z"/><path class="cls-10" d="M149.09,213.22h-.26c0-.79,0-1.56-.06-2.27a4.31,4.31,0,0,0,2.19-3.45,2.92,2.92,0,0,0-.51-2.16,1.55,1.55,0,0,0-1.14-.46,1.4,1.4,0,0,0-1,.44,3.69,3.69,0,0,0-.62,2.47c0,.48,0,1.43.07,2.64l-.13.08a10.05,10.05,0,0,0-1.21.86c-1.67,1.41-2.54,2.93-2.51,4.39a3.93,3.93,0,0,0,1.3,3,4.54,4.54,0,0,0,2.81,1c0,1.5.07,2.51.07,2.51s0,1.21-.69,1.22c-1,0-1-.34-1-.87a.5.5,0,0,0-1,0,1.73,1.73,0,0,0,2,1.84h.1a1.53,1.53,0,0,0,1.08-.46,2.69,2.69,0,0,0,.58-1.79s0-1-.07-2.52a3.47,3.47,0,0,0,2.1-1.18,3.41,3.41,0,0,0,.82-2.15C151.88,213.85,150.37,213.27,149.09,213.22ZM145.86,218a3,3,0,0,1-1-2.25c0-1.45,1.15-2.75,2.16-3.6a7.07,7.07,0,0,1,.72-.53c0,.59,0,1.21.05,1.85a2.68,2.68,0,0,0-1.65,2.22.5.5,0,0,0,1,.07,1.71,1.71,0,0,1,.68-1.18c0,1.45.09,2.91.12,4.17A3.55,3.55,0,0,1,145.86,218Zm2.82-10.23A2.84,2.84,0,0,1,149,206a.36.36,0,0,1,.29-.13h0a.49.49,0,0,1,.38.14,2.06,2.06,0,0,1,.25,1.41,3.06,3.06,0,0,1-1.23,2.3C148.71,208.85,148.69,208.15,148.68,207.76Zm1.68,10.11a2.44,2.44,0,0,1-1.37.81c0-1.34-.08-2.91-.13-4.45h.22c1.27,0,1.83.7,1.86,2.17A2.4,2.4,0,0,1,150.36,217.87Z"/><path class="cls-10" d="M155.79,205.89a1.64,1.64,0,0,0-1.78,1.36h0l.05,7a.5.5,0,0,0,.5.5.5.5,0,0,0,.5-.5v-5.71a2.2,2.2,0,0,0,.73.13,1.44,1.44,0,1,0,0-2.8Z"/><path class="cls-11" d="M59.35,217.27H52.69a.57.57,0,0,0-.57.57v4.29a.57.57,0,0,0,.57.58h.76a.54.54,0,0,1,.49-.33H58.1a.54.54,0,0,1,.49.33h.76a.58.58,0,0,0,.57-.58v-4.29A.58.58,0,0,0,59.35,217.27Z"/><path class="cls-11" d="M62.07,218.47a.49.49,0,0,1-.42-.23l-3.21-4.84a.51.51,0,0,1,.14-.69.5.5,0,0,1,.7.14l3.2,4.84a.49.49,0,0,1-.14.69A.46.46,0,0,1,62.07,218.47Z"/><path class="cls-11" d="M57.93,232.08h-1.4v-8.59a.09.09,0,0,0,0-.05h-1s0,0,0,.05v8.59H54.11a.5.5,0,0,0-.5.5.5.5,0,0,0,.5.5h3.82a.5.5,0,0,0,.5-.5A.5.5,0,0,0,57.93,232.08Z"/><path class="cls-9" d="M212.64,243.29a1.36,1.36,0,0,0-1,.45,3.67,3.67,0,0,0-.63,2.46c0,.48,0,1.44.07,2.64a.57.57,0,0,1-.13.08,9,9,0,0,0-1.2.87l-.24.21h2.61c0-.21,0-.43,0-.63a4.34,4.34,0,0,0,2.19-3.46,2.94,2.94,0,0,0-.51-2.16A1.55,1.55,0,0,0,212.64,243.29Zm.65,2.55a3,3,0,0,1-1.22,2.31c0-.89,0-1.6-.06-2a2.81,2.81,0,0,1,.36-1.74.39.39,0,0,1,.29-.13h0a.47.47,0,0,1,.38.15A2,2,0,0,1,213.29,245.84Z"/><path class="cls-9" d="M212.16,207.77a5.22,5.22,0,0,0-4.37,2.33,4.64,4.64,0,0,0-.64,3.52,4.39,4.39,0,0,0,1.24,2.14,3.7,3.7,0,0,0,2.39.87,1.73,1.73,0,1,0-1.68-2.1l-.22-.09a1.41,1.41,0,0,1-.75-1.05,3.72,3.72,0,0,1,.46-2.7,4.28,4.28,0,0,1,3.56-1.92,4.56,4.56,0,0,1,3.22,1.47,4.61,4.61,0,0,1,1.24,3.37c0,3.53-2.19,6.74-7.8,11.46a.51.51,0,0,0-.06.71.52.52,0,0,0,.38.17.48.48,0,0,0,.32-.11c5.87-4.94,8.16-8.37,8.16-12.24a5.64,5.64,0,0,0-5.45-5.83Z"/><path class="cls-9" d="M221.13,214.49a1.25,1.25,0,1,0,1.24,1.25A1.24,1.24,0,0,0,221.13,214.49Z"/><path class="cls-9" d="M221.13,213.25a1.25,1.25,0,1,0-1.24-1.24A1.24,1.24,0,0,0,221.13,213.25Z"/><path class="cls-8" d="M84.51,1.75A2.68,2.68,0,0,0,82.86,4a.5.5,0,0,0,.46.53A.49.49,0,0,0,83.86,4a1.71,1.71,0,0,1,.68-1.18c0,1.45.09,2.91.12,4.17a3.49,3.49,0,0,1-2.12-.75,2.89,2.89,0,0,1-1-2.25c0-1.44,1.15-2.75,2.16-3.6A4.6,4.6,0,0,1,84.33,0h-1.6a5.52,5.52,0,0,0-2.14,4.06,3.93,3.93,0,0,0,1.3,3,4.49,4.49,0,0,0,2.8,1c0,1.5.08,2.51.08,2.51s0,1.21-.69,1.22c-1,0-1-.34-1-.87a.5.5,0,0,0-1,0,1.74,1.74,0,0,0,2,1.85h.09a1.51,1.51,0,0,0,1.08-.46,2.78,2.78,0,0,0,.59-1.79s0-1-.08-2.52a3.44,3.44,0,0,0,2.1-1.18,3.35,3.35,0,0,0,.82-2.15c-.06-2.52-1.57-3.1-2.85-3.15h-.25c0-.52,0-1-.05-1.52h-1C84.48.56,84.5,1.15,84.51,1.75Zm1.24.76c1.27.05,1.83.7,1.86,2.17A2.4,2.4,0,0,1,87,6.16,2.47,2.47,0,0,1,85.66,7c0-1.35-.08-2.92-.12-4.46Z"/><path class="cls-8" d="M93.19,4.39a2.2,2.2,0,0,0-.73-.13,1.63,1.63,0,0,0-1.78,1.4,1.84,1.84,0,0,0,3.56,0h0L94.2,0h-1Z"/><path class="cls-9" d="M117.91,0a2.33,2.33,0,0,1-.58.21V0h-1V.27A4.22,4.22,0,0,1,115,0H113.3a2.11,2.11,0,0,0,.25.27,4.53,4.53,0,0,0,2.81,1c0,1.49.07,2.51.07,2.51s0,1.2-.69,1.22c-1,0-1-.35-1-.87a.5.5,0,1,0-1,0,1.73,1.73,0,0,0,2,1.85h.09a1.48,1.48,0,0,0,1.08-.47,2.75,2.75,0,0,0,.59-1.78s0-1-.07-2.53A3.4,3.4,0,0,0,119.46,0l0,0Z"/><path class="cls-9" d="M124.57.47a.86.86,0,0,1-1.71,0A.86.86,0,0,1,123,0h-1.09a1.84,1.84,0,0,0-.07.47,1.83,1.83,0,0,0,.55,1.31,2.13,2.13,0,0,0-.8,1.65A2.11,2.11,0,1,0,125,1.78a1.83,1.83,0,0,0,.55-1.31A1.84,1.84,0,0,0,125.5,0h-1.09A.86.86,0,0,1,124.57.47Zm-.85,4.07a1.11,1.11,0,1,1,1.11-1.11A1.11,1.11,0,0,1,123.72,4.54Z"/><path class="cls-10" d="M23.1,0a2.48,2.48,0,0,1-.77.31V0h-1c0,.12,0,.25,0,.36A4,4,0,0,1,19.83,0H18.21a3.06,3.06,0,0,0,.35.37,4.53,4.53,0,0,0,2.81,1c0,1.49.07,2.5.07,2.5s0,1.21-.69,1.23c-1,0-1-.35-1.05-.87a.49.49,0,0,0-.51-.49.52.52,0,0,0-.49.51,1.74,1.74,0,0,0,2,1.85h.09a1.48,1.48,0,0,0,1.08-.47,2.76,2.76,0,0,0,.59-1.78s0-1-.08-2.53A3.39,3.39,0,0,0,24.46.14a.71.71,0,0,0,.1-.14Z"/><path class="cls-10" d="M29.13.4A2,2,0,0,0,30.37,0H27.89A2,2,0,0,0,29.13.4Z"/><path class="cls-10" d="M152.7,9.36h-1.4V.72h-1s0,0,0,.05V9.36h-1.42a.5.5,0,0,0-.5.5.5.5,0,0,0,.5.5h3.82a.5.5,0,0,0,.5-.5A.5.5,0,0,0,152.7,9.36Z"/><path class="cls-9" d="M220,8.65a1.86,1.86,0,1,0-2.6,0,2.11,2.11,0,1,0,2.6,0Zm-2.16-1.32a.86.86,0,0,1,.86-.85.85.85,0,0,1,.85.85.86.86,0,1,1-1.71,0Zm.86,4.08a1.11,1.11,0,1,1,1.11-1.11A1.11,1.11,0,0,1,218.71,11.41Z"/><path class="cls-9" d="M211.17,1.85a2.67,2.67,0,0,0-1.65,2.22.5.5,0,0,0,1,.07A1.71,1.71,0,0,1,211.2,3c0,1.45.08,2.91.12,4.17a3.5,3.5,0,0,1-2.13-.75,2.93,2.93,0,0,1-.95-2.25c0-1.45,1.15-2.75,2.16-3.6a6.11,6.11,0,0,1,.72-.53H209.5a5.62,5.62,0,0,0-2.26,4.16,3.93,3.93,0,0,0,1.3,3,4.52,4.52,0,0,0,2.81,1c0,1.5.07,2.51.07,2.51s0,1.21-.69,1.22c-.95,0-1-.34-1-.87a.5.5,0,0,0-1,0,1.73,1.73,0,0,0,2,1.84h.1a1.51,1.51,0,0,0,1.07-.46,2.72,2.72,0,0,0,.59-1.79s0-1-.07-2.52a3.5,3.5,0,0,0,2.1-1.18,3.41,3.41,0,0,0,.82-2.15c-.06-2.52-1.57-3.1-2.85-3.15h-.26c0-.56,0-1.1,0-1.62h-1C211.13.59,211.15,1.21,211.17,1.85Zm1.24.76c1.27,0,1.82.7,1.86,2.17a2.47,2.47,0,0,1-2,2.29c0-1.34-.08-2.91-.13-4.45Z"/><path class="cls-12" d="M63.46,90.27H56.22a.63.63,0,0,0-.63.63v4.66a.63.63,0,0,0,.63.63h.83a.56.56,0,0,1,.53-.35H62.1a.57.57,0,0,1,.53.35h.83a.63.63,0,0,0,.62-.63V90.9A.63.63,0,0,0,63.46,90.27Z"/><path class="cls-12" d="M66.41,91.58a.55.55,0,0,1-.45-.25l-3.49-5.27a.55.55,0,0,1,.16-.75.53.53,0,0,1,.75.15l3.49,5.27a.56.56,0,0,1-.16.76A.53.53,0,0,1,66.41,91.58Z"/><path class="cls-12" d="M61.92,106.38H60.4V97s0,0,0,0H59.32s0,0,0,0v9.35H57.76a.55.55,0,0,0-.55.55.55.55,0,0,0,.55.54h4.16a.54.54,0,0,0,.54-.54A.55.55,0,0,0,61.92,106.38Z"/><path class="cls-12" d="M61.23,18.74a.6.6,0,0,1-.51-.3.58.58,0,0,1,.22-.81l7.86-4.54a.6.6,0,0,1,.82.21.61.61,0,0,1-.22.82l-7.87,4.54A.64.64,0,0,1,61.23,18.74Z"/><path class="cls-12" d="M60.41,21.75a.62.62,0,0,1-.38-.14l-7-5.84a.59.59,0,0,1,.76-.91l7,5.84a.59.59,0,0,1-.38,1.05Z"/><path class="cls-12" d="M68.69,31.62V25a.59.59,0,0,0,.34-.54.58.58,0,0,0-.59-.59H54.11a.58.58,0,0,0-.59.59.61.61,0,0,0,.35.55v6.6a.59.59,0,0,0,.24,1.13H68.44a.58.58,0,0,0,.59-.59A.58.58,0,0,0,68.69,31.62Zm-7.77-.07-1.6-6.49h4.12l-1.72,6.49Zm-4,0h-.8l-1.63-6.49h4.08Zm9,0-1.46-6.49h3.76l-1.51,6.49Z"/><path class="cls-12" d="M91.17,74a2,2,0,0,1-.91.52,1,1,0,0,1-.44.11h0s-.1,0-.15,0A2.16,2.16,0,0,1,88.09,71l2.7-2.73-.2,0A5.41,5.41,0,0,0,89.38,68a4.8,4.8,0,0,0-3.06,1l-.42.35a.47.47,0,0,0-.12.54,2.47,2.47,0,0,1-1.27,3.27,2.35,2.35,0,0,1-1,.22A2.5,2.5,0,0,1,82.1,73a.44.44,0,0,0-.25-.08.51.51,0,0,0-.29.1l-.53.45a5.36,5.36,0,0,0-1.78,5.45l.09.25,2.72-2.72a1.56,1.56,0,0,1,2.19,0l1.34,1.34a1.57,1.57,0,0,1,0,2.2l-2.75,2.74a2,2,0,0,0,.31.1,5.08,5.08,0,0,0,1.34.17,5.35,5.35,0,0,0,4.13-1.94l.45-.53a.47.47,0,0,0,0-.54,2.48,2.48,0,0,1,.63-3.45,2.4,2.4,0,0,1,1.41-.44,2.43,2.43,0,0,1,1,.22.57.57,0,0,0,.18,0,.43.43,0,0,0,.35-.16l.35-.42a5.16,5.16,0,0,0,.81-4.51Z"/><path class="cls-12" d="M90.39,86a.74.74,0,0,1-.51-.2.72.72,0,0,1,0-1l13.38-13.57a.72.72,0,0,1,1,1L90.9,85.79A.73.73,0,0,1,90.39,86Z"/><path class="cls-12" d="M99.63,64.2l-.42-.42.32-.33a.72.72,0,0,0-1-1l-.31.32-.4-.4a.72.72,0,0,0-1,1l.41.4-.44.45-.42-.41a.72.72,0,1,0-1,1l.42.42L89.11,72a.73.73,0,0,0,.52,1.23.7.7,0,0,0,.51-.22l6.6-6.69.41.4a.71.71,0,0,0,1,0,.72.72,0,0,0,0-1l-.41-.41.45-.45.41.42a.72.72,0,1,0,1-1Z"/><path class="cls-12" d="M84.72,78.67l-1.33-1.34a.33.33,0,0,0-.47,0l-3.34,3.34a.33.33,0,0,0,0,.47l.12.12-1,1a.71.71,0,0,0,0,1,.72.72,0,0,0,1,0l1-1,.2.2a.32.32,0,0,0,.23.09.33.33,0,0,0,.23-.09l3.34-3.35A.32.32,0,0,0,84.72,78.67Z"/><path class="cls-12" d="M38.09,73.14V72.05a.34.34,0,0,0-.34-.33,5,5,0,0,1-.17-.9c-.08-.88-1.14-.87-2.25-.85-1.88,0-3.34-.07-3.67-1.72-.73-3.61-4.9-3.94-4.94-3.94a.31.31,0,0,0-.32.16L22.1,71.72h-.36a.35.35,0,0,0-.34.33v1.09Z"/><path class="cls-12" d="M36.82,74.27a.14.14,0,0,1,0,.06.68.68,0,0,1-.68.68H22.38a.68.68,0,0,1-.68-.68s0,0,0,0-1.47,0-1.47,0a.33.33,0,0,0-.33.33L19.85,76a.38.38,0,0,0,.09.25.39.39,0,0,0,.25.1h1.72l.13,7.2a.34.34,0,0,0,.34.34h0a.35.35,0,0,0,.33-.35l-.14-7.19H36.52v7.2a.34.34,0,1,0,.67,0v-7.2h.57A.34.34,0,0,0,38.1,76v-1.7Z"/><path class="cls-12" d="M55.91,50.65l-6.59-5.2a.62.62,0,0,0-.88.1.63.63,0,0,0,.1.88l.46.36c.31.71-.23,1.28-.49,2.84-.31,1.9-.35,6.84-1.81,6.84-.52,0-.69-4.71-.75-8.23h.1a.63.63,0,0,0,0-1.25h-.11c0-.2,0-.41,0-.59H46a.63.63,0,0,0,0-1.25h-.06v-.59H46a.63.63,0,0,0,0-1.26h0l0-.59a.62.62,0,0,0,0-1.23c0-.62,0-1.23,0-1.86,0-2.55-.23-3.85-1.7-4.31s-3,2.81-4.41,3.74v1.21c1.72-.46,2.65-2.66,3.48-2.44s-1.34,11.15-2.22,17,5.1,7.81,8.58,5.81,2.63-6.31,3.45-8.23c.37-.87,1.49-.77,1.9-.7,0,0,.08,0,.12.05h0a.62.62,0,0,0,.19.07.63.63,0,0,0,.49-.24A.62.62,0,0,0,55.91,50.65Z"/><path class="cls-12" d="M38.75,39.25a6.68,6.68,0,0,1-1.44-.45c-.84-.35-.92.1-.37.65a4.27,4.27,0,0,0,1.81.83Z"/><path class="cls-12" d="M90.14,45.79l-3.42-6.1a.59.59,0,0,0-.78-.22.57.57,0,0,0-.22.78l.14.27c-.37.95-1.64,3.95-3,4.75l-4.59,2.65-.45-.81a.59.59,0,0,0-.78-.23.57.57,0,0,0-.22.78l.46.84-1.09.62-.47-.85a.59.59,0,0,0-.78-.22.57.57,0,0,0-.23.78l.49.87L74,50.34l-.5-.88a.57.57,0,0,0-.78-.23.59.59,0,0,0-.22.78l.5.91-4.62,2.66a.65.65,0,0,0-.23.88.63.63,0,0,0,.87.23l1-.56a2.94,2.94,0,0,0,.38,1.62,2.88,2.88,0,0,0,3.93,1.07L82.66,52A2.83,2.83,0,0,0,83.8,50.8a2.88,2.88,0,0,0-1.31-3.86l1-.56c1.35-.78,4.42-.43,5.54-.27l.13.24a.58.58,0,0,0,.51.3.6.6,0,0,0,.28-.08A.58.58,0,0,0,90.14,45.79Zm-7.53,2.93A1.6,1.6,0,0,1,82,50.9L73.7,55.7a1.6,1.6,0,0,1-1.6-2.77l1.56-.9.4.72a.58.58,0,0,0,.5.3.58.58,0,0,0,.5-.86l-.4-.73,1.12-.65.41.76a.57.57,0,0,0,.5.29.55.55,0,0,0,.28-.07A.57.57,0,0,0,77.2,51l-.43-.77,1.09-.63.43.79a.58.58,0,0,0,.51.3.6.6,0,0,0,.28-.08.58.58,0,0,0,.22-.78l-.45-.8,1.57-.91A1.6,1.6,0,0,1,82.61,48.72Z"/><path class="cls-12" d="M119.25,41.1a.3.3,0,0,0-.36-.27l-9.12,2.55a.28.28,0,0,0-.21.27v8.41a3.19,3.19,0,0,0-2.09-.73c-1.56,0-2.84,1-2.84,2.22s1.28,2.23,2.84,2.23,2.84-1,2.84-2.23V46.68l8.18-2.29v6.18a3.25,3.25,0,0,0-2.09-.73c-1.56,0-2.84,1-2.84,2.23s1.28,2.22,2.84,2.22,2.84-1,2.84-2.22v-11Z"/><path class="cls-12" d="M21.18,48.28a12.08,12.08,0,0,0-1-4.94,1.58,1.58,0,0,0,.56-1.2,1.61,1.61,0,1,0-2.18,1.49H16.28v-.34a.46.46,0,0,0-.46-.46.45.45,0,0,0-.45.46v.34H13.88v-.76a.46.46,0,0,0-.91,0v.76H11.35V42.7a.46.46,0,0,0-.91,0v.93h-2a1.6,1.6,0,1,0-2.17-1.49,1.58,1.58,0,0,0,.38,1,23.28,23.28,0,0,0-.63,5A8.07,8.07,0,0,0,8,54a7.45,7.45,0,0,0,5.61,2.06,7.46,7.46,0,0,0,5.61-2A7.87,7.87,0,0,0,21.18,48.28ZM7.52,48.21a19.28,19.28,0,0,1,.61-3.71h2.31V53a7.2,7.2,0,0,1-1.32-.81A5.14,5.14,0,0,1,7.52,48.21Zm3.83,5.18V44.5H13v9.16A6.39,6.39,0,0,1,11.35,53.39Zm2.53.26V44.5h1.49v9A5.77,5.77,0,0,1,13.88,53.65ZM18,52.13a6.31,6.31,0,0,1-1.7,1V44.5h2.63A11.37,11.37,0,0,1,19.58,48,5.51,5.51,0,0,1,18,52.13Z"/><path class="cls-13" d="M188.69,89.89h-7.15a.62.62,0,0,0-.61.62v4.61a.62.62,0,0,0,.61.61h.82a.59.59,0,0,1,.53-.35h4.46a.59.59,0,0,1,.53.35h.81a.62.62,0,0,0,.62-.61V90.51A.62.62,0,0,0,188.69,89.89Z"/><path class="cls-13" d="M191.61,91.18a.57.57,0,0,1-.45-.24l-3.44-5.2a.55.55,0,0,1,.15-.75.55.55,0,0,1,.75.15l3.44,5.2a.54.54,0,0,1-.45.84Z"/><path class="cls-13" d="M187.17,105.8h-1.5V96.57s0,0,0,0h-1a.09.09,0,0,0,0,0v9.23h-1.54a.54.54,0,0,0,0,1.07h4.11a.54.54,0,1,0,0-1.07Z"/><path class="cls-13" d="M186.5,19.27A.6.6,0,0,1,186,19a.59.59,0,0,1,.21-.8L194,13.69a.58.58,0,0,1,.8.21.59.59,0,0,1-.21.8l-7.77,4.49A.6.6,0,0,1,186.5,19.27Z"/><path class="cls-13" d="M185.68,22.24a.59.59,0,0,1-.37-.14l-6.87-5.76a.6.6,0,0,1-.08-.83.59.59,0,0,1,.83-.07l6.87,5.76a.59.59,0,0,1,.07.83A.57.57,0,0,1,185.68,22.24Z"/><path class="cls-13" d="M193.86,32v-6.5a0,0,0,0,0,0,0,.59.59,0,0,0,.35-.53.58.58,0,0,0-.59-.59H179.47a.58.58,0,0,0-.59.59.57.57,0,0,0,.35.53s0,0,0,0V32a.6.6,0,0,0-.34.53.58.58,0,0,0,.59.59h14.14a.58.58,0,0,0,.59-.59A.57.57,0,0,0,193.86,32Zm-7.68-.06-1.57-6.42h4.06L187,31.92Zm-4,0h-.79l-1.61-6.42h4Zm8.91,0-1.44-6.42h3.71l-1.49,6.42Z"/><path class="cls-13" d="M216.05,73.81a2.09,2.09,0,0,1-.9.51,1,1,0,0,1-.42.1h0a.8.8,0,0,1-.15,0A2.12,2.12,0,0,1,213,70.82l2.67-2.71-.2,0a5.32,5.32,0,0,0-1.2-.14,4.72,4.72,0,0,0-3,1l-.42.35a.45.45,0,0,0-.12.52,2.45,2.45,0,0,1-2.24,3.45,2.5,2.5,0,0,1-1.39-.43.38.38,0,0,0-.25-.08.42.42,0,0,0-.28.1l-.53.44a5.3,5.3,0,0,0-1.75,5.38l.09.25,2.68-2.68a1.52,1.52,0,0,1,2.16,0l1.32,1.32a1.53,1.53,0,0,1,0,2.17l-2.71,2.71.3.09a5,5,0,0,0,1.33.17,5.32,5.32,0,0,0,4.08-1.91l.43-.53a.44.44,0,0,0,0-.53,2.45,2.45,0,0,1,.62-3.41A2.41,2.41,0,0,1,216,75.9a2.55,2.55,0,0,1,1,.22.39.39,0,0,0,.18,0,.48.48,0,0,0,.35-.16l.34-.41a5.12,5.12,0,0,0,.8-4.46Z"/><path class="cls-13" d="M215.28,85.67a.69.69,0,0,1-.5-.2.72.72,0,0,1,0-1L228,71.07a.71.71,0,0,1,1,0,.7.7,0,0,1,0,1l-13.2,13.39A.75.75,0,0,1,215.28,85.67Z"/><path class="cls-13" d="M224.4,64.15l-.41-.42.32-.32a.71.71,0,0,0-1-1l-.31.32-.39-.4a.71.71,0,0,0-1,1l.4.4-.44.44-.41-.4a.71.71,0,0,0-1,1l.41.42L214,71.81a.72.72,0,0,0,0,1,.74.74,0,0,0,.5.2.73.73,0,0,0,.51-.21l6.52-6.61.39.4a.74.74,0,0,0,1,0,.73.73,0,0,0,0-1l-.41-.4.44-.45.41.41a.7.7,0,0,0,.5.21.69.69,0,0,0,.5-.21A.7.7,0,0,0,224.4,64.15Z"/><path class="cls-13" d="M209.69,78.43l-1.32-1.32a.34.34,0,0,0-.46,0l-3.3,3.3a.32.32,0,0,0,0,.46l.12.13-1,1a.71.71,0,0,0,.5,1.21.71.71,0,0,0,.51-.21l1-1,.19.19a.3.3,0,0,0,.23.1.32.32,0,0,0,.23-.1l3.3-3.3A.32.32,0,0,0,209.69,78.43Z"/><path class="cls-13" d="M163.65,73V71.9a.33.33,0,0,0-.33-.33,4.48,4.48,0,0,1-.18-.88c-.08-.88-1.12-.86-2.22-.84-1.85,0-3.29-.07-3.62-1.7-.73-3.56-4.84-3.89-4.88-3.89a.29.29,0,0,0-.31.16l-4.24,7.15h-.35a.34.34,0,0,0-.34.33V73Z"/><path class="cls-13" d="M162.4,74.09s0,0,0,.06a.67.67,0,0,1-.67.67h-13.6a.67.67,0,0,1-.67-.67.08.08,0,0,1,0,0s-1.45,0-1.45,0a.34.34,0,0,0-.34.32l-.05,1.33a.38.38,0,0,0,.09.25.37.37,0,0,0,.24.1h1.7l.13,7.11a.34.34,0,0,0,.34.33h0a.34.34,0,0,0,.33-.34l-.13-7.1h13.75v7.1a.34.34,0,1,0,.67,0v-7.1h.57a.34.34,0,0,0,.23-.1.35.35,0,0,0,.1-.24V74.09Z"/><path class="cls-13" d="M181.24,50.77l-6.51-5.14a.61.61,0,0,0-.86.11.6.6,0,0,0,.1.86l.45.36c.3.7-.23,1.27-.48,2.81-.31,1.87-.35,6.75-1.79,6.75-.52,0-.69-4.65-.74-8.13h.09a.62.62,0,1,0,0-1.23h-.11v-.59h.05a.61.61,0,0,0,.62-.61.62.62,0,0,0-.62-.62h-.06v-.58h.06a.62.62,0,1,0,0-1.24h0c0-.2,0-.39,0-.59a.61.61,0,0,0,.05-1.21c0-.61,0-1.22.06-1.83,0-2.53-.23-3.81-1.68-4.27s-3,2.78-4.36,3.7v1.19c1.7-.45,2.62-2.62,3.44-2.41s-1.32,11-2.2,16.74,5,7.71,8.48,5.73,2.6-6.22,3.41-8.12c.36-.85,1.46-.76,1.87-.69,0,0,.08,0,.12,0h0a.6.6,0,0,0,.19.06.62.62,0,0,0,.38-1.1Z"/><path class="cls-13" d="M164.3,39.52a6.35,6.35,0,0,1-1.42-.45c-.83-.34-.91.1-.36.64a4.35,4.35,0,0,0,1.78.83Z"/><path class="cls-13" d="M215,46l-3.37-6a.57.57,0,1,0-1,.55l.14.26c-.37.94-1.62,3.9-3,4.69l-4.53,2.62-.45-.81a.58.58,0,0,0-.77-.22.57.57,0,0,0-.22.77l.46.82-1.08.62-.46-.83a.58.58,0,0,0-.77-.23.56.56,0,0,0-.22.77l.47.86-1.1.64-.49-.88a.58.58,0,0,0-.77-.22.57.57,0,0,0-.22.77l.49.9-4.56,2.63a.63.63,0,0,0-.23.86.63.63,0,0,0,.86.23l1-.55a2.88,2.88,0,0,0,.38,1.6,2.84,2.84,0,0,0,3.88,1l8.21-4.74a2.84,2.84,0,0,0-.17-5l1-.55c1.32-.77,4.35-.43,5.46-.27l.13.24a.57.57,0,0,0,.5.29.52.52,0,0,0,.27-.07A.56.56,0,0,0,215,46Zm-7.43,2.89A1.58,1.58,0,0,1,207,51l-8.22,4.74A1.57,1.57,0,1,1,197.23,53l1.54-.89.39.71a.58.58,0,0,0,.5.29.68.68,0,0,0,.27-.07.57.57,0,0,0,.22-.77l-.4-.73,1.1-.64.42.75a.56.56,0,0,0,.49.29.55.55,0,0,0,.28-.07.57.57,0,0,0,.22-.77l-.43-.76,1.08-.62.43.78a.59.59,0,0,0,.5.29.68.68,0,0,0,.27-.07.57.57,0,0,0,.22-.77l-.44-.8,1.55-.89A1.58,1.58,0,0,1,207.6,48.87Z"/><path class="cls-13" d="M243.77,41.35a.27.27,0,0,0-.11-.22.26.26,0,0,0-.24-.05l-9,2.51a.29.29,0,0,0-.2.27v8.3a3.16,3.16,0,0,0-2.06-.72,2.56,2.56,0,0,0-2.8,2.2c0,1.21,1.25,2.19,2.8,2.19s2.8-1,2.8-2.19V46.85L243,44.59V50.7A3.2,3.2,0,0,0,241,50c-1.54,0-2.8,1-2.8,2.19a2.56,2.56,0,0,0,2.8,2.2c1.55,0,2.81-1,2.81-2.2h0Z"/><path class="cls-13" d="M147,48.43a11.9,11.9,0,0,0-1-4.87,1.59,1.59,0,1,0-1.6.29h-2.24V43.5a.45.45,0,0,0-.9,0v.35h-1.46V43.1a.46.46,0,1,0-.91,0v.75h-1.59v-.92a.45.45,0,1,0-.9,0v.92h-2a1.59,1.59,0,1,0-2.14-1.48,1.55,1.55,0,0,0,.38,1,24,24,0,0,0-.63,4.94,8,8,0,0,0,2,5.74,8.62,8.62,0,0,0,11.08,0A7.78,7.78,0,0,0,147,48.43Zm-13.48-.07a18,18,0,0,1,.6-3.66h2.28v8.43a7.07,7.07,0,0,1-1.31-.8A5.06,5.06,0,0,1,133.47,48.36Zm3.78,5.12V44.7h1.59v9A6.6,6.6,0,0,1,137.25,53.48Zm2.5.25v-9h1.46v8.88A6,6,0,0,1,139.75,53.73Zm4-1.5a6,6,0,0,1-1.68,1V44.7h2.6a11.05,11.05,0,0,1,.66,3.44A5.38,5.38,0,0,1,143.79,52.23Z"/></g></g></svg>