<svg xmlns="http://www.w3.org/2000/svg" viewBox="0 0 250 250"><defs><style>.cls-1{fill:#15253e;}.cls-2{fill:#233568;}.cls-3{fill:#a9cc66;}.cls-4{opacity:0.9;}.cls-5{fill:#dedc0a;}.cls-6{fill:#95c122;}</style></defs><g id="Ebene_2" data-name="Ebene 2"><g id="Images"><rect class="cls-1" width="250" height="250"/><path class="cls-2" d="M99,10.71c-4,3.14-7.91,6.79-9,11.94-1.33,6.18,1.5,11.94,4.11,17.37a41.78,41.78,0,0,1,3.17,8,21.69,21.69,0,0,1,.19,9.18C95.22,69.29,85.53,78,75.36,84c-5.78,3.38-11.67,6.4-16.7,10.9a58.8,58.8,0,0,0-11.22,13.9,75.37,75.37,0,0,0-7,16.2c-1.47,4.84-2.91,10-6.11,13.78a18.7,18.7,0,0,1-2,2,10.59,10.59,0,0,1-1.92,1.35c-.3.17-.62.33-.94.49l-.36.17-.17.06a17.58,17.58,0,0,1-2.23.62l-.22.05h-.21c-.36,0-.71.05-1.07.05l-.86,0-.49,0h0c-.56-.15-1.13-.23-1.69-.41l-.54-.2-.61-.3c-.2-.11-.4-.22-.59-.35l-.27-.18h0a6.1,6.1,0,0,1-1.46-1.81,17.8,17.8,0,0,1-2-5.91c-.74-4.08-.59-9.14,1.41-12.67a137.22,137.22,0,0,0,6.45-12.17,77,77,0,0,0,5.54-16.78c1.34-7,1.36-14.76-1.63-21.37-3.52-7.75-11.38-12-19.35-13.76A52.66,52.66,0,0,0,0,56.27v5A39.09,39.09,0,0,1,15.38,65a20.94,20.94,0,0,1,4.42,2.93,14.63,14.63,0,0,1,3.05,3.56,19.3,19.3,0,0,1,1.1,2l.21.46,0,0v0c.17.44.33.87.48,1.31a26.75,26.75,0,0,1,1,4.12v.08h0l.06.55.09.92c.05.71.09,1.42.11,2.13a37.83,37.83,0,0,1-.3,6.2c-1.44,10.3-6,20.37-11.43,29.17-2.56,4.15-3.19,9.31-2.74,14.1.42,4.46,1.6,9.79,5.09,12.94,4.55,4.1,11.8,3.76,16.78.69a23.31,23.31,0,0,0,8.37-9.78c2.68-5.49,3.74-11.58,6.11-17.2,4.65-11,12.11-20.45,22.48-26.59,5.66-3.35,11.42-6.33,16.58-10.46a45.93,45.93,0,0,0,12-14,31.32,31.32,0,0,0,3.69-19.33c-.93-6.12-4.51-11.23-6.62-16.93-.93-2.49-1.65-5.24-1.08-7.9A12,12,0,0,1,98,18.27c3.47-3.68,8-6.2,11.37-9.94A20.48,20.48,0,0,0,113.9.58,2.5,2.5,0,0,0,114,0h-5.2C107.05,4.68,102.83,7.69,99,10.71Z"/><path class="cls-2" d="M250,56.28h-.13A22.37,22.37,0,0,0,235,61a30.49,30.49,0,0,0-8,10.68c-2.37,4.86-4.49,9.82-7.93,14a33.88,33.88,0,0,1-3.79,4c-.29.26-.59.51-.89.76l-.23.19-.24.18a19.71,19.71,0,0,1-2.51,1.59c-5,2.58-11,2.28-16.38,3.45a23.85,23.85,0,0,0-13.5,8.27,60.74,60.74,0,0,0-8,13.83c-2.25,5-4.29,10.07-7.67,14.42a30.1,30.1,0,0,1-9.39,8.07,38.18,38.18,0,0,1-9.77,3.59c-3,.73-6.07,1.22-9.07,2a27.06,27.06,0,0,0-3.74,1.18c-2.41,1-4.88,1.93-7.24,3a16.56,16.56,0,0,0-6.87,6.11,20.73,20.73,0,0,0-3.24,6.93c-.81,4.07.51,8.38,1.69,12.24,2.82,9.19,7.24,19,4.43,28.75a24.38,24.38,0,0,1-5.26,9.23c-2.2,2.49-4.73,4.67-6.91,7.19a16.1,16.1,0,0,0-4.25,8.71c-.54,4.6,1.92,8.41,2.93,12.73a14.35,14.35,0,0,1,0,7.16,2.84,2.84,0,0,0-.09.75H114a19.4,19.4,0,0,0,.14-8,55.66,55.66,0,0,0-2.43-7.56c-.15-.46-.28-.93-.39-1.39,0-.16-.17-.94-.19-1a12.41,12.41,0,0,1,0-2.28v0c0-.16,0-.32.08-.48.07-.32.15-.63.25-.95,0-.1.21-.56.24-.65a8.79,8.79,0,0,1,.43-.87,16.58,16.58,0,0,1,1.13-1.73l0,0,0,0,.39-.47c.27-.32.54-.63.82-.94,1-1.14,2.15-2.22,3.25-3.31a43.68,43.68,0,0,0,7-8.44,27.84,27.84,0,0,0,3.78-13c.21-5.17-1.06-10.37-2.54-15.3-1.38-4.62-3.14-9.16-4.21-13.88a14.48,14.48,0,0,1-.49-4.9s0-.06,0-.09a.37.37,0,0,1,0-.09c0-.17.07-.33.11-.5a5.7,5.7,0,0,1,.36-1,29.1,29.1,0,0,1,2-3.91,12.34,12.34,0,0,1,5.86-4.91c1.44-.61,2.93-1.11,4.36-1.74.46-.2.91-.42,1.36-.63l.54-.21a58.9,58.9,0,0,1,8.17-2c7.39-1.5,14.41-3.83,20.29-8.72a39.13,39.13,0,0,0,9.13-11.37c2.64-4.81,4.48-10,7-14.87,2.22-4.25,4.92-8.62,9-11.33,4.61-3.08,10.26-3.26,15.58-4.08a25.62,25.62,0,0,0,13-5.55A40.12,40.12,0,0,0,226.29,84c4.74-7.65,7-18.42,16.35-21.74a19.5,19.5,0,0,1,7.23-1H250Zm-114.58,95.6h0C135.57,151.82,135.83,151.72,135.42,151.88Z"/><path class="cls-2" d="M152,138.12h-6.42V105a1.78,1.78,0,0,0-3.56,0v3.38H109V105a1.78,1.78,0,0,0-3.56,0v33.12H98.78a1.78,1.78,0,0,0,0,3.56h15.48l1,.92a1.22,1.22,0,0,0,.24.32l7,6.49-14.94,13.72a1.78,1.78,0,1,0,2.4,2.62l1.16-1.06a1.91,1.91,0,0,0,.46-.3l13.69-12.45,15,13.81a1.78,1.78,0,0,0,2.4-2.62L128,149.54l8.62-7.86H152a1.78,1.78,0,0,0,0-3.56Zm-21,3.56L125.18,147l-5.78-5.31ZM142,125v13.12H109V125Z"/><path class="cls-2" d="M25.08,224.6a4.39,4.39,0,0,1,1.21-3.2,26,26,0,0,1-11.66-17l-3-4.32h-1a29.47,29.47,0,0,0,14.5,24.77A2,2,0,0,1,25.08,224.6Z"/><path class="cls-2" d="M24.14,175.71a4.46,4.46,0,0,1,1.9,2,25.78,25.78,0,0,1,26.89-.75l3.41-.21.79-1.32a29.34,29.34,0,0,0-34-.06A5.69,5.69,0,0,1,24.14,175.71Z"/><path class="cls-2" d="M68.24,200.78a4.45,4.45,0,0,1-2.22-.61,25.93,25.93,0,0,1-12.69,21.58l-.88,1.83,1.19,2.08a29.51,29.51,0,0,0,15.91-25.09A4.43,4.43,0,0,1,68.24,200.78Z"/><path class="cls-2" d="M52.12,230.16l-3.69-6.43,3.2-6.68a.9.9,0,0,0-.1-1,.93.93,0,0,0-.92-.34l-7.25,1.52L38,212.15a1,1,0,0,0-1-.2.94.94,0,0,0-.6.77l-.79,7.38-6.52,3.52a.94.94,0,0,0-.49.85,1,1,0,0,0,.55.81l6.76,3,1.34,7.29a.92.92,0,0,0,.66.72.78.78,0,0,0,.26,0,.91.91,0,0,0,.68-.31l5-5.49,7.35,1a1,1,0,0,0,.89-.4A.91.91,0,0,0,52.12,230.16Z"/><path class="cls-2" d="M69.15,196.22l-.65-7.38,5.72-4.72a.93.93,0,0,0-.38-1.62l-7.22-1.66-2.72-6.9a.93.93,0,0,0-.79-.58.91.91,0,0,0-.87.45l-3.82,6.35-7.39.46a.92.92,0,0,0-.64,1.53l4.86,5.59-1.85,7.18a.91.91,0,0,0,.29.93.74.74,0,0,0,.22.14.91.91,0,0,0,.74,0l6.83-2.9,6.25,4a.93.93,0,0,0,1,0A.92.92,0,0,0,69.15,196.22Z"/><path class="cls-2" d="M19.33,202.3l2.22-7.07,7.09-2.18a1,1,0,0,0,.64-.74.93.93,0,0,0-.38-.9l-6-4.3L23,179.7a.92.92,0,0,0-1.47-.76l-6,4.42-7-2.41a.93.93,0,0,0-1.18,1.17l2.36,7-4.45,5.93a.92.92,0,0,0-.09,1,1.07,1.07,0,0,0,.15.22,1,1,0,0,0,.69.29l7.41-.07,4.26,6.06a.93.93,0,0,0,.9.38A.91.91,0,0,0,19.33,202.3Z"/><path class="cls-2" d="M181.78,62.21h-6.42A1.78,1.78,0,0,0,173.58,64v4.82a1.78,1.78,0,0,0,1.78,1.78h1.47a1.74,1.74,0,0,0,3.47,0h1.48a1.78,1.78,0,0,0,1.77-1.78V64A1.78,1.78,0,0,0,181.78,62.21Z"/><path class="cls-2" d="M224.14,43.6l-4.36-4a3.54,3.54,0,0,0-1.05-.67l-3-1.24a3.43,3.43,0,0,0-5.29-2.2L207,34a3.56,3.56,0,0,0-4.65,1.92l-1.65,3.94a3.57,3.57,0,0,0,1.92,4.65l2.29,1L194.67,66.41a3.56,3.56,0,0,0,6.39,3.13l10.45-21.33,2.83,1.18a3.71,3.71,0,0,0,1.31.28l6,.1a3.49,3.49,0,0,0,1.21-.19,3.56,3.56,0,0,0,1.27-6Z"/><path class="cls-2" d="M178.57,15.48a18,18,0,0,0-18,18c0,5.57,3.6,10.23,6.78,14.34,2.47,3.19,4.8,6.2,4.8,8.82a1.78,1.78,0,0,0,1.77,1.78h9.27A1.78,1.78,0,0,0,185,56.63c0-2.62,2.32-5.63,4.79-8.82,3.18-4.11,6.79-8.77,6.79-14.34A18,18,0,0,0,178.57,15.48Zm12.5,18.61a.64.64,0,0,0,0,.1l-5.41,13.15A1.78,1.78,0,1,1,182.33,46l2.84-6.92a6.56,6.56,0,0,1-1,.09,7.82,7.82,0,0,1-5.35-2.34,6.73,6.73,0,0,1-5.53,2.34,8.53,8.53,0,0,1-1-.1l3.22,7.47a1.78,1.78,0,1,1-3.26,1.41l-5.68-13.17a7.64,7.64,0,0,1-.33-.78,1.78,1.78,0,0,1,3.33-1.24l.28.65a4.12,4.12,0,0,0,3.62,2.2,3.24,3.24,0,0,0,3.52-2.6,1.78,1.78,0,0,1,1.6-1.31,1.69,1.69,0,0,1,1.76,1.08c.05.11,1.27,2.71,3.8,2.83,2.39,0,3.49-2.4,3.64-2.76l0-.07a1.78,1.78,0,0,1,3.31,1.32Z"/><path class="cls-2" d="M57.31,28.21a12.59,12.59,0,0,0-6.15,1.57L68.26,47a12.8,12.8,0,0,0,1.6-6.08A12.62,12.62,0,0,0,57.31,28.21Z"/><path class="cls-2" d="M44.71,40.83c-.59,3.42,9.33,13.23,12.6,12.6a12.46,12.46,0,0,0,8.8-3.61L48.32,32A12.6,12.6,0,0,0,44.71,40.83Z"/><path class="cls-2" d="M52.61,55.56A29.49,29.49,0,0,1,43.25,46a1.32,1.32,0,0,0-2.12-.21L12.05,77.67a1.33,1.33,0,0,0,0,1.83l5.77,5.89a1.35,1.35,0,0,0,.95.39,1.32,1.32,0,0,0,.86-.31l33.1-27.76a1.34,1.34,0,0,0-.15-2.15Zm-8.49,2.67L32.68,68.47a2,2,0,0,1-1.46.54,2.09,2.09,0,0,1-1.53-.75,2.24,2.24,0,0,1,.22-3.09L41.35,54.93a2.07,2.07,0,0,1,3,.21A2.24,2.24,0,0,1,44.12,58.23Z"/><path class="cls-2" d="M219,181.07c-.7-5.17-7.16-9.93-7.44-10.13a1.05,1.05,0,0,0-.84-.19,1.1,1.1,0,0,0-.7.5c-1.69,2.84-2.77,6.79-4,11.36-.16.61-.35,1.27-.53,1.9-8.84-6.12-12.24-10.65-13.36-12.48,5.34-2,17.87-3,18-3l.08-.05a1,1,0,0,0,.46-.19.52.52,0,0,0,.11-.1.41.41,0,0,0,.1-.13c0-.05.09-.07.12-.12s0-.11,0-.17.08-.1.09-.17,0-.07,0-.12,0-.06,0-.1-.05-.08-.06-.13a.85.85,0,0,0-.11-.26.76.76,0,0,0-.13-.23.83.83,0,0,0-.21-.16s0-.07-.08-.09c-10.76-5.33-16.73-6.71-17-6.77a1,1,0,0,0-1.27.81,1.07,1.07,0,0,0,.8,1.28A69,69,0,0,1,203.29,166c-7.51-1-9.75-1.43-9.78-1.43a1.07,1.07,0,0,0-1.25.84,1.05,1.05,0,0,0,.84,1.25c.1,0,2,.38,8.18,1.23-4.16.61-8.74,1.49-11.12,2.68-.11.06-.15.18-.24.27a1,1,0,0,0-.25.3,1,1,0,0,0,0,.42c0,.12-.05.23,0,.34s2.43,6.07,15.25,14.81a87.25,87.25,0,0,1-5.16,13.95c-4.32,9-8,11.37-12.46,12.33a1.07,1.07,0,0,0-.84,1.11c.2,3.29,1.69,6.48,3.28,9.86.71,1.5,1.45,3.07,2.1,4.72a6,6,0,0,0,3.67,3.59,8.51,8.51,0,0,0,2.7.42,15.11,15.11,0,0,0,7-1.94c2.22-1.28,2.32-8.49,1.71-22.24-.07-1.67-.13-3.05-.15-3.94-.07-4.86,8.25-15.27,11-18.69A6.12,6.12,0,0,0,219,181.07Z"/><path class="cls-3" d="M161.67,133.76h-6.43V100.63a1.78,1.78,0,0,0-3.56,0V104h-33v-3.39a1.78,1.78,0,0,0-3.56,0v33.13h-6.64a1.78,1.78,0,1,0,0,3.56h15.47l1,.91a1.85,1.85,0,0,0,.24.33l7.06,6.48-14.95,13.72a1.78,1.78,0,1,0,2.41,2.62l1.15-1.06a1.38,1.38,0,0,0,.46-.29L135,147.58l15,13.8a1.74,1.74,0,0,0,1.2.47,1.78,1.78,0,0,0,1.2-3.09l-14.8-13.59,8.62-7.85h15.42a1.78,1.78,0,0,0,0-3.56Zm-21,3.56-5.78,5.3-5.78-5.3Zm11-16.69v13.13h-33V120.63Z"/><g class="cls-4"><path class="cls-5" d="M34.75,220.23A4.4,4.4,0,0,1,36,217,26,26,0,0,1,24.3,200l-3-4.32h-1a29.52,29.52,0,0,0,14.5,24.77A2.17,2.17,0,0,1,34.75,220.23Z"/><path class="cls-5" d="M33.81,171.34a4.51,4.51,0,0,1,1.9,2,25.77,25.77,0,0,1,26.9-.74l3.4-.21L66.8,171a29.3,29.3,0,0,0-34-.06A4.53,4.53,0,0,1,33.81,171.34Z"/><path class="cls-5" d="M77.91,196.42a4.49,4.49,0,0,1-2.22-.62A26,26,0,0,1,63,217.39l-.88,1.82,1.19,2.08A29.52,29.52,0,0,0,79.23,196.2,4.25,4.25,0,0,1,77.91,196.42Z"/><path class="cls-5" d="M61.8,225.79l-3.7-6.43,3.21-6.68a.93.93,0,0,0-1-1.31L53,212.9l-5.37-5.11a.91.91,0,0,0-1-.2.93.93,0,0,0-.6.77l-.79,7.37-6.52,3.52a.92.92,0,0,0,.06,1.66l6.77,3L47,231.23a1,1,0,0,0,.66.73l.26,0a.93.93,0,0,0,.68-.3l5-5.5,7.35,1a.93.93,0,0,0,.93-1.38Z"/><path class="cls-5" d="M78.83,191.86l-.65-7.39,5.71-4.72a.9.9,0,0,0,.31-.92.92.92,0,0,0-.69-.69l-7.22-1.67-2.72-6.89a.94.94,0,0,0-.79-.59.92.92,0,0,0-.86.45l-3.82,6.35-7.4.46a.92.92,0,0,0-.64,1.53l4.86,5.59-1.85,7.18a.92.92,0,0,0,.29.93,1.14,1.14,0,0,0,.23.15,1,1,0,0,0,.74,0l6.82-2.9,6.26,4a.93.93,0,0,0,1.42-.86Z"/><path class="cls-5" d="M29,197.93l2.22-7.07,7.09-2.18a.93.93,0,0,0,.26-1.64l-6-4.3.11-7.41a.94.94,0,0,0-.5-.84.92.92,0,0,0-1,.08l-6,4.42-7-2.4a.91.91,0,0,0-.95.22.92.92,0,0,0-.23.95l2.36,7-4.45,5.93a.94.94,0,0,0-.09,1,1.25,1.25,0,0,0,.16.22.91.91,0,0,0,.68.29l7.41-.07,4.26,6.07a1,1,0,0,0,.9.38A.92.92,0,0,0,29,197.93Z"/></g><path class="cls-5" d="M191.45,57.85H185a1.78,1.78,0,0,0-1.78,1.78v4.81A1.78,1.78,0,0,0,185,66.22h1.47a1.75,1.75,0,0,0,3.48,0h1.47a1.78,1.78,0,0,0,1.78-1.78V59.63A1.78,1.78,0,0,0,191.45,57.85Z"/><path class="cls-5" d="M233.81,39.24l-4.36-4.05a3.75,3.75,0,0,0-1-.67l-3-1.23a3.49,3.49,0,0,0-1.85-2.45,3.54,3.54,0,0,0-3.44.24l-3.46-1.44A3.54,3.54,0,0,0,212,31.55l-1.64,3.94a3.54,3.54,0,0,0,1.91,4.65l2.29,1L204.34,62.05a3.56,3.56,0,0,0,6.39,3.13l10.45-21.34L224,45a3.5,3.5,0,0,0,1.31.28l6,.11a3.56,3.56,0,0,0,2.48-6.17Z"/><path class="cls-5" d="M188.24,11.11a18,18,0,0,0-18,18c0,5.57,3.6,10.23,6.78,14.35,2.47,3.18,4.8,6.2,4.8,8.81A1.77,1.77,0,0,0,183.61,54h9.26a1.78,1.78,0,0,0,1.78-1.78c0-2.61,2.33-5.63,4.79-8.81,3.18-4.12,6.79-8.78,6.79-14.35A18,18,0,0,0,188.24,11.11Zm12.5,18.62a.41.41,0,0,0,0,.09L195.3,43a1.78,1.78,0,1,1-3.3-1.36l2.85-6.91a8.41,8.41,0,0,1-1,.09,7.83,7.83,0,0,1-5.35-2.35A6.76,6.76,0,0,1,183,34.8c-.37,0-.72-.06-1-.11l3.23,7.47a1.78,1.78,0,1,1-3.27,1.41L176.18,30.4a7.64,7.64,0,0,1-.33-.78,1.78,1.78,0,0,1,3.33-1.24l.28.65a4.17,4.17,0,0,0,3.63,2.21,3.23,3.23,0,0,0,3.51-2.6,1.78,1.78,0,0,1,1.6-1.32A1.69,1.69,0,0,1,190,28.4c0,.11,1.27,2.71,3.8,2.84,2.39,0,3.49-2.41,3.64-2.76l0-.07a1.78,1.78,0,0,1,3.31,1.32Z"/><path class="cls-6" d="M67,23.84a12.62,12.62,0,0,0-6.15,1.57l17.1,17.2A12.62,12.62,0,0,0,67,23.84Z"/><path class="cls-6" d="M54.38,36.46c-.59,3.43,9.33,13.24,12.6,12.6a12.44,12.44,0,0,0,8.8-3.61L58,27.59A12.64,12.64,0,0,0,54.38,36.46Z"/><path class="cls-6" d="M62.28,51.2a29.39,29.39,0,0,1-9.35-9.54,1.34,1.34,0,0,0-2.13-.2L21.72,73.3a1.34,1.34,0,0,0,0,1.84L27.52,81a1.34,1.34,0,0,0,1.81.09l33.1-27.77a1.3,1.3,0,0,0,.47-1.11A1.27,1.27,0,0,0,62.28,51.2Zm-8.49,2.66L42.36,64.1a2.06,2.06,0,0,1-1.46.54,2.11,2.11,0,0,1-1.54-.75,2.25,2.25,0,0,1,.22-3.09L51,50.56a2.07,2.07,0,0,1,3,.21A2.23,2.23,0,0,1,53.79,53.86Z"/><path class="cls-6" d="M228.7,176.7c-.69-5.16-7.16-9.93-7.44-10.13a1,1,0,0,0-.84-.18,1,1,0,0,0-.7.5c-1.69,2.84-2.77,6.78-4,11.35-.17.62-.36,1.27-.53,1.91-8.85-6.13-12.25-10.65-13.37-12.49,5.34-2,17.87-3,18-3s.05,0,.09,0a1.06,1.06,0,0,0,.45-.19l.12-.11a1.47,1.47,0,0,0,.1-.13,1.31,1.31,0,0,0,.11-.12s0-.11,0-.17.08-.1.09-.17,0-.07,0-.11,0-.07,0-.11-.06-.08-.07-.12a.81.81,0,0,0-.11-.27.94.94,0,0,0-.12-.22.72.72,0,0,0-.22-.17s0-.07-.08-.09c-10.76-5.33-16.73-6.71-17-6.76a1,1,0,0,0-1.27.8,1.07,1.07,0,0,0,.8,1.28A68,68,0,0,1,213,161.62c-7.51-1-9.75-1.44-9.78-1.44a1.06,1.06,0,1,0-.41,2.09c.1,0,2,.39,8.18,1.23-4.16.61-8.74,1.49-11.11,2.68-.12.06-.16.19-.24.28a1,1,0,0,0-.26.29.85.85,0,0,0,0,.42c0,.12-.06.23,0,.35s2.44,6.07,15.25,14.8a87.25,87.25,0,0,1-5.16,14c-4.31,9-8,11.38-12.46,12.34a1.07,1.07,0,0,0-.84,1.1c.2,3.3,1.7,6.48,3.28,9.86.71,1.51,1.45,3.07,2.11,4.72a5.91,5.91,0,0,0,3.67,3.59,8.14,8.14,0,0,0,2.69.42,15.21,15.21,0,0,0,7-1.93c2.22-1.29,2.32-8.5,1.71-22.25-.07-1.66-.13-3.05-.14-3.94-.08-4.86,8.25-15.26,11-18.68A6.11,6.11,0,0,0,228.7,176.7Z"/><path class="cls-6" d="M8.75,119.69a2,2,0,0,1-1.31-.5,2,2,0,0,1-.19-2.82c1.26-1.44,2.52-2.81,3.74-4.1a2,2,0,0,1,2.9,2.75c-1.18,1.25-2.4,2.59-3.63,4A2,2,0,0,1,8.75,119.69Zm20.78-17.5a2,2,0,0,1-.79-3.84,17.09,17.09,0,0,1,6-1.49,2,2,0,0,1,.16,4A13.09,13.09,0,0,0,30.32,102,1.88,1.88,0,0,1,29.53,102.19Z"/><path class="cls-6" d="M236.17,147.18a2,2,0,0,1-.33-4,31.75,31.75,0,0,0,5-1.27,2,2,0,0,1,1.31,3.78,34.93,34.93,0,0,1-5.61,1.43Zm-177-1.31a1.9,1.9,0,0,1-.9-.22,14,14,0,0,1-4.83-4.05,2,2,0,1,1,3.18-2.43,10,10,0,0,0,3.45,2.91,2,2,0,0,1-.9,3.79Zm155.52-1.1a1.89,1.89,0,0,1-.7-.13,53.29,53.29,0,0,1-5.21-2.27,2,2,0,0,1,1.79-3.58,48.79,48.79,0,0,0,4.82,2.1,2,2,0,0,1-.7,3.88ZM77,138a2,2,0,0,1-1.25-.44,2,2,0,0,1-.31-2.81c1-1.27,2.12-2.72,3.29-4.29a2,2,0,1,1,3.21,2.38c-1.19,1.61-2.33,3.09-3.38,4.41A2,2,0,0,1,77,138Zm116.13-9.36a2,2,0,0,1-1.69-.93,21.64,21.64,0,0,1-2.56-5.43,2,2,0,0,1,3.83-1.14,17.82,17.82,0,0,0,2.1,4.42,2,2,0,0,1-.61,2.76A1.91,1.91,0,0,1,193.13,128.63ZM49,121.55a2,2,0,0,1-2-1.66c-.36-2.11-.69-3.78-1-5.25a2,2,0,0,1,3.89-.92c.37,1.55.71,3.3,1.09,5.49a2,2,0,0,1-1.63,2.31A2,2,0,0,1,49,121.55Zm43.75-6a2,2,0,0,1-1.1-.33,2,2,0,0,1-.56-2.77l3-4.57a2,2,0,1,1,3.34,2.19q-1.52,2.33-3,4.58A2,2,0,0,1,92.78,115.59Zm93.11-13.17a2,2,0,0,1-1.89-1.34c-.58-1.68-1.22-3.37-1.9-5a2,2,0,1,1,3.7-1.53c.71,1.72,1.37,3.47,2,5.22a2,2,0,0,1-1.23,2.55A2.17,2.17,0,0,1,185.89,102.42Zm-78-9.69a2,2,0,0,1-1.11-.34,2,2,0,0,1-.55-2.78q1.56-2.31,3.09-4.55a2,2,0,1,1,3.3,2.27q-1.53,2.22-3.07,4.52A2,2,0,0,1,107.89,92.73ZM173.3,78.25a2,2,0,0,1-1.61-.81c-1.07-1.45-2.19-2.85-3.32-4.15a2,2,0,1,1,3-2.62c1.19,1.38,2.38,2.85,3.52,4.39a2,2,0,0,1-.42,2.79A2,2,0,0,1,173.3,78.25ZM124,70.58a2,2,0,0,1-1.28-.47,2,2,0,0,1-.25-2.82c1.32-1.57,2.58-3,3.74-4.19a2,2,0,1,1,2.88,2.77c-1.1,1.15-2.29,2.49-3.55,4A2,2,0,0,1,124,70.58ZM152.55,61a2,2,0,0,1-.72-.14A25.46,25.46,0,0,0,147,59.51a2,2,0,1,1,.66-3.94,28.91,28.91,0,0,1,5.64,1.55,2,2,0,0,1-.71,3.87Z"/><path class="cls-6" d="M76.16,241.07a1.62,1.62,0,0,1-.31,0,2,2,0,0,1-1.67-2.28,34,34,0,0,1,1.2-5.17,2,2,0,0,1,3.81,1.21,30.23,30.23,0,0,0-1.06,4.57A2,2,0,0,1,76.16,241.07ZM90,221.6a2,2,0,0,1-.85-3.81,32.63,32.63,0,0,1,5-1.85,2,2,0,0,1,1.1,3.85,29,29,0,0,0-4.38,1.62A2,2,0,0,1,90,221.6Zm24.51-3.66a2,2,0,0,1-.22-4c1.53-.17,3.13-.43,4.75-.77a2,2,0,1,1,.81,3.92c-1.74.36-3.46.64-5.11.83Z"/><path class="cls-6" d="M188.78,188.7a2,2,0,0,1-1.55-3.26c1-1.19,1.52-1.9,1.52-1.91a2,2,0,1,1,3.17,2.45s-.57.73-1.59,2A2,2,0,0,1,188.78,188.7Z"/><path class="cls-6" d="M150,218.88a2,2,0,0,1,0-4,13.51,13.51,0,0,0,4.27-.82,2,2,0,0,1,1.3,3.79,17.68,17.68,0,0,1-5.55,1Zm21.56-11.94a2,2,0,0,1-1.49-.67,2,2,0,0,1,.15-2.82c1.18-1,2.39-2.19,3.61-3.37a2,2,0,1,1,2.79,2.86c-1.26,1.23-2.51,2.4-3.73,3.49A2,2,0,0,1,171.6,206.94Z"/><path class="cls-6" d="M135,207a2,2,0,0,1-1.77-1.06c-.8-1.51-1.53-3-2.27-4.59a2,2,0,0,1,3.62-1.71c.71,1.51,1.42,3,2.18,4.42A2,2,0,0,1,135,207Zm-15.15-18.63-.27,0c-.27,0-.55-.06-.84-.08a17.35,17.35,0,0,1-4.42-.85,2,2,0,1,1,1.21-3.81,13.64,13.64,0,0,0,3.42.67c.39,0,.78.06,1.16.11a2,2,0,0,1-.26,4ZM98.25,176.61a2,2,0,0,1-1.35-.53c-1.23-1.12-2.47-2.31-3.7-3.55a2,2,0,1,1,2.85-2.81c1.18,1.19,2.37,2.33,3.55,3.41a2,2,0,0,1,.12,2.83A2,2,0,0,1,98.25,176.61ZM81.71,157.75a2,2,0,0,1-1.63-.84c-1-1.38-2-2.8-2.89-4.2a2,2,0,1,1,3.34-2.2c.9,1.36,1.84,2.73,2.81,4.07a2,2,0,0,1-.46,2.79A2,2,0,0,1,81.71,157.75Zm-12.3-21.84a2,2,0,0,1-1.86-1.26c-.66-1.68-1.24-3.33-1.72-4.9a2,2,0,1,1,3.83-1.16c.45,1.47,1,3,1.61,4.58a2,2,0,0,1-1.13,2.6A2.1,2.1,0,0,1,69.41,135.91ZM65,111.33a2,2,0,0,1-2-1.71c-.25-1.66-.53-3.3-.8-4.92a2,2,0,0,1,3.95-.66c.27,1.64.55,3.3.8,5a2,2,0,0,1-1.68,2.27A1.53,1.53,0,0,1,65,111.33ZM62.6,86.44a1.36,1.36,0,0,1-.29,0,2,2,0,0,1-1.69-2.27,20.66,20.66,0,0,1,1.49-5.33,2,2,0,1,1,3.66,1.62,16,16,0,0,0-1.19,4.3A2,2,0,0,1,62.6,86.44ZM79.92,70.77a2,2,0,0,1-.46-3.94c1.59-.39,3.18-.82,4.7-1.3a2,2,0,0,1,1.2,3.81c-1.61.51-3.28,1-5,1.38A2.59,2.59,0,0,1,79.92,70.77Zm22.63-10.39a2,2,0,0,1-1.23-3.58,42.64,42.64,0,0,0,3.61-3.15,2,2,0,0,1,2.8,2.86,45.59,45.59,0,0,1-4,3.45A2,2,0,0,1,102.55,60.38Zm13.23-20.59-.25,0a2,2,0,0,1-1.74-2.23,18.09,18.09,0,0,0,.13-2.06,15,15,0,0,0-.19-2.36,2,2,0,1,1,3.94-.67,18.87,18.87,0,0,1,.25,3,22.1,22.1,0,0,1-.16,2.55A2,2,0,0,1,115.78,39.79ZM97.53,24.54c-.52,0-1.06,0-1.61,0a2,2,0,1,1,.19-4,30.15,30.15,0,0,0,4.7-.14,2,2,0,0,1,.43,4A32.69,32.69,0,0,1,97.53,24.54ZM79,15.52a2,2,0,0,1-1.71-1,22.91,22.91,0,0,1-2.25-5,2,2,0,0,1,3.81-1.21,19.6,19.6,0,0,0,1.85,4.12,2,2,0,0,1-1.7,3Z"/><path class="cls-6" d="M158.26,245.88a2,2,0,0,1-1.58-.78,20.7,20.7,0,0,0-3.18-3.25,2,2,0,0,1,2.56-3.08,24.37,24.37,0,0,1,3.79,3.89,2,2,0,0,1-1.59,3.22Zm-17.44-16.65a2,2,0,0,1-1.89-1.33c-.94-2.65-1.5-4.89-1.52-5a2,2,0,1,1,3.88-1s.54,2.15,1.41,4.61a2,2,0,0,1-1.88,2.67Z"/><path class="cls-6" d="M133.69,29.48a2,2,0,0,1-.51-3.94c1.61-.43,3.18-.9,4.67-1.4a2,2,0,0,1,1.27,3.8c-1.57.52-3.22,1-4.91,1.47A2.32,2.32,0,0,1,133.69,29.48ZM155.81,18.4A2,2,0,0,1,154.42,15a20.74,20.74,0,0,0,2.93-3.48,2,2,0,0,1,3.34,2.21,25.12,25.12,0,0,1-3.49,4.15A2,2,0,0,1,155.81,18.4Z"/></g></g></svg>